<svg width="30" height="30" viewBox="0 0 30 30" fill="none" xmlns="http://www.w3.org/2000/svg">
<path d="M27.8571 15C27.8571 15.625 28.2143 16.875 28.9286 18.75C29.6429 20.625 30 21.875 30 22.5C30 23.7695 29.7824 24.9707 29.3471 26.1035C28.9118 27.2363 28.2757 28.1689 27.4386 28.9014C26.6016 29.6338 25.6696 30 24.6429 30H9.64286C9.35268 30 9.10156 29.9072 8.88951 29.7217C8.67745 29.5361 8.57143 29.3164 8.57143 29.0625C8.57143 28.8086 8.67745 28.5889 8.88951 28.4033C9.10156 28.2178 9.35268 28.125 9.64286 28.125C9.95536 28.125 10.2121 28.0371 10.4129 27.8613C10.6138 27.6855 10.7143 27.4609 10.7143 27.1875C10.7143 26.6797 10.4911 26.0889 10.0446 25.415C9.59821 24.7412 9.0625 24.0479 8.4375 23.335C7.8125 22.6221 7.1875 21.8848 6.5625 21.123C5.9375 20.3613 5.40179 19.5215 4.95536 18.6035C4.50893 17.6855 4.28571 16.7969 4.28571 15.9375C4.28571 14.4727 4.95536 13.2617 6.29464 12.3047C6.02679 11.6016 5.35714 11.25 4.28571 11.25C3.63839 11.25 2.96317 11.0498 2.26004 10.6494C1.55692 10.249 1.00446 9.8291 0.602679 9.38965C0.200893 8.9502 0 8.63281 0 8.4375C0 8.18359 0.106027 7.96387 0.31808 7.77832C0.530134 7.59277 0.78125 7.5 1.07143 7.5C1.25 7.5 1.43973 7.36328 1.64062 7.08984C1.84152 6.81641 2.07031 6.47461 2.32701 6.06445C2.58371 5.6543 2.87946 5.23926 3.21429 4.81934C3.54911 4.39941 3.99554 4.00879 4.55357 3.64746C5.11161 3.28613 5.73661 3.03711 6.42857 2.90039V0C6.94196 0 7.54464 0.34668 8.23661 1.04004C8.92857 1.7334 9.375 2.45117 9.57589 3.19336C10.6473 3.58398 11.4621 4.2627 12.0201 5.22949C12.5781 6.19629 12.8571 7.26562 12.8571 8.4375C12.8571 9.00391 12.9967 9.54102 13.2757 10.0488C13.5547 10.5566 13.9509 11.0107 14.4643 11.4111C14.9777 11.8115 15.3962 12.1143 15.7199 12.3193C16.0435 12.5244 16.4509 12.7539 16.942 13.0078C17.0312 13.0664 17.0982 13.1055 17.1429 13.125C18.4375 13.7695 19.5089 14.3945 20.3571 15C21.8973 16.1133 23.1752 17.5098 24.1908 19.1895C25.2065 20.8691 25.7143 22.2852 25.7143 23.4375C25.7143 23.5156 25.7254 23.6035 25.7478 23.7012C25.7701 23.7988 25.8705 23.9355 26.0491 24.1113C26.2277 24.2871 26.4732 24.375 26.7857 24.375C27.0982 24.375 27.3549 24.2236 27.5558 23.9209C27.7567 23.6182 27.8571 23.1445 27.8571 22.5C27.8571 21.8164 27.7121 21.1328 27.4219 20.4492C27.1317 19.7656 26.7746 19.1162 26.3504 18.501C25.9263 17.8857 25.5022 17.2461 25.0781 16.582C24.654 15.918 24.2969 15.1221 24.0067 14.1943C23.7165 13.2666 23.5714 12.2852 23.5714 11.25C23.5714 10.3125 24.0179 9.45312 24.9107 8.67188C25.8036 7.89062 26.7857 7.5 27.8571 7.5C28.4598 7.5 28.9676 7.68066 29.3806 8.04199C29.7935 8.40332 30 8.84766 30 9.375C30 9.6875 29.933 9.96582 29.7991 10.21C29.6652 10.4541 29.4922 10.6787 29.2801 10.8838C29.0681 11.0889 28.9509 11.2109 28.9286 11.25C28.2143 12.2852 27.8571 13.5352 27.8571 15Z" fill="#4C5359"/>
</svg>
