<svg width="30" height="30" viewBox="0 0 30 30" fill="none" xmlns="http://www.w3.org/2000/svg">
<path d="M26.3271 30C25.7591 30 25.2057 29.8828 24.667 29.6484C24.1283 29.4141 23.7316 29.1895 23.477 28.9746C23.2223 28.7598 22.9187 28.4766 22.5661 28.125C21.3124 29.375 19.4319 30 16.9246 30H2.82076C2.56611 30 2.34574 29.9072 2.15965 29.7217C1.97356 29.5361 1.88051 29.3164 1.88051 29.0625C1.88051 28.8086 1.97356 28.5889 2.15965 28.4033C2.34574 28.2178 2.56611 28.125 2.82076 28.125C3.05583 28.125 3.33497 27.9053 3.65818 27.4658C3.98139 27.0264 4.28991 26.4697 4.58374 25.7959C4.87757 25.1221 5.12733 24.3164 5.33301 23.3789C5.53869 22.4414 5.64153 21.5234 5.64153 20.625C5.64153 20.1172 5.57786 19.6875 5.45054 19.3359C5.32321 18.9844 5.1665 18.6816 4.98041 18.4277C4.79432 18.1738 4.60823 17.8955 4.42213 17.5928C4.23604 17.29 4.07933 16.8408 3.95201 16.2451C3.82468 15.6494 3.76102 14.9219 3.76102 14.0625C3.76102 13.5547 3.82468 13.1396 3.95201 12.8174C4.07933 12.4951 4.23604 12.251 4.42213 12.085C4.60823 11.9189 4.79432 11.748 4.98041 11.5723C5.1665 11.3965 5.32321 11.1279 5.45054 10.7666C5.57786 10.4053 5.64153 9.94141 5.64153 9.375C5.64153 8.125 5.01469 7.5 3.76102 7.5C2.87953 7.5 2.03232 7.16309 1.21939 6.48926C0.406464 5.81543 0 5.21484 0 4.6875C0 4.23828 0.210578 3.81348 0.631734 3.41309C1.05289 3.0127 1.46915 2.8125 1.88051 2.8125C2.21352 2.8125 2.52204 2.71484 2.80607 2.51953C3.09011 2.32422 3.35945 2.08984 3.6141 1.81641C3.86876 1.54297 4.14789 1.26953 4.45152 0.996094C4.75514 0.722656 5.1665 0.488281 5.6856 0.292969C6.2047 0.0976563 6.81685 0 7.52204 0C8.4427 0 9.19197 0.107422 9.76983 0.322266C10.3477 0.537109 10.7786 0.81543 11.0627 1.15723C11.3467 1.49902 11.5769 1.97754 11.7532 2.59277C11.9295 3.20801 12.0519 3.81836 12.1205 4.42383C12.189 5.0293 12.3115 5.80078 12.4878 6.73828C12.6641 7.67578 12.8893 8.55469 13.1636 9.375C13.5357 10.4883 14.4123 11.9092 15.7933 13.6377C17.1743 15.3662 18.1783 16.4453 18.8051 16.875C21.3124 18.5352 22.5661 21.0352 22.5661 24.375C22.5661 25.332 23.1244 26.1963 24.2409 26.9678C25.3575 27.7393 26.6797 28.125 28.2076 28.125C28.7169 28.125 29.3144 28.0273 30 27.832C29.8237 28.5156 29.3928 29.0479 28.7071 29.4287C28.0215 29.8096 27.2282 30 26.3271 30ZM9.40255 20.625C9.34378 20.9375 9.26543 21.3428 9.16748 21.8408C9.06954 22.3389 8.85896 23.0957 8.53575 24.1113C8.21254 25.127 7.87463 25.8398 7.52204 26.25H11.2831C11.2831 25.4102 11.1851 24.6826 10.9892 24.0674C10.7933 23.4521 10.5779 23.0078 10.3428 22.7344C10.1077 22.4609 9.89226 22.1436 9.69638 21.7822C9.50049 21.4209 9.40255 21.0352 9.40255 20.625Z" fill="#4C5359"/>
</svg>
