<svg width="45" height="45" viewBox="0 0 45 45" fill="none" xmlns="http://www.w3.org/2000/svg">
<path d="M45 23.0001C45 21.1501 44.8469 19.8001 44.5154 18.4001H22.9592V26.7501H35.6122C35.3572 28.8251 33.9796 31.9501 30.9184 34.05L30.8754 34.3296L37.6911 39.504L38.1633 39.5501C42.4999 35.6251 45 29.8501 45 23.0001" fill="#4285F4"/>
<path d="M22.9591 44.9999C29.158 44.9999 34.362 42.9998 38.1632 39.55L30.9182 34.0498C28.9795 35.3748 26.3774 36.2998 22.9591 36.2998C16.8877 36.2998 11.7347 32.3749 9.89779 26.95L9.62854 26.9724L2.54153 32.3474L2.44885 32.5999C6.22432 39.9498 13.9794 44.9999 22.9591 44.9999" fill="#34A853"/>
<path d="M9.89786 26.95C9.41318 25.55 9.13267 24.0499 9.13267 22.4999C9.13267 20.9498 9.41318 19.4499 9.87236 18.0499L9.85952 17.7518L2.6837 12.2904L2.44892 12.3998C0.892867 15.4499 0 18.875 0 22.4999C0 26.1249 0.892867 29.5498 2.44892 32.5999L9.89786 26.95Z" fill="#FBBC05"/>
<path d="M22.9591 8.69994C27.2703 8.69994 30.1784 10.5249 31.8366 12.05L38.3162 5.85C34.3367 2.22501 29.158 0 22.9591 0C13.9794 0 6.22432 5.04996 2.44885 12.3999L9.87229 18.05C11.7347 12.625 16.8877 8.69994 22.9591 8.69994" fill="#EB4335"/>
</svg>
