<svg width="270" height="90" viewBox="0 0 270 90" fill="none" xmlns="http://www.w3.org/2000/svg">
<path d="M89.1797 37.6982C89.1797 37.0635 89.082 36.4938 88.8867 35.9893C88.7077 35.4684 88.3659 34.9964 87.8613 34.5732C87.3568 34.1338 86.6488 33.7025 85.7373 33.2793C84.8258 32.8561 83.6458 32.4167 82.1973 31.9609C80.5859 31.4401 79.056 30.8542 77.6074 30.2031C76.1751 29.5521 74.9056 28.7952 73.7988 27.9326C72.7083 27.0537 71.8457 26.0365 71.2109 24.8809C70.5924 23.7253 70.2832 22.3825 70.2832 20.8525C70.2832 19.3714 70.6087 18.0286 71.2598 16.8242C71.9108 15.6035 72.8223 14.5618 73.9941 13.6992C75.166 12.8203 76.5495 12.1449 78.1445 11.6729C79.7559 11.2008 81.5218 10.9648 83.4424 10.9648C86.0628 10.9648 88.3496 11.4368 90.3027 12.3809C92.2559 13.3249 93.7695 14.6188 94.8438 16.2627C95.9342 17.9066 96.4795 19.7865 96.4795 21.9023H89.2041C89.2041 20.8607 88.9844 19.9492 88.5449 19.168C88.1217 18.3704 87.4707 17.7438 86.5918 17.2881C85.7292 16.8324 84.6387 16.6045 83.3203 16.6045C82.0508 16.6045 80.9928 16.7998 80.1465 17.1904C79.3001 17.5648 78.6654 18.0775 78.2422 18.7285C77.819 19.3633 77.6074 20.0794 77.6074 20.877C77.6074 21.4792 77.7539 22.0244 78.0469 22.5127C78.3561 23.001 78.8118 23.4567 79.4141 23.8799C80.0163 24.3031 80.7568 24.7018 81.6357 25.0762C82.5146 25.4505 83.5319 25.8167 84.6875 26.1748C86.6243 26.7607 88.3252 27.4199 89.79 28.1523C91.2712 28.8848 92.5081 29.7067 93.501 30.6182C94.4938 31.5296 95.2425 32.5632 95.7471 33.7188C96.2516 34.8743 96.5039 36.1846 96.5039 37.6494C96.5039 39.1956 96.2028 40.5791 95.6006 41.7998C94.9984 43.0205 94.1276 44.054 92.9883 44.9004C91.849 45.7467 90.4899 46.3896 88.9111 46.8291C87.3324 47.2686 85.5664 47.4883 83.6133 47.4883C81.8555 47.4883 80.1221 47.2604 78.4131 46.8047C76.7041 46.3327 75.1497 45.6247 73.75 44.6807C72.3665 43.7367 71.2598 42.5322 70.4297 41.0674C69.5996 39.6025 69.1846 37.8691 69.1846 35.8672H76.5332C76.5332 36.974 76.7041 37.9098 77.0459 38.6748C77.3877 39.4398 77.8678 40.0583 78.4863 40.5303C79.1211 41.0023 79.8698 41.3441 80.7324 41.5557C81.6113 41.7673 82.5716 41.873 83.6133 41.873C84.8828 41.873 85.9245 41.694 86.7383 41.3359C87.5684 40.9779 88.1787 40.4814 88.5693 39.8467C88.9762 39.2119 89.1797 38.4958 89.1797 37.6982ZM113.203 47.4883C111.152 47.4883 109.313 47.1628 107.686 46.5117C106.058 45.8444 104.674 44.9248 103.535 43.7529C102.412 42.5811 101.549 41.222 100.947 39.6758C100.345 38.1133 100.044 36.4531 100.044 34.6953V33.7188C100.044 31.7168 100.329 29.8857 100.898 28.2256C101.468 26.5654 102.282 25.125 103.34 23.9043C104.414 22.6836 105.716 21.7477 107.246 21.0967C108.776 20.4294 110.501 20.0957 112.422 20.0957C114.294 20.0957 115.954 20.4049 117.402 21.0234C118.851 21.6419 120.063 22.5208 121.04 23.6602C122.033 24.7995 122.782 26.1667 123.286 27.7617C123.791 29.3405 124.043 31.0983 124.043 33.0352V35.9648H103.047V31.2773H117.134V30.7402C117.134 29.7637 116.955 28.8929 116.597 28.1279C116.255 27.3467 115.734 26.7282 115.034 26.2725C114.334 25.8167 113.439 25.5889 112.349 25.5889C111.421 25.5889 110.623 25.7923 109.956 26.1992C109.289 26.6061 108.743 27.1758 108.32 27.9082C107.913 28.6406 107.604 29.5033 107.393 30.4961C107.197 31.4727 107.1 32.5469 107.1 33.7188V34.6953C107.1 35.7533 107.246 36.7298 107.539 37.625C107.848 38.5202 108.28 39.2933 108.833 39.9443C109.403 40.5954 110.086 41.0999 110.884 41.458C111.698 41.8161 112.617 41.9951 113.643 41.9951C114.912 41.9951 116.092 41.751 117.183 41.2627C118.289 40.7581 119.242 40.0013 120.039 38.9922L123.457 42.7031C122.904 43.5007 122.147 44.2656 121.187 44.998C120.243 45.7305 119.103 46.3327 117.769 46.8047C116.434 47.2604 114.912 47.4883 113.203 47.4883ZM135.591 40.1641L141.084 20.584H145.552L144.111 28.2744L138.618 47H134.883L135.591 40.1641ZM132.808 20.584L136.738 40.1396L137.104 47H132.71L126.021 20.584H132.808ZM150.581 39.8223L154.414 20.584H161.226L154.536 47H150.166L150.581 39.8223ZM146.162 20.584L151.631 40.0176L152.388 47H148.628L143.135 28.2988L141.743 20.584H146.162ZM179.023 41.043V29.2754C179.023 28.429 178.885 27.7048 178.608 27.1025C178.332 26.484 177.9 26.0039 177.314 25.6621C176.745 25.3203 176.004 25.1494 175.093 25.1494C174.312 25.1494 173.636 25.2878 173.066 25.5645C172.497 25.8249 172.057 26.2074 171.748 26.7119C171.439 27.2002 171.284 27.778 171.284 28.4453H164.253C164.253 27.3223 164.513 26.2562 165.034 25.2471C165.555 24.238 166.312 23.3509 167.305 22.5859C168.298 21.8047 169.478 21.1943 170.845 20.7549C172.228 20.3154 173.774 20.0957 175.483 20.0957C177.534 20.0957 179.357 20.4375 180.952 21.1211C182.547 21.8047 183.8 22.8301 184.712 24.1973C185.64 25.5645 186.104 27.2734 186.104 29.3242V40.6279C186.104 42.0765 186.193 43.2646 186.372 44.1924C186.551 45.1038 186.812 45.9014 187.153 46.585V47H180.049C179.707 46.2839 179.447 45.3887 179.268 44.3145C179.105 43.224 179.023 42.1335 179.023 41.043ZM179.951 30.9111L180 34.8906H176.069C175.142 34.8906 174.336 34.9964 173.652 35.208C172.969 35.4196 172.407 35.7207 171.968 36.1113C171.528 36.4857 171.203 36.9251 170.991 37.4297C170.796 37.9342 170.698 38.4876 170.698 39.0898C170.698 39.6921 170.837 40.2373 171.113 40.7256C171.39 41.1976 171.789 41.5719 172.31 41.8486C172.83 42.109 173.441 42.2393 174.141 42.2393C175.199 42.2393 176.118 42.0277 176.899 41.6045C177.681 41.1813 178.283 40.6605 178.706 40.042C179.146 39.4235 179.373 38.8376 179.39 38.2842L181.245 41.2627C180.985 41.93 180.627 42.6217 180.171 43.3379C179.731 44.054 179.17 44.7295 178.486 45.3643C177.803 45.9827 176.981 46.4954 176.021 46.9023C175.06 47.293 173.921 47.4883 172.603 47.4883C170.926 47.4883 169.404 47.1546 168.037 46.4873C166.686 45.8037 165.612 44.8678 164.814 43.6797C164.033 42.4753 163.643 41.1081 163.643 39.5781C163.643 38.1947 163.903 36.9658 164.424 35.8916C164.945 34.8174 165.71 33.9141 166.719 33.1816C167.744 32.4329 169.022 31.8714 170.552 31.4971C172.082 31.1064 173.856 30.9111 175.874 30.9111H179.951ZM198.408 26.2236V47H191.377V20.584H197.969L198.408 26.2236ZM197.383 32.8643H195.479C195.479 30.9111 195.731 29.1533 196.235 27.5908C196.74 26.012 197.448 24.6693 198.359 23.5625C199.271 22.4395 200.353 21.585 201.606 20.999C202.876 20.3968 204.292 20.0957 205.854 20.0957C207.091 20.0957 208.223 20.2747 209.248 20.6328C210.273 20.9909 211.152 21.5605 211.885 22.3418C212.633 23.123 213.203 24.1566 213.594 25.4424C214.001 26.7282 214.204 28.2988 214.204 30.1543V47H207.124V30.1299C207.124 28.958 206.961 28.0465 206.636 27.3955C206.31 26.7445 205.83 26.2887 205.195 26.0283C204.577 25.7516 203.812 25.6133 202.9 25.6133C201.956 25.6133 201.134 25.8005 200.435 26.1748C199.751 26.5492 199.181 27.07 198.726 27.7373C198.286 28.3883 197.952 29.1533 197.725 30.0322C197.497 30.9111 197.383 31.8551 197.383 32.8643ZM233.809 41.043V29.2754C233.809 28.429 233.67 27.7048 233.394 27.1025C233.117 26.484 232.686 26.0039 232.1 25.6621C231.53 25.3203 230.789 25.1494 229.878 25.1494C229.097 25.1494 228.421 25.2878 227.852 25.5645C227.282 25.8249 226.842 26.2074 226.533 26.7119C226.224 27.2002 226.069 27.778 226.069 28.4453H219.038C219.038 27.3223 219.299 26.2562 219.819 25.2471C220.34 24.238 221.097 23.3509 222.09 22.5859C223.083 21.8047 224.263 21.1943 225.63 20.7549C227.013 20.3154 228.56 20.0957 230.269 20.0957C232.319 20.0957 234.142 20.4375 235.737 21.1211C237.332 21.8047 238.586 22.8301 239.497 24.1973C240.425 25.5645 240.889 27.2734 240.889 29.3242V40.6279C240.889 42.0765 240.978 43.2646 241.157 44.1924C241.336 45.1038 241.597 45.9014 241.938 46.585V47H234.834C234.492 46.2839 234.232 45.3887 234.053 44.3145C233.89 43.224 233.809 42.1335 233.809 41.043ZM234.736 30.9111L234.785 34.8906H230.854C229.927 34.8906 229.121 34.9964 228.438 35.208C227.754 35.4196 227.192 35.7207 226.753 36.1113C226.313 36.4857 225.988 36.9251 225.776 37.4297C225.581 37.9342 225.483 38.4876 225.483 39.0898C225.483 39.6921 225.622 40.2373 225.898 40.7256C226.175 41.1976 226.574 41.5719 227.095 41.8486C227.616 42.109 228.226 42.2393 228.926 42.2393C229.984 42.2393 230.903 42.0277 231.685 41.6045C232.466 41.1813 233.068 40.6605 233.491 40.042C233.931 39.4235 234.159 38.8376 234.175 38.2842L236.03 41.2627C235.77 41.93 235.412 42.6217 234.956 43.3379C234.517 44.054 233.955 44.7295 233.271 45.3643C232.588 45.9827 231.766 46.4954 230.806 46.9023C229.845 47.293 228.706 47.4883 227.388 47.4883C225.711 47.4883 224.189 47.1546 222.822 46.4873C221.471 45.8037 220.397 44.8678 219.6 43.6797C218.818 42.4753 218.428 41.1081 218.428 39.5781C218.428 38.1947 218.688 36.9658 219.209 35.8916C219.73 34.8174 220.495 33.9141 221.504 33.1816C222.529 32.4329 223.807 31.8714 225.337 31.4971C226.867 31.1064 228.641 30.9111 230.659 30.9111H234.736Z" fill="#4C5359"/>
<path d="M76.2443 54.2045C76.1676 53.5568 75.8565 53.054 75.3111 52.696C74.7656 52.338 74.0966 52.1591 73.304 52.1591C72.7244 52.1591 72.2173 52.2528 71.7827 52.4403C71.3523 52.6278 71.0156 52.8856 70.7727 53.2138C70.5341 53.5419 70.4148 53.9147 70.4148 54.3324C70.4148 54.6818 70.4979 54.9822 70.6641 55.2336C70.8345 55.4808 71.0518 55.6875 71.3161 55.8537C71.5803 56.0156 71.8572 56.1498 72.147 56.2564C72.4368 56.3586 72.7031 56.4417 72.946 56.5057L74.2756 56.8636C74.6165 56.9531 74.9957 57.0767 75.4134 57.2344C75.8352 57.392 76.2379 57.6072 76.6214 57.8799C77.0092 58.1484 77.3288 58.4936 77.5803 58.9155C77.8317 59.3373 77.9574 59.8551 77.9574 60.4687C77.9574 61.1761 77.772 61.8153 77.4013 62.3863C77.0348 62.9574 76.4979 63.4112 75.7905 63.7478C75.0874 64.0845 74.233 64.2528 73.2273 64.2528C72.2898 64.2528 71.478 64.1015 70.7919 63.799C70.1101 63.4964 69.5732 63.0746 69.1811 62.5334C68.7933 61.9922 68.5739 61.3636 68.5227 60.6477H70.1591C70.2017 61.142 70.3679 61.5511 70.6577 61.875C70.9517 62.1946 71.3224 62.4332 71.7699 62.5909C72.2216 62.7443 72.7074 62.821 73.2273 62.821C73.8324 62.821 74.3757 62.723 74.8572 62.527C75.3388 62.3267 75.7202 62.0497 76.0014 61.696C76.2827 61.338 76.4233 60.9204 76.4233 60.4432C76.4233 60.0085 76.3018 59.6548 76.0589 59.3821C75.8161 59.1094 75.4964 58.8878 75.1001 58.7173C74.7038 58.5469 74.2756 58.3977 73.8153 58.2699L72.2045 57.8096C71.1818 57.5156 70.3722 57.0959 69.7756 56.5504C69.179 56.0049 68.8807 55.2912 68.8807 54.4091C68.8807 53.6761 69.0788 53.0369 69.4751 52.4915C69.8757 51.9417 70.4126 51.5156 71.0859 51.213C71.7635 50.9062 72.5199 50.7528 73.3551 50.7528C74.1989 50.7528 74.9489 50.9041 75.6051 51.2067C76.2614 51.5049 76.7813 51.914 77.1648 52.4339C77.5526 52.9538 77.7571 53.544 77.7784 54.2045H76.2443ZM83.2484 64.2528C82.6262 64.2528 82.0616 64.1356 81.5545 63.9013C81.0474 63.6626 80.6447 63.3196 80.3464 62.8721C80.0481 62.4204 79.899 61.875 79.899 61.2358C79.899 60.6733 80.0098 60.2173 80.2314 59.8679C80.4529 59.5142 80.7491 59.2372 81.1199 59.0369C81.4906 58.8366 81.8997 58.6875 82.3471 58.5895C82.7988 58.4872 83.2527 58.4062 83.7086 58.3466C84.3052 58.2699 84.7889 58.2123 85.1596 58.174C85.5346 58.1314 85.8074 58.0611 85.9778 57.963C86.1525 57.865 86.2399 57.6946 86.2399 57.4517V57.4005C86.2399 56.7699 86.0673 56.2798 85.7221 55.9304C85.3812 55.5809 84.8635 55.4062 84.1689 55.4062C83.4487 55.4062 82.8841 55.5639 82.475 55.8792C82.0659 56.1946 81.7782 56.5312 81.612 56.8892L80.1802 56.3778C80.4359 55.7812 80.7768 55.3167 81.2029 54.9844C81.6333 54.6477 82.1021 54.4133 82.6092 54.2812C83.1206 54.1449 83.6234 54.0767 84.1177 54.0767C84.4331 54.0767 84.7953 54.115 85.2044 54.1917C85.6177 54.2642 86.0162 54.4155 86.3997 54.6456C86.7875 54.8757 87.1092 55.223 87.3649 55.6875C87.6206 56.152 87.7484 56.7741 87.7484 57.554V64.0227H86.2399V62.6932H86.1632C86.0609 62.9062 85.8904 63.1342 85.6518 63.3771C85.4132 63.62 85.0957 63.8267 84.6994 63.9971C84.3031 64.1676 83.8194 64.2528 83.2484 64.2528ZM83.4785 62.8977C84.0751 62.8977 84.5779 62.7805 84.987 62.5461C85.4004 62.3118 85.7115 62.0092 85.9203 61.6385C86.1333 61.2677 86.2399 60.8778 86.2399 60.4687V59.088C86.176 59.1648 86.0353 59.2351 85.818 59.299C85.6049 59.3586 85.3578 59.4119 85.0765 59.4588C84.7995 59.5014 84.5289 59.5398 84.2647 59.5738C84.0048 59.6037 83.7939 59.6292 83.6319 59.6505C83.2399 59.7017 82.8734 59.7848 82.5325 59.8998C82.1958 60.0106 81.9231 60.179 81.7143 60.4048C81.5098 60.6264 81.4075 60.929 81.4075 61.3125C81.4075 61.8366 81.6014 62.2329 81.9892 62.5014C82.3812 62.7656 82.8777 62.8977 83.4785 62.8977ZM98.1786 54.2045L94.5479 64.0227H93.0138L89.3832 54.2045H91.0195L93.7298 62.0284H93.832L96.5423 54.2045H98.1786ZM103.935 64.2273C102.989 64.2273 102.173 64.0184 101.487 63.6008C100.805 63.179 100.278 62.5909 99.9077 61.8366C99.5412 61.0781 99.358 60.196 99.358 59.1903C99.358 58.1846 99.5412 57.2983 99.9077 56.5312C100.278 55.7599 100.794 55.1591 101.455 54.7287C102.119 54.294 102.895 54.0767 103.781 54.0767C104.293 54.0767 104.798 54.1619 105.296 54.3324C105.795 54.5028 106.249 54.7798 106.658 55.1633C107.067 55.5426 107.393 56.0454 107.636 56.6719C107.879 57.2983 108 58.0696 108 58.9858V59.625H100.432V58.321H106.466C106.466 57.767 106.355 57.2727 106.134 56.838C105.916 56.4034 105.605 56.0603 105.2 55.8089C104.8 55.5575 104.327 55.4318 103.781 55.4318C103.18 55.4318 102.661 55.5809 102.222 55.8792C101.787 56.1733 101.452 56.5568 101.218 57.0298C100.984 57.5028 100.866 58.0099 100.866 58.5511V59.4204C100.866 60.1619 100.994 60.7905 101.25 61.3061C101.51 61.8174 101.87 62.2074 102.33 62.4758C102.79 62.74 103.325 62.8721 103.935 62.8721C104.331 62.8721 104.689 62.8167 105.009 62.7059C105.332 62.5909 105.612 62.4204 105.846 62.1946C106.08 61.9645 106.261 61.679 106.389 61.338L107.847 61.7471C107.693 62.2415 107.435 62.6761 107.073 63.0511C106.711 63.4219 106.263 63.7116 105.731 63.9204C105.198 64.125 104.599 64.2273 103.935 64.2273ZM118.246 64.2528C117.624 64.2528 117.06 64.1356 116.553 63.9013C116.045 63.6626 115.643 63.3196 115.344 62.8721C115.046 62.4204 114.897 61.875 114.897 61.2358C114.897 60.6733 115.008 60.2173 115.229 59.8679C115.451 59.5142 115.747 59.2372 116.118 59.0369C116.489 58.8366 116.898 58.6875 117.345 58.5895C117.797 58.4872 118.251 58.4062 118.707 58.3466C119.303 58.2699 119.787 58.2123 120.158 58.174C120.533 58.1314 120.805 58.0611 120.976 57.963C121.151 57.865 121.238 57.6946 121.238 57.4517V57.4005C121.238 56.7699 121.065 56.2798 120.72 55.9304C120.379 55.5809 119.862 55.4062 119.167 55.4062C118.447 55.4062 117.882 55.5639 117.473 55.8792C117.064 56.1946 116.776 56.5312 116.61 56.8892L115.178 56.3778C115.434 55.7812 115.775 55.3167 116.201 54.9844C116.631 54.6477 117.1 54.4133 117.607 54.2812C118.119 54.1449 118.621 54.0767 119.116 54.0767C119.431 54.0767 119.793 54.115 120.202 54.1917C120.616 54.2642 121.014 54.4155 121.398 54.6456C121.786 54.8757 122.107 55.223 122.363 55.6875C122.619 56.152 122.746 56.7741 122.746 57.554V64.0227H121.238V62.6932H121.161C121.059 62.9062 120.888 63.1342 120.65 63.3771C120.411 63.62 120.094 63.8267 119.697 63.9971C119.301 64.1676 118.817 64.2528 118.246 64.2528ZM118.477 62.8977C119.073 62.8977 119.576 62.7805 119.985 62.5461C120.398 62.3118 120.71 62.0092 120.918 61.6385C121.131 61.2677 121.238 60.8778 121.238 60.4687V59.088C121.174 59.1648 121.033 59.2351 120.816 59.299C120.603 59.3586 120.356 59.4119 120.075 59.4588C119.798 59.5014 119.527 59.5398 119.263 59.5738C119.003 59.6037 118.792 59.6292 118.63 59.6505C118.238 59.7017 117.871 59.7848 117.531 59.8998C117.194 60.0106 116.921 60.179 116.712 60.4048C116.508 60.6264 116.406 60.929 116.406 61.3125C116.406 61.8366 116.599 62.2329 116.987 62.5014C117.379 62.7656 117.876 62.8977 118.477 62.8977ZM127.008 58.1165V64.0227H125.5V54.2045H126.957V55.7386H127.085C127.315 55.24 127.665 54.8395 128.133 54.5369C128.602 54.2301 129.207 54.0767 129.949 54.0767C130.613 54.0767 131.195 54.213 131.694 54.4858C132.192 54.7542 132.58 55.1633 132.857 55.713C133.134 56.2585 133.273 56.9488 133.273 57.7841V64.0227H131.764V57.8863C131.764 57.115 131.564 56.5142 131.163 56.0838C130.763 55.6491 130.213 55.4318 129.514 55.4318C129.032 55.4318 128.602 55.5362 128.223 55.745C127.848 55.9538 127.552 56.2585 127.334 56.6591C127.117 57.0596 127.008 57.5454 127.008 58.1165ZM141.092 64.0227V54.2045H142.6V64.0227H141.092ZM141.859 52.5682C141.565 52.5682 141.311 52.468 141.098 52.2677C140.889 52.0674 140.785 51.8267 140.785 51.5454C140.785 51.2642 140.889 51.0234 141.098 50.8231C141.311 50.6228 141.565 50.5227 141.859 50.5227C142.153 50.5227 142.404 50.6228 142.613 50.8231C142.826 51.0234 142.933 51.2642 142.933 51.5454C142.933 51.8267 142.826 52.0674 142.613 52.2677C142.404 52.468 142.153 52.5682 141.859 52.5682ZM146.872 58.1165V64.0227H145.363V54.2045H146.82V55.7386H146.948C147.178 55.24 147.528 54.8395 147.997 54.5369C148.465 54.2301 149.07 54.0767 149.812 54.0767C150.477 54.0767 151.058 54.213 151.557 54.4858C152.056 54.7542 152.443 55.1633 152.72 55.713C152.997 56.2585 153.136 56.9488 153.136 57.7841V64.0227H151.627V57.8863C151.627 57.115 151.427 56.5142 151.026 56.0838C150.626 55.6491 150.076 55.4318 149.377 55.4318C148.896 55.4318 148.465 55.5362 148.086 55.745C147.711 55.9538 147.415 56.2585 147.198 56.6591C146.98 57.0596 146.872 57.5454 146.872 58.1165ZM157.401 58.1165V64.0227H155.892V54.2045H157.35V55.7386H157.478C157.708 55.24 158.057 54.8395 158.526 54.5369C158.995 54.2301 159.6 54.0767 160.341 54.0767C161.006 54.0767 161.588 54.213 162.086 54.4858C162.585 54.7542 162.973 55.1633 163.25 55.713C163.527 56.2585 163.665 56.9488 163.665 57.7841V64.0227H162.157V57.8863C162.157 57.115 161.956 56.5142 161.556 56.0838C161.155 55.6491 160.605 55.4318 159.907 55.4318C159.425 55.4318 158.995 55.5362 158.615 55.745C158.24 55.9538 157.944 56.2585 157.727 56.6591C157.51 57.0596 157.401 57.5454 157.401 58.1165ZM170.41 64.2273C169.524 64.2273 168.746 64.0163 168.077 63.5944C167.412 63.1726 166.893 62.5824 166.518 61.8238C166.147 61.0653 165.961 60.179 165.961 59.1648C165.961 58.142 166.147 57.2493 166.518 56.4865C166.893 55.7237 167.412 55.1314 168.077 54.7095C168.746 54.2876 169.524 54.0767 170.41 54.0767C171.297 54.0767 172.072 54.2876 172.737 54.7095C173.406 55.1314 173.926 55.7237 174.297 56.4865C174.672 57.2493 174.859 58.142 174.859 59.1648C174.859 60.179 174.672 61.0653 174.297 61.8238C173.926 62.5824 173.406 63.1726 172.737 63.5944C172.072 64.0163 171.297 64.2273 170.41 64.2273ZM170.41 62.8721C171.084 62.8721 171.638 62.6996 172.072 62.3544C172.507 62.0092 172.829 61.5554 173.037 60.9929C173.246 60.4304 173.351 59.821 173.351 59.1648C173.351 58.5085 173.246 57.897 173.037 57.3302C172.829 56.7635 172.507 56.3054 172.072 55.9559C171.638 55.6065 171.084 55.4318 170.41 55.4318C169.737 55.4318 169.183 55.6065 168.748 55.9559C168.314 56.3054 167.992 56.7635 167.783 57.3302C167.574 57.897 167.47 58.5085 167.47 59.1648C167.47 59.821 167.574 60.4304 167.783 60.9929C167.992 61.5554 168.314 62.0092 168.748 62.3544C169.183 62.6996 169.737 62.8721 170.41 62.8721ZM181.151 64.2273C180.23 64.2273 179.438 64.0099 178.773 63.5753C178.108 63.1406 177.597 62.5419 177.239 61.7791C176.881 61.0163 176.702 60.1449 176.702 59.1648C176.702 58.1676 176.885 57.2876 177.251 56.5248C177.622 55.7578 178.138 55.1591 178.798 54.7287C179.463 54.294 180.239 54.0767 181.125 54.0767C181.815 54.0767 182.438 54.2045 182.991 54.4602C183.545 54.7159 183.999 55.0738 184.353 55.5341C184.707 55.9943 184.926 56.5312 185.011 57.1449H183.503C183.388 56.6974 183.132 56.3011 182.736 55.9559C182.344 55.6065 181.815 55.4318 181.151 55.4318C180.563 55.4318 180.047 55.5852 179.604 55.892C179.165 56.1946 178.822 56.6228 178.575 57.1768C178.332 57.7265 178.21 58.3721 178.21 59.1136C178.21 59.8721 178.33 60.5326 178.568 61.0951C178.811 61.6576 179.152 62.0944 179.591 62.4055C180.034 62.7166 180.554 62.8721 181.151 62.8721C181.543 62.8721 181.898 62.804 182.218 62.6676C182.538 62.5312 182.808 62.3352 183.03 62.0795C183.251 61.8238 183.409 61.517 183.503 61.1591H185.011C184.926 61.7386 184.715 62.2606 184.379 62.7251C184.046 63.1853 183.605 63.5518 183.055 63.8246C182.51 64.093 181.875 64.2273 181.151 64.2273ZM191.333 64.2273C190.387 64.2273 189.571 64.0184 188.885 63.6008C188.203 63.179 187.677 62.5909 187.306 61.8366C186.94 61.0781 186.756 60.196 186.756 59.1903C186.756 58.1846 186.94 57.2983 187.306 56.5312C187.677 55.7599 188.192 55.1591 188.853 54.7287C189.518 54.294 190.293 54.0767 191.18 54.0767C191.691 54.0767 192.196 54.1619 192.695 54.3324C193.193 54.5028 193.647 54.7798 194.056 55.1633C194.465 55.5426 194.791 56.0454 195.034 56.6719C195.277 57.2983 195.398 58.0696 195.398 58.9858V59.625H187.83V58.321H193.864C193.864 57.767 193.754 57.2727 193.532 56.838C193.315 56.4034 193.004 56.0603 192.599 55.8089C192.198 55.5575 191.725 55.4318 191.18 55.4318C190.579 55.4318 190.059 55.5809 189.62 55.8792C189.185 56.1733 188.851 56.5568 188.616 57.0298C188.382 57.5028 188.265 58.0099 188.265 58.5511V59.4204C188.265 60.1619 188.393 60.7905 188.648 61.3061C188.908 61.8174 189.268 62.2074 189.729 62.4758C190.189 62.74 190.724 62.8721 191.333 62.8721C191.729 62.8721 192.087 62.8167 192.407 62.7059C192.731 62.5909 193.01 62.4204 193.244 62.1946C193.479 61.9645 193.66 61.679 193.788 61.338L195.245 61.7471C195.092 62.2415 194.834 62.6761 194.472 63.0511C194.109 63.4219 193.662 63.7116 193.129 63.9204C192.597 64.125 191.998 64.2273 191.333 64.2273ZM199.202 58.1165V64.0227H197.693V54.2045H199.151V55.7386H199.278C199.509 55.24 199.858 54.8395 200.327 54.5369C200.795 54.2301 201.401 54.0767 202.142 54.0767C202.807 54.0767 203.388 54.213 203.887 54.4858C204.386 54.7542 204.773 55.1633 205.05 55.713C205.327 56.2585 205.466 56.9488 205.466 57.7841V64.0227H203.957V57.8863C203.957 57.115 203.757 56.5142 203.357 56.0838C202.956 55.6491 202.406 55.4318 201.707 55.4318C201.226 55.4318 200.795 55.5362 200.416 55.745C200.041 55.9538 199.745 56.2585 199.528 56.6591C199.31 57.0596 199.202 57.5454 199.202 58.1165ZM212.492 54.2045V55.4829H207.404V54.2045H212.492ZM208.887 51.8523H210.396V61.2102C210.396 61.6363 210.458 61.9559 210.581 62.169C210.709 62.3778 210.871 62.5184 211.067 62.5909C211.267 62.6591 211.478 62.6932 211.7 62.6932C211.866 62.6932 212.002 62.6846 212.109 62.6676C212.215 62.6463 212.301 62.6292 212.365 62.6165L212.671 63.9716C212.569 64.0099 212.426 64.0483 212.243 64.0866C212.06 64.1292 211.828 64.1505 211.546 64.1505C211.12 64.1505 210.703 64.0589 210.294 63.8757C209.889 63.6924 209.552 63.4133 209.284 63.0383C209.019 62.6633 208.887 62.1903 208.887 61.6193V51.8523ZM220.029 64.0227V50.9318H221.614V62.6165H227.699V64.0227H220.029ZM229.949 64.0227V54.2045H231.458V64.0227H229.949ZM230.716 52.5682C230.422 52.5682 230.169 52.468 229.955 52.2677C229.747 52.0674 229.642 51.8267 229.642 51.5454C229.642 51.2642 229.747 51.0234 229.955 50.8231C230.169 50.6228 230.422 50.5227 230.716 50.5227C231.01 50.5227 231.262 50.6228 231.47 50.8231C231.683 51.0234 231.79 51.2642 231.79 51.5454C231.79 51.8267 231.683 52.0674 231.47 52.2677C231.262 52.468 231.01 52.5682 230.716 52.5682ZM238.593 54.2045V55.4829H233.3V54.2045H238.593ZM234.885 64.0227V52.8494C234.885 52.2869 235.017 51.8182 235.282 51.4432C235.546 51.0682 235.889 50.7869 236.311 50.5994C236.733 50.4119 237.178 50.3182 237.647 50.3182C238.017 50.3182 238.32 50.348 238.554 50.4076C238.789 50.4673 238.963 50.5227 239.078 50.5738L238.644 51.8778C238.567 51.8522 238.461 51.8203 238.324 51.7819C238.192 51.7436 238.017 51.7244 237.8 51.7244C237.301 51.7244 236.941 51.8501 236.72 52.1015C236.502 52.353 236.394 52.7216 236.394 53.2074V64.0227H234.885ZM244.419 64.2273C243.473 64.2273 242.657 64.0184 241.971 63.6008C241.289 63.179 240.763 62.5909 240.392 61.8366C240.026 61.0781 239.842 60.196 239.842 59.1903C239.842 58.1846 240.026 57.2983 240.392 56.5312C240.763 55.7599 241.278 55.1591 241.939 54.7287C242.604 54.294 243.379 54.0767 244.266 54.0767C244.777 54.0767 245.282 54.1619 245.781 54.3324C246.279 54.5028 246.733 54.7798 247.142 55.1633C247.551 55.5426 247.877 56.0454 248.12 56.6719C248.363 57.2983 248.484 58.0696 248.484 58.9858V59.625H240.916V58.321H246.95C246.95 57.767 246.839 57.2727 246.618 56.838C246.401 56.4034 246.089 56.0603 245.685 55.8089C245.284 55.5575 244.811 55.4318 244.266 55.4318C243.665 55.4318 243.145 55.5809 242.706 55.8792C242.271 56.1733 241.937 56.5568 241.702 57.0298C241.468 57.5028 241.351 58.0099 241.351 58.5511V59.4204C241.351 60.1619 241.479 60.7905 241.734 61.3061C241.994 61.8174 242.354 62.2074 242.815 62.4758C243.275 62.74 243.81 62.8721 244.419 62.8721C244.815 62.8721 245.173 62.8167 245.493 62.7059C245.817 62.5909 246.096 62.4204 246.33 62.1946C246.565 61.9645 246.746 61.679 246.874 61.338L248.331 61.7471C248.178 62.2415 247.92 62.6761 247.558 63.0511C247.195 63.4219 246.748 63.7116 246.215 63.9204C245.683 64.125 245.084 64.2273 244.419 64.2273Z" fill="#4C5359"/>
<path d="M33.7596 25.4879C36.7627 22.2631 33.7225 15.5874 30.6351 12.6245C28.0623 10.1555 23.8199 8.43291 21.5099 10.9135C18.5068 14.1383 21.547 20.814 24.6344 23.7769C27.2072 26.246 31.4496 27.9685 33.7596 25.4879V25.4879ZM24.9814 34.9142C27.2915 32.4336 25.3591 28.2305 22.7864 25.7614C19.4417 22.5516 12.7054 19.8449 9.70227 23.0697C7.39221 25.5503 9.32453 29.7535 11.8973 32.2225C15.011 35.6804 21.7473 38.3871 24.9814 34.9142V34.9142ZM39.5031 14.0886C36.5 17.3134 39.052 23.9903 42.3966 27.2001C44.7121 29.4222 47.9517 30.6521 50.0307 28.4196C53.0338 25.1948 50.4818 18.5179 47.1372 15.3081C44.8217 13.086 41.3511 12.1041 39.5031 14.0886V14.0886ZM27.3812 43.3241C24.0366 40.1143 17.0955 38.1506 14.3234 41.1273C12.2443 43.3599 13.6358 46.5743 15.9513 48.7964C19.296 52.0062 26.2371 53.9699 29.0091 50.9932C31.0882 48.7606 29.6967 45.5462 27.3812 43.3241ZM34.2588 34.8923C29.6387 39.8535 31.6345 54.4522 37.2946 59.8841C39.8674 62.3532 42.2563 61.3574 44.1044 59.373C46.8764 56.3962 46.8973 52.1884 49.4383 49.4597C51.7484 46.9791 55.8857 46.7218 58.4268 43.9931C60.2748 42.0086 61.8393 39.2823 59.0092 36.5663C53.3491 31.1344 38.879 29.9311 34.2588 34.8923V34.8923Z" fill="#4C5359"/>
</svg>
