<svg width="202" height="223" viewBox="0 0 202 223" fill="none" xmlns="http://www.w3.org/2000/svg">
<path d="M139.767 102.511C156.446 112.141 180.281 94.5605 188.852 79.7144C195.995 67.3426 198.152 48.7927 185.322 41.3853C168.643 31.7557 144.807 49.3362 136.236 64.1823C129.093 76.5541 126.937 95.104 139.767 102.511V102.511ZM91.0126 74.3632C103.843 81.7706 118.829 70.6282 125.972 58.2564C135.258 42.1731 138.565 12.7407 121.886 3.11111C109.056 -4.2963 94.0696 6.84615 86.9267 19.2179C76.358 34.5605 73.0506 63.9929 91.0126 74.3632V74.3632ZM193.098 116.806C176.418 107.177 152.014 122.779 142.729 138.863C136.3 149.997 135.003 164.095 146.551 170.761C163.23 180.391 187.634 164.788 196.919 148.705C203.348 137.57 203.362 122.732 193.098 116.806V116.806ZM59.3336 90.7144C68.6193 74.631 68.6464 44.9544 53.2504 36.0655C41.7034 29.3988 30.1429 37.5705 23.7143 48.7051C14.4286 64.7884 14.4014 94.4651 29.7974 103.354C41.3444 110.021 52.905 101.849 59.3336 90.7144ZM101.818 111.944C76.1582 97.1289 18.66 116.719 2.94573 143.937C-4.19712 156.308 2.64102 165.205 12.905 171.131C28.301 180.02 45.5623 176.789 59.6753 184.937C72.5053 192.345 78.3381 208.909 92.4511 217.057C102.715 222.983 115.691 227.175 123.548 213.566C139.262 186.348 127.478 126.759 101.818 111.944V111.944Z" fill="#323643" fill-opacity="0.05"/>
</svg>
