<svg width="278" height="365" viewBox="0 0 278 365" fill="none" xmlns="http://www.w3.org/2000/svg">
<path d="M205.36 204.634C205.36 204.634 203.402 209.177 204.549 213.998C205.705 218.818 207.318 223.27 207.318 223.27C207.318 223.27 207.662 232.726 207.318 233.747C206.974 234.768 204.32 236.065 204.32 237.922C204.32 239.779 205.164 242.123 209.432 242.683C213.7 243.243 217.157 242.097 218.583 240.708C220.639 238.699 220.238 237.277 220.238 235.795C220.238 234.313 220.352 225.785 220.811 224.481C221.27 223.184 221.966 222.44 223.236 222.532C224.506 222.624 225.89 224.198 226.005 227.168C226.12 230.132 226.234 235.327 226.12 236.348C226.005 237.369 224.85 240.8 225.776 242.189C226.701 243.579 230.888 244.929 234.115 244.784C238.343 244.599 240.882 242.466 241.112 240.8C241.341 239.134 239.956 235.327 239.956 234.214C239.956 233.102 241.57 225.502 242.029 225.035C242.488 224.574 243.897 224.672 246.985 223.553C249.795 222.532 251.295 221.512 251.295 221.512C251.295 221.512 251.368 228.097 251.254 228.834C251.139 229.578 248.37 231.896 248.829 233.655C249.287 235.413 251.991 236.44 254.399 236.618C258.471 236.928 262.436 234.392 263.468 232.166C264.509 229.941 264.042 227.162 263.812 225.68C263.583 224.198 263.583 219.003 263.812 217.613C264.042 216.224 264.419 215.381 264.566 214.65C264.795 213.445 264.738 212.101 264.738 212.101C264.738 212.101 268.72 212.101 271.079 210.85C273.438 209.599 275.921 207.419 277.018 204.732C278.092 202.105 277.829 201.301 276.904 201.209C275.978 201.117 271.833 205.793 268.31 205.937C262.715 206.168 263.272 201.348 259.004 198.43C254.195 195.138 246.699 194.723 246.699 194.723C246.699 194.723 247.993 190.831 248.009 187.953C248.067 175.389 240.456 171.128 240.456 171.128C240.456 171.128 231.305 165.649 220.926 166.018C210.546 166.387 202.936 173.018 202.936 173.018L197.226 193.274C197.226 193.274 198.667 197.166 200.978 199.998C203.402 202.961 205.36 204.634 205.36 204.634V204.634Z" fill="#FFD2B1"/>
<path d="M198.151 168.527C189.672 168.665 185.191 174.473 185.06 178.029C184.986 180.117 183.962 195.289 194.399 195.599C198.585 195.724 201.698 191.819 203.28 187.393C205.27 181.816 205.18 176.225 205.41 174.737C205.778 172.359 206.393 170.614 206.393 170.614C206.393 170.614 205.36 168.408 198.151 168.527Z" fill="#865B52"/>
<path d="M243.536 166.209C252.761 166.485 255.907 169.771 256.8 171.681C257.783 173.769 258.643 181.216 257.201 186.188C256.03 190.245 254.26 192.306 250.107 192.168C246.305 192.043 244.38 187.637 241.513 181.645C238.744 175.85 236.622 170.66 236.262 169.916C235.803 168.942 234.82 168.527 234.82 168.527C234.82 168.527 236.663 165.998 243.536 166.209V166.209Z" fill="#865B52"/>
<path d="M232.985 181.269C228.43 181.5 226.251 185.569 227.217 189.659C228.258 194.064 231.854 196.152 236.385 195.684C241.341 195.177 242.84 190.633 242.209 187.202C241.628 184.081 239.432 180.94 232.985 181.269V181.269Z" fill="#D27856"/>
<path d="M238.343 188.73C238.343 190.653 237.015 192.26 234.91 192.214C232.051 192.148 231.305 190.113 231.363 188.401C231.428 186.399 232.919 185.451 235.049 185.497C236.95 185.53 238.343 186.807 238.343 188.73Z" fill="#060401"/>
<path d="M214.298 189.79C214.298 191.792 212.971 193.465 210.866 193.412C208.006 193.347 207.261 191.226 207.318 189.441C207.384 187.354 209.162 186.465 210.833 186.564C212.725 186.676 214.298 187.789 214.298 189.79V189.79Z" fill="#060401"/>
<path d="M225.251 200.972C225.251 200.972 230.265 200.557 230.036 197.634C229.806 194.716 226.406 194.525 223.752 194.571C221.098 194.618 217.297 195.73 217.698 198.187C218.099 200.643 222.425 200.966 222.425 200.966C222.425 200.966 222.417 202.783 220.926 202.915C219.312 203.053 217.002 201.058 216.371 200.551C215.74 200.044 214.757 200.228 214.413 200.643C214.069 201.058 214.298 201.986 215.281 202.777C216.264 203.567 218.566 205.556 220.877 205.371C223.187 205.187 223.244 204.212 224.162 204.166C225.087 204.12 225.03 205.233 227.332 205.187C228.954 205.154 232.223 202.862 232.813 202.454C234.14 201.525 234.484 200.597 233.911 199.998C233.337 199.398 231.723 200.274 230.855 200.788C229.986 201.295 228.586 202.493 227.226 202.691C224.965 203.014 225.251 200.972 225.251 200.972V200.972Z" fill="#060401"/>
<path d="M245.724 196.626C245.724 196.626 244.634 198.549 243.725 200.09C242.627 201.947 241.054 203.567 241.054 203.567C241.054 203.567 242.832 213.339 253.408 212.496C257.193 212.193 260.06 209.81 260.331 207.281C260.789 203.014 258.774 201.018 255.645 199.069C250.574 195.921 245.724 196.626 245.724 196.626Z" fill="#D27856"/>
<path d="M238.4 211.91C236.524 213.293 237.532 215.894 240.014 216.178C242.496 216.454 243.831 214.795 243.643 213.537C243.364 211.588 240.538 210.336 238.4 211.91V211.91Z" fill="#D27856"/>
<path d="M213.897 209.342C213.897 209.342 212.242 212.99 215.74 217.56C217.231 219.503 220.549 220.596 222.892 220.524C225.366 220.451 227.602 219.76 229.519 217.837C232.575 214.775 231.707 209.678 231.707 209.678C231.707 209.678 226.865 211.278 222.425 211.16C217.698 211.041 213.897 209.342 213.897 209.342V209.342Z" fill="#D27856"/>
<path d="M207.859 237.263C206.655 236.967 206.171 238.469 206.089 239.423C206.008 240.378 206.016 241.616 207.089 241.926C208.162 242.235 207.949 240.398 208.047 239.792C208.244 238.627 209.129 237.573 207.859 237.263Z" fill="#D27856"/>
<path d="M212.586 237.823C211.865 237.797 211.103 238.383 211.013 240.082C210.939 241.504 211.013 242.677 212.013 242.742C213.356 242.828 212.979 241.445 213.053 240.299C213.086 239.647 214.085 237.882 212.586 237.823V237.823Z" fill="#D27856"/>
<path d="M230.928 239.674C229.773 239.674 229.741 240.727 229.741 241.867C229.741 243.012 229.446 244.428 230.74 244.553C232.313 244.705 232.01 243.006 232.01 242.051C232.002 241.221 232.19 239.674 230.928 239.674V239.674Z" fill="#D27856"/>
<path d="M236.155 239.463C235.229 239.614 235.311 240.635 235.344 241.873C235.385 243.111 235.156 244.422 236.458 244.316C237.572 244.224 237.499 242.769 237.458 241.656C237.425 240.694 237.581 239.219 236.155 239.463V239.463Z" fill="#D27856"/>
<path d="M251.991 231.409C251.196 231.284 250.295 231.824 250.066 233.266C249.877 234.504 249.951 235.591 251.295 235.828C251.983 235.953 252.106 234.53 252.138 233.51C252.179 232.627 252.99 231.567 251.991 231.409Z" fill="#D27856"/>
<path d="M256.333 232.16C255.571 232.061 254.825 232.436 254.629 233.971C254.514 234.866 254.104 236.473 255.489 236.532C256.562 236.572 256.48 235.156 256.579 234.419C256.734 233.253 257.586 232.331 256.333 232.16Z" fill="#D27856"/>
<path d="M10.3113 207.076C10.0511 205.813 9.92092 204.55 10.0511 203.412C10.0511 201.896 10.4414 200.633 11.2222 199.369C12.003 197.979 13.3043 196.842 14.7358 196.211C16.1673 195.452 17.9891 195.2 19.6808 195.452C21.2424 195.579 22.804 196.211 24.1053 197.095C25.2765 197.853 26.3175 198.864 27.2285 200.001C28.6599 201.896 29.701 204.17 30.2215 206.824V207.203C30.4818 208.845 29.4407 210.361 27.749 210.867C27.4887 210.993 27.2285 210.993 26.9682 210.993C25.9271 211.12 25.0162 210.867 24.2354 210.235C23.4546 209.603 22.9341 208.845 22.804 207.835C22.5437 206.066 22.1533 204.55 21.3725 203.412C20.7219 202.275 19.6808 201.391 18.6398 201.138C18.2494 201.012 17.7288 201.012 17.3384 201.138C16.8179 201.264 16.4275 201.644 16.1673 202.023C15.7769 202.528 15.5166 203.033 15.5166 203.791C15.3865 204.55 15.3865 205.308 15.5166 206.066C15.7769 207.582 16.2974 209.351 17.2083 211.12C17.5987 211.878 18.1192 212.762 18.6398 213.647C19.1603 214.531 19.8109 215.289 20.3315 215.921C21.7629 217.563 23.0642 218.827 24.4957 219.838C26.1874 220.975 27.8791 221.733 29.5708 221.985C31.2626 222.238 33.2145 222.238 35.1665 221.606C36.7281 221.227 37.639 221.733 37.8993 222.491C38.1595 223.123 37.7691 224.133 36.2076 224.639H36.0774C33.7351 225.397 31.2626 225.65 29.0503 225.27C26.8381 225.018 24.4957 224.007 22.2834 222.744C20.4616 221.606 18.9 220.09 17.2083 218.321C16.5576 217.563 15.907 216.805 15.3865 216.173L15.1262 215.794C14.3454 214.91 13.6947 214.026 13.1742 213.141C11.6126 211.12 10.7017 209.098 10.3113 207.076M68.0899 232.093C70.4323 234.999 80.7127 232.093 82.4044 228.808C89.1712 215.415 82.4044 209.603 82.4044 209.603L68.0899 211.499C68.0899 211.625 65.227 228.556 68.0899 232.093Z" fill="#3E4347"/>
<path d="M48.7002 232.093C46.3579 234.999 36.0774 232.093 34.3857 228.808C27.6189 215.415 34.3857 209.603 34.3857 209.603L48.7002 211.499C48.7002 211.625 51.6933 228.556 48.7002 232.093" fill="#3E4347"/>
<path d="M52.2138 231.209C52.0837 232.598 48.8304 233.357 44.9264 232.978C41.0225 232.598 38.0294 231.335 38.0294 229.945C38.1596 228.555 41.1526 230.324 45.0566 230.577C49.0907 231.082 52.344 229.945 52.2138 231.209ZM64.5764 231.209C64.7065 232.598 67.9598 233.357 71.8637 232.978C75.7677 232.598 78.7607 231.335 78.7607 229.945C78.6306 228.555 75.6376 230.324 71.7336 230.577C67.6995 231.082 64.4462 229.945 64.5764 231.209Z" fill="white"/>
<path d="M58.33 237.779C60.9326 240.558 69.9117 240.432 72.7746 237.779C76.6786 233.988 76.5484 216.679 76.6786 208.34L59.7614 206.95C59.8915 206.95 55.0767 234.115 58.33 237.779" fill="#4C5359"/>
<path d="M58.4601 237.779C55.8574 240.558 46.8783 240.432 44.0154 237.779C40.1115 233.988 40.2416 216.679 40.1115 208.34L57.0286 206.95C57.0286 206.95 61.7134 234.115 58.4601 237.779" fill="#4C5359"/>
<path d="M51.5631 216.679L58.4601 230.83L65.3571 216.679H51.5631Z" fill="white"/>
<path d="M85.2673 164.245C82.1441 162.476 66.0078 170.688 62.7545 176.248L86.0481 189.641C89.1713 184.208 88.2603 165.887 85.2673 164.245" fill="#4C5359"/>
<path d="M80.4524 172.584C79.2812 171.952 69.7816 176.121 67.9597 179.154L80.9729 186.608C82.6647 183.702 81.4935 173.215 80.4524 172.584" fill="#F7A4A4"/>
<path d="M31.653 164.245C28.5299 166.014 27.619 184.081 30.8723 189.641L54.1659 176.248C51.0427 170.815 34.6461 162.476 31.653 164.245V164.245Z" fill="#4C5359"/>
<path d="M36.5979 172.584C35.4267 173.216 34.2555 183.576 36.0774 186.608L48.9604 179.154C47.2687 176.248 37.639 171.952 36.5979 172.584" fill="#F7A4A4"/>
<path d="M58.4601 173.342C31.3926 173.342 28.79 191.788 28.79 202.023C28.79 206.318 42.0634 219.585 58.3299 219.585C74.7265 219.585 88 206.318 88 202.023C88 191.788 85.3974 173.342 58.4601 173.342" fill="#4C5359"/>
<path d="M50.9125 197.474C50.9125 197.474 47.7894 202.022 42.0636 200.633C36.3377 199.243 36.0775 193.81 36.0775 193.81C36.0775 193.81 39.2006 189.261 44.9265 190.651C50.6523 192.167 50.9125 197.474 50.9125 197.474Z" fill="#BFFFAB"/>
<path d="M50.2618 195.2C50.2618 195.2 47.529 198.106 43.7552 198.106C39.7211 198.106 37.2486 192.547 37.2486 192.547C37.2486 192.547 39.9813 189.514 44.7962 190.778C49.3508 191.789 50.2618 195.2 50.2618 195.2" fill="#93E67F"/>
<path d="M46.0976 195.073C46.0976 201.264 42.9744 201.264 42.9744 195.073C42.9744 188.882 46.0976 188.882 46.0976 195.073Z" fill="#4C5359"/>
<path d="M66.0078 197.474C66.0078 197.474 69.131 202.022 74.8568 200.633C80.5826 199.243 80.8429 193.81 80.8429 193.81C80.8429 193.81 77.7197 189.261 71.9939 190.651C66.2681 192.167 66.0078 197.474 66.0078 197.474Z" fill="#BFFFAB"/>
<path d="M66.5283 195.2C66.5283 195.2 69.2611 198.106 73.0349 198.106C77.069 198.106 79.5415 192.547 79.5415 192.547C79.5415 192.547 76.8087 189.514 71.9938 190.778C67.4392 191.789 66.5283 195.2 66.5283 195.2" fill="#93E67F"/>
<path d="M70.6925 195.073C70.6925 201.264 73.8157 201.264 73.8157 195.073C73.9458 188.882 70.6925 188.882 70.6925 195.073Z" fill="#4C5359"/>
<path d="M67.0488 202.528C64.4461 200.633 61.5832 194.315 58.4601 194.315C55.3369 194.315 52.3439 200.633 49.8714 202.528C45.8373 205.56 34.9062 208.972 34.9062 208.972C34.9062 208.972 46.4879 218.574 58.4601 218.574C70.4322 218.574 82.0139 208.972 82.0139 208.972C82.0139 208.972 71.0829 205.56 67.0488 202.528Z" fill="white"/>
<path d="M66.7886 211.119C65.8776 211.625 64.7064 211.878 63.6654 211.878C62.6243 211.751 61.5833 211.499 60.8025 210.867C60.0217 210.235 59.371 209.351 59.2409 208.466L58.4601 204.297L57.6793 208.466C57.5492 209.477 56.8985 210.235 56.1177 210.867C55.337 211.499 54.2959 211.878 53.2548 211.878C52.0837 211.878 51.0426 211.751 50.1317 211.119C49.2208 210.614 48.3098 209.73 47.9194 208.593C47.9194 209.856 48.7002 210.993 49.6111 211.751C50.5221 212.509 51.9535 213.015 53.1247 213.141C54.426 213.267 55.7273 212.888 56.8985 212.13C57.5492 211.751 57.9396 211.246 58.4601 210.614C58.8505 211.246 59.371 211.751 60.0217 212.13C61.1929 212.888 62.4942 213.267 63.7955 213.141C65.0968 213.141 66.3982 212.636 67.3091 211.751C68.3501 210.993 69.0008 209.73 69.0008 208.593C68.6104 209.73 67.8296 210.614 66.7886 211.119" fill="#4C5359"/>
<path d="M62.4942 203.286C61.7134 202.402 59.2409 202.275 58.4601 202.275C57.6793 202.275 55.2068 202.402 54.426 203.286C53.9054 203.918 54.2958 205.56 55.8574 207.076C56.7683 207.961 57.6793 208.214 58.4601 208.214C59.2409 208.214 60.1518 207.961 61.0627 207.076C62.6243 205.56 63.0147 203.918 62.4942 203.286Z" fill="#4C5359"/>
<path d="M58.0697 236.768C58.0697 238.158 55.0767 239.169 51.3029 239.169C47.529 239.169 44.536 238.032 44.536 236.768C44.536 235.378 47.529 236.894 51.3029 236.894C54.9466 236.894 58.0697 235.505 58.0697 236.768ZM72.2541 236.768C72.2541 238.158 69.2611 239.169 65.4872 239.169C61.7134 239.169 58.7204 238.032 58.7204 236.768C58.7204 235.378 61.7134 236.894 65.4872 236.894C69.2611 236.894 72.2541 235.505 72.2541 236.768Z" fill="white"/>
<path d="M45.8373 238.79L47.6592 235.757L47.1387 239.295L45.8373 238.79ZM50.392 239.801L51.0426 235.631L51.6933 239.801H50.392ZM55.4671 239.295L54.9466 236.01L56.7684 238.916L55.4671 239.295ZM69.7816 239.295L69.2611 235.757L71.0829 238.79L69.7816 239.295ZM65.0969 239.801L65.7475 235.631L66.3982 239.801H65.0969ZM60.0217 238.916L61.8436 236.01L61.323 239.295L60.0217 238.916Z" fill="#3E4347"/>
<path d="M75.6797 314.698C75.6797 314.063 75.582 313.494 75.3867 312.989C75.2077 312.468 74.8659 311.996 74.3613 311.573C73.8568 311.134 73.1488 310.702 72.2373 310.279C71.3258 309.856 70.1458 309.417 68.6973 308.961C67.0859 308.44 65.556 307.854 64.1074 307.203C62.6751 306.552 61.4056 305.795 60.2988 304.933C59.2083 304.054 58.3457 303.036 57.7109 301.881C57.0924 300.725 56.7832 299.382 56.7832 297.853C56.7832 296.371 57.1087 295.029 57.7598 293.824C58.4108 292.604 59.3223 291.562 60.4941 290.699C61.666 289.82 63.0495 289.145 64.6445 288.673C66.2559 288.201 68.0218 287.965 69.9424 287.965C72.5628 287.965 74.8496 288.437 76.8027 289.381C78.7559 290.325 80.2695 291.619 81.3438 293.263C82.4342 294.907 82.9795 296.786 82.9795 298.902H75.7041C75.7041 297.861 75.4844 296.949 75.0449 296.168C74.6217 295.37 73.9707 294.744 73.0918 294.288C72.2292 293.832 71.1387 293.604 69.8203 293.604C68.5508 293.604 67.4928 293.8 66.6465 294.19C65.8001 294.565 65.1654 295.077 64.7422 295.729C64.319 296.363 64.1074 297.079 64.1074 297.877C64.1074 298.479 64.2539 299.024 64.5469 299.513C64.8561 300.001 65.3118 300.457 65.9141 300.88C66.5163 301.303 67.2568 301.702 68.1357 302.076C69.0146 302.451 70.0319 302.817 71.1875 303.175C73.1243 303.761 74.8252 304.42 76.29 305.152C77.7712 305.885 79.0081 306.707 80.001 307.618C80.9938 308.53 81.7425 309.563 82.2471 310.719C82.7516 311.874 83.0039 313.185 83.0039 314.649C83.0039 316.196 82.7028 317.579 82.1006 318.8C81.4984 320.021 80.6276 321.054 79.4883 321.9C78.349 322.747 76.9899 323.39 75.4111 323.829C73.8324 324.269 72.0664 324.488 70.1133 324.488C68.3555 324.488 66.6221 324.26 64.9131 323.805C63.2041 323.333 61.6497 322.625 60.25 321.681C58.8665 320.737 57.7598 319.532 56.9297 318.067C56.0996 316.603 55.6846 314.869 55.6846 312.867H63.0332C63.0332 313.974 63.2041 314.91 63.5459 315.675C63.8877 316.44 64.3678 317.058 64.9863 317.53C65.6211 318.002 66.3698 318.344 67.2324 318.556C68.1113 318.767 69.0716 318.873 70.1133 318.873C71.3828 318.873 72.4245 318.694 73.2383 318.336C74.0684 317.978 74.6787 317.481 75.0693 316.847C75.4762 316.212 75.6797 315.496 75.6797 314.698ZM99.7031 324.488C97.6523 324.488 95.8132 324.163 94.1855 323.512C92.5579 322.844 91.1745 321.925 90.0352 320.753C88.9121 319.581 88.0495 318.222 87.4473 316.676C86.8451 315.113 86.5439 313.453 86.5439 311.695V310.719C86.5439 308.717 86.8288 306.886 87.3984 305.226C87.9681 303.565 88.7819 302.125 89.8398 300.904C90.9141 299.684 92.2161 298.748 93.7461 298.097C95.276 297.429 97.0013 297.096 98.9219 297.096C100.794 297.096 102.454 297.405 103.902 298.023C105.351 298.642 106.563 299.521 107.54 300.66C108.533 301.799 109.282 303.167 109.786 304.762C110.291 306.34 110.543 308.098 110.543 310.035V312.965H89.5469V308.277H103.634V307.74C103.634 306.764 103.455 305.893 103.097 305.128C102.755 304.347 102.234 303.728 101.534 303.272C100.834 302.817 99.9391 302.589 98.8486 302.589C97.9209 302.589 97.1234 302.792 96.4561 303.199C95.7887 303.606 95.2435 304.176 94.8203 304.908C94.4134 305.641 94.1042 306.503 93.8926 307.496C93.6973 308.473 93.5996 309.547 93.5996 310.719V311.695C93.5996 312.753 93.7461 313.73 94.0391 314.625C94.3483 315.52 94.7796 316.293 95.333 316.944C95.9027 317.595 96.5863 318.1 97.3838 318.458C98.1976 318.816 99.1172 318.995 100.143 318.995C101.412 318.995 102.592 318.751 103.683 318.263C104.789 317.758 105.742 317.001 106.539 315.992L109.957 319.703C109.404 320.501 108.647 321.266 107.687 321.998C106.743 322.73 105.603 323.333 104.269 323.805C102.934 324.26 101.412 324.488 99.7031 324.488ZM122.091 317.164L127.584 297.584H132.052L130.611 305.274L125.118 324H121.383L122.091 317.164ZM119.308 297.584L123.238 317.14L123.604 324H119.21L112.521 297.584H119.308ZM137.081 316.822L140.914 297.584H147.726L141.036 324H136.666L137.081 316.822ZM132.662 297.584L138.131 317.018L138.888 324H135.128L129.635 305.299L128.243 297.584H132.662ZM165.523 318.043V306.275C165.523 305.429 165.385 304.705 165.108 304.103C164.832 303.484 164.4 303.004 163.814 302.662C163.245 302.32 162.504 302.149 161.593 302.149C160.812 302.149 160.136 302.288 159.566 302.564C158.997 302.825 158.557 303.207 158.248 303.712C157.939 304.2 157.784 304.778 157.784 305.445H150.753C150.753 304.322 151.013 303.256 151.534 302.247C152.055 301.238 152.812 300.351 153.805 299.586C154.798 298.805 155.978 298.194 157.345 297.755C158.728 297.315 160.274 297.096 161.983 297.096C164.034 297.096 165.857 297.438 167.452 298.121C169.047 298.805 170.3 299.83 171.212 301.197C172.14 302.564 172.604 304.273 172.604 306.324V317.628C172.604 319.076 172.693 320.265 172.872 321.192C173.051 322.104 173.312 322.901 173.653 323.585V324H166.549C166.207 323.284 165.947 322.389 165.768 321.314C165.605 320.224 165.523 319.133 165.523 318.043ZM166.451 307.911L166.5 311.891H162.569C161.642 311.891 160.836 311.996 160.152 312.208C159.469 312.42 158.907 312.721 158.468 313.111C158.028 313.486 157.703 313.925 157.491 314.43C157.296 314.934 157.198 315.488 157.198 316.09C157.198 316.692 157.337 317.237 157.613 317.726C157.89 318.198 158.289 318.572 158.81 318.849C159.33 319.109 159.941 319.239 160.641 319.239C161.699 319.239 162.618 319.028 163.399 318.604C164.181 318.181 164.783 317.66 165.206 317.042C165.646 316.424 165.873 315.838 165.89 315.284L167.745 318.263C167.485 318.93 167.127 319.622 166.671 320.338C166.231 321.054 165.67 321.729 164.986 322.364C164.303 322.983 163.481 323.495 162.521 323.902C161.56 324.293 160.421 324.488 159.103 324.488C157.426 324.488 155.904 324.155 154.537 323.487C153.186 322.804 152.112 321.868 151.314 320.68C150.533 319.475 150.143 318.108 150.143 316.578C150.143 315.195 150.403 313.966 150.924 312.892C151.445 311.817 152.21 310.914 153.219 310.182C154.244 309.433 155.522 308.871 157.052 308.497C158.582 308.106 160.356 307.911 162.374 307.911H166.451ZM184.908 303.224V324H177.877V297.584H184.469L184.908 303.224ZM183.883 309.864H181.979C181.979 307.911 182.231 306.153 182.735 304.591C183.24 303.012 183.948 301.669 184.859 300.562C185.771 299.439 186.853 298.585 188.106 297.999C189.376 297.397 190.792 297.096 192.354 297.096C193.591 297.096 194.723 297.275 195.748 297.633C196.773 297.991 197.652 298.561 198.385 299.342C199.133 300.123 199.703 301.157 200.094 302.442C200.501 303.728 200.704 305.299 200.704 307.154V324H193.624V307.13C193.624 305.958 193.461 305.047 193.136 304.396C192.81 303.744 192.33 303.289 191.695 303.028C191.077 302.752 190.312 302.613 189.4 302.613C188.456 302.613 187.634 302.8 186.935 303.175C186.251 303.549 185.681 304.07 185.226 304.737C184.786 305.388 184.452 306.153 184.225 307.032C183.997 307.911 183.883 308.855 183.883 309.864ZM220.309 318.043V306.275C220.309 305.429 220.17 304.705 219.894 304.103C219.617 303.484 219.186 303.004 218.6 302.662C218.03 302.32 217.289 302.149 216.378 302.149C215.597 302.149 214.921 302.288 214.352 302.564C213.782 302.825 213.342 303.207 213.033 303.712C212.724 304.2 212.569 304.778 212.569 305.445H205.538C205.538 304.322 205.799 303.256 206.319 302.247C206.84 301.238 207.597 300.351 208.59 299.586C209.583 298.805 210.763 298.194 212.13 297.755C213.513 297.315 215.06 297.096 216.769 297.096C218.819 297.096 220.642 297.438 222.237 298.121C223.832 298.805 225.086 299.83 225.997 301.197C226.925 302.564 227.389 304.273 227.389 306.324V317.628C227.389 319.076 227.478 320.265 227.657 321.192C227.836 322.104 228.097 322.901 228.438 323.585V324H221.334C220.992 323.284 220.732 322.389 220.553 321.314C220.39 320.224 220.309 319.133 220.309 318.043ZM221.236 307.911L221.285 311.891H217.354C216.427 311.891 215.621 311.996 214.938 312.208C214.254 312.42 213.692 312.721 213.253 313.111C212.813 313.486 212.488 313.925 212.276 314.43C212.081 314.934 211.983 315.488 211.983 316.09C211.983 316.692 212.122 317.237 212.398 317.726C212.675 318.198 213.074 318.572 213.595 318.849C214.116 319.109 214.726 319.239 215.426 319.239C216.484 319.239 217.403 319.028 218.185 318.604C218.966 318.181 219.568 317.66 219.991 317.042C220.431 316.424 220.659 315.838 220.675 315.284L222.53 318.263C222.27 318.93 221.912 319.622 221.456 320.338C221.017 321.054 220.455 321.729 219.771 322.364C219.088 322.983 218.266 323.495 217.306 323.902C216.345 324.293 215.206 324.488 213.888 324.488C212.211 324.488 210.689 324.155 209.322 323.487C207.971 322.804 206.897 321.868 206.1 320.68C205.318 319.475 204.928 318.108 204.928 316.578C204.928 315.195 205.188 313.966 205.709 312.892C206.23 311.817 206.995 310.914 208.004 310.182C209.029 309.433 210.307 308.871 211.837 308.497C213.367 308.106 215.141 307.911 217.159 307.911H221.236Z" fill="#4C5359"/>
<path d="M62.7443 330.182C62.6676 329.534 62.3565 329.031 61.8111 328.673C61.2656 328.315 60.5966 328.136 59.804 328.136C59.2244 328.136 58.7173 328.23 58.2827 328.418C57.8523 328.605 57.5156 328.863 57.2727 329.191C57.0341 329.519 56.9148 329.892 56.9148 330.31C56.9148 330.659 56.9979 330.96 57.1641 331.211C57.3345 331.458 57.5518 331.665 57.8161 331.831C58.0803 331.993 58.3572 332.127 58.647 332.234C58.9368 332.336 59.2031 332.419 59.446 332.483L60.7756 332.841C61.1165 332.93 61.4957 333.054 61.9134 333.212C62.3352 333.369 62.7379 333.585 63.1214 333.857C63.5092 334.126 63.8288 334.471 64.0803 334.893C64.3317 335.315 64.4574 335.832 64.4574 336.446C64.4574 337.153 64.272 337.793 63.9013 338.364C63.5348 338.935 62.9979 339.388 62.2905 339.725C61.5874 340.062 60.733 340.23 59.7273 340.23C58.7898 340.23 57.978 340.079 57.2919 339.776C56.6101 339.474 56.0732 339.052 55.6811 338.511C55.2933 337.969 55.0739 337.341 55.0227 336.625H56.6591C56.7017 337.119 56.8679 337.528 57.1577 337.852C57.4517 338.172 57.8224 338.411 58.2699 338.568C58.7216 338.722 59.2074 338.798 59.7273 338.798C60.3324 338.798 60.8757 338.7 61.3572 338.504C61.8388 338.304 62.2202 338.027 62.5014 337.673C62.7827 337.315 62.9233 336.898 62.9233 336.42C62.9233 335.986 62.8018 335.632 62.5589 335.359C62.3161 335.087 61.9964 334.865 61.6001 334.695C61.2038 334.524 60.7756 334.375 60.3153 334.247L58.7045 333.787C57.6818 333.493 56.8722 333.073 56.2756 332.528C55.679 331.982 55.3807 331.268 55.3807 330.386C55.3807 329.653 55.5788 329.014 55.9751 328.469C56.3757 327.919 56.9126 327.493 57.5859 327.19C58.2635 326.884 59.0199 326.73 59.8551 326.73C60.6989 326.73 61.4489 326.881 62.1051 327.184C62.7614 327.482 63.2813 327.891 63.6648 328.411C64.0526 328.931 64.2571 329.521 64.2784 330.182H62.7443ZM69.7484 340.23C69.1262 340.23 68.5616 340.113 68.0545 339.879C67.5474 339.64 67.1447 339.297 66.8464 338.849C66.5481 338.398 66.399 337.852 66.399 337.213C66.399 336.651 66.5098 336.195 66.7314 335.845C66.9529 335.491 67.2491 335.214 67.6199 335.014C67.9906 334.814 68.3997 334.665 68.8471 334.567C69.2988 334.464 69.7527 334.384 70.2086 334.324C70.8052 334.247 71.2889 334.19 71.6596 334.151C72.0346 334.109 72.3074 334.038 72.4778 333.94C72.6525 333.842 72.7399 333.672 72.7399 333.429V333.378C72.7399 332.747 72.5673 332.257 72.2221 331.908C71.8812 331.558 71.3635 331.384 70.6689 331.384C69.9487 331.384 69.3841 331.541 68.975 331.857C68.5659 332.172 68.2782 332.509 68.112 332.866L66.6802 332.355C66.9359 331.759 67.2768 331.294 67.7029 330.962C68.1333 330.625 68.6021 330.391 69.1092 330.259C69.6206 330.122 70.1234 330.054 70.6177 330.054C70.9331 330.054 71.2953 330.092 71.7044 330.169C72.1177 330.241 72.5162 330.393 72.8997 330.623C73.2875 330.853 73.6092 331.2 73.8649 331.665C74.1206 332.129 74.2484 332.751 74.2484 333.531V340H72.7399V338.67H72.6632C72.5609 338.884 72.3904 339.112 72.1518 339.354C71.9132 339.597 71.5957 339.804 71.1994 339.974C70.8031 340.145 70.3194 340.23 69.7484 340.23ZM69.9785 338.875C70.5751 338.875 71.0779 338.758 71.487 338.523C71.9004 338.289 72.2115 337.987 72.4203 337.616C72.6333 337.245 72.7399 336.855 72.7399 336.446V335.065C72.676 335.142 72.5353 335.212 72.318 335.276C72.1049 335.336 71.8578 335.389 71.5765 335.436C71.2995 335.479 71.0289 335.517 70.7647 335.551C70.5048 335.581 70.2939 335.607 70.1319 335.628C69.7399 335.679 69.3734 335.762 69.0325 335.877C68.6958 335.988 68.4231 336.156 68.2143 336.382C68.0098 336.604 67.9075 336.906 67.9075 337.29C67.9075 337.814 68.1014 338.21 68.4892 338.479C68.8812 338.743 69.3777 338.875 69.9785 338.875ZM84.6786 330.182L81.0479 340H79.5138L75.8832 330.182H77.5195L80.2298 338.006H80.332L83.0423 330.182H84.6786ZM90.4347 340.205C89.4886 340.205 88.6726 339.996 87.9865 339.578C87.3047 339.156 86.7784 338.568 86.4077 337.814C86.0412 337.055 85.858 336.173 85.858 335.168C85.858 334.162 86.0412 333.276 86.4077 332.509C86.7784 331.737 87.294 331.136 87.9545 330.706C88.6193 330.271 89.3949 330.054 90.2812 330.054C90.7926 330.054 91.2976 330.139 91.7962 330.31C92.2947 330.48 92.7486 330.757 93.1577 331.141C93.5668 331.52 93.8928 332.023 94.1357 332.649C94.3786 333.276 94.5 334.047 94.5 334.963V335.602H86.9318V334.298H92.9659C92.9659 333.744 92.8551 333.25 92.6335 332.815C92.4162 332.381 92.1051 332.038 91.7003 331.786C91.2997 331.535 90.8267 331.409 90.2812 331.409C89.6804 331.409 89.1605 331.558 88.7216 331.857C88.2869 332.151 87.9524 332.534 87.718 333.007C87.4837 333.48 87.3665 333.987 87.3665 334.528V335.398C87.3665 336.139 87.4943 336.768 87.75 337.283C88.0099 337.795 88.37 338.185 88.8303 338.453C89.2905 338.717 89.8253 338.849 90.4347 338.849C90.831 338.849 91.1889 338.794 91.5085 338.683C91.8324 338.568 92.1115 338.398 92.3459 338.172C92.5803 337.942 92.7614 337.656 92.8892 337.315L94.3466 337.724C94.1932 338.219 93.9354 338.653 93.5732 339.028C93.2109 339.399 92.7635 339.689 92.2308 339.898C91.6982 340.102 91.0994 340.205 90.4347 340.205ZM104.746 340.23C104.124 340.23 103.56 340.113 103.053 339.879C102.545 339.64 102.143 339.297 101.844 338.849C101.546 338.398 101.397 337.852 101.397 337.213C101.397 336.651 101.508 336.195 101.729 335.845C101.951 335.491 102.247 335.214 102.618 335.014C102.989 334.814 103.398 334.665 103.845 334.567C104.297 334.464 104.751 334.384 105.207 334.324C105.803 334.247 106.287 334.19 106.658 334.151C107.033 334.109 107.305 334.038 107.476 333.94C107.651 333.842 107.738 333.672 107.738 333.429V333.378C107.738 332.747 107.565 332.257 107.22 331.908C106.879 331.558 106.362 331.384 105.667 331.384C104.947 331.384 104.382 331.541 103.973 331.857C103.564 332.172 103.276 332.509 103.11 332.866L101.678 332.355C101.934 331.759 102.275 331.294 102.701 330.962C103.131 330.625 103.6 330.391 104.107 330.259C104.619 330.122 105.121 330.054 105.616 330.054C105.931 330.054 106.293 330.092 106.702 330.169C107.116 330.241 107.514 330.393 107.898 330.623C108.286 330.853 108.607 331.2 108.863 331.665C109.119 332.129 109.246 332.751 109.246 333.531V340H107.738V338.67H107.661C107.559 338.884 107.388 339.112 107.15 339.354C106.911 339.597 106.594 339.804 106.197 339.974C105.801 340.145 105.317 340.23 104.746 340.23ZM104.977 338.875C105.573 338.875 106.076 338.758 106.485 338.523C106.898 338.289 107.21 337.987 107.418 337.616C107.631 337.245 107.738 336.855 107.738 336.446V335.065C107.674 335.142 107.533 335.212 107.316 335.276C107.103 335.336 106.856 335.389 106.575 335.436C106.298 335.479 106.027 335.517 105.763 335.551C105.503 335.581 105.292 335.607 105.13 335.628C104.738 335.679 104.371 335.762 104.031 335.877C103.694 335.988 103.421 336.156 103.212 336.382C103.008 336.604 102.906 336.906 102.906 337.29C102.906 337.814 103.099 338.21 103.487 338.479C103.879 338.743 104.376 338.875 104.977 338.875ZM113.508 334.094V340H112V330.182H113.457V331.716H113.585C113.815 331.217 114.165 330.817 114.633 330.514C115.102 330.207 115.707 330.054 116.449 330.054C117.113 330.054 117.695 330.19 118.194 330.463C118.692 330.732 119.08 331.141 119.357 331.69C119.634 332.236 119.773 332.926 119.773 333.761V340H118.264V333.864C118.264 333.092 118.064 332.491 117.663 332.061C117.263 331.626 116.713 331.409 116.014 331.409C115.532 331.409 115.102 331.513 114.723 331.722C114.348 331.931 114.052 332.236 113.834 332.636C113.617 333.037 113.508 333.523 113.508 334.094ZM127.592 340V330.182H129.1V340H127.592ZM128.359 328.545C128.065 328.545 127.811 328.445 127.598 328.245C127.389 328.045 127.285 327.804 127.285 327.523C127.285 327.241 127.389 327.001 127.598 326.8C127.811 326.6 128.065 326.5 128.359 326.5C128.653 326.5 128.904 326.6 129.113 326.8C129.326 327.001 129.433 327.241 129.433 327.523C129.433 327.804 129.326 328.045 129.113 328.245C128.904 328.445 128.653 328.545 128.359 328.545ZM133.372 334.094V340H131.863V330.182H133.32V331.716H133.448C133.678 331.217 134.028 330.817 134.497 330.514C134.965 330.207 135.57 330.054 136.312 330.054C136.977 330.054 137.558 330.19 138.057 330.463C138.556 330.732 138.943 331.141 139.22 331.69C139.497 332.236 139.636 332.926 139.636 333.761V340H138.127V333.864C138.127 333.092 137.927 332.491 137.526 332.061C137.126 331.626 136.576 331.409 135.877 331.409C135.396 331.409 134.965 331.513 134.586 331.722C134.211 331.931 133.915 332.236 133.698 332.636C133.48 333.037 133.372 333.523 133.372 334.094ZM143.901 334.094V340H142.392V330.182H143.85V331.716H143.978C144.208 331.217 144.557 330.817 145.026 330.514C145.495 330.207 146.1 330.054 146.841 330.054C147.506 330.054 148.088 330.19 148.586 330.463C149.085 330.732 149.473 331.141 149.75 331.69C150.027 332.236 150.165 332.926 150.165 333.761V340H148.657V333.864C148.657 333.092 148.456 332.491 148.056 332.061C147.655 331.626 147.105 331.409 146.407 331.409C145.925 331.409 145.495 331.513 145.115 331.722C144.74 331.931 144.444 332.236 144.227 332.636C144.01 333.037 143.901 333.523 143.901 334.094ZM156.91 340.205C156.024 340.205 155.246 339.994 154.577 339.572C153.912 339.15 153.393 338.56 153.018 337.801C152.647 337.043 152.461 336.156 152.461 335.142C152.461 334.119 152.647 333.227 153.018 332.464C153.393 331.701 153.912 331.109 154.577 330.687C155.246 330.265 156.024 330.054 156.91 330.054C157.797 330.054 158.572 330.265 159.237 330.687C159.906 331.109 160.426 331.701 160.797 332.464C161.172 333.227 161.359 334.119 161.359 335.142C161.359 336.156 161.172 337.043 160.797 337.801C160.426 338.56 159.906 339.15 159.237 339.572C158.572 339.994 157.797 340.205 156.91 340.205ZM156.91 338.849C157.584 338.849 158.138 338.677 158.572 338.332C159.007 337.987 159.329 337.533 159.537 336.97C159.746 336.408 159.851 335.798 159.851 335.142C159.851 334.486 159.746 333.874 159.537 333.308C159.329 332.741 159.007 332.283 158.572 331.933C158.138 331.584 157.584 331.409 156.91 331.409C156.237 331.409 155.683 331.584 155.248 331.933C154.814 332.283 154.492 332.741 154.283 333.308C154.074 333.874 153.97 334.486 153.97 335.142C153.97 335.798 154.074 336.408 154.283 336.97C154.492 337.533 154.814 337.987 155.248 338.332C155.683 338.677 156.237 338.849 156.91 338.849ZM167.651 340.205C166.73 340.205 165.938 339.987 165.273 339.553C164.608 339.118 164.097 338.519 163.739 337.756C163.381 336.994 163.202 336.122 163.202 335.142C163.202 334.145 163.385 333.265 163.751 332.502C164.122 331.735 164.638 331.136 165.298 330.706C165.963 330.271 166.739 330.054 167.625 330.054C168.315 330.054 168.938 330.182 169.491 330.438C170.045 330.693 170.499 331.051 170.853 331.511C171.207 331.972 171.426 332.509 171.511 333.122H170.003C169.888 332.675 169.632 332.278 169.236 331.933C168.844 331.584 168.315 331.409 167.651 331.409C167.063 331.409 166.547 331.562 166.104 331.869C165.665 332.172 165.322 332.6 165.075 333.154C164.832 333.704 164.71 334.349 164.71 335.091C164.71 335.849 164.83 336.51 165.068 337.072C165.311 337.635 165.652 338.072 166.091 338.383C166.534 338.694 167.054 338.849 167.651 338.849C168.043 338.849 168.398 338.781 168.718 338.645C169.038 338.509 169.308 338.312 169.53 338.057C169.751 337.801 169.909 337.494 170.003 337.136H171.511C171.426 337.716 171.215 338.238 170.879 338.702C170.546 339.163 170.105 339.529 169.555 339.802C169.01 340.07 168.375 340.205 167.651 340.205ZM177.833 340.205C176.887 340.205 176.071 339.996 175.385 339.578C174.703 339.156 174.177 338.568 173.806 337.814C173.44 337.055 173.256 336.173 173.256 335.168C173.256 334.162 173.44 333.276 173.806 332.509C174.177 331.737 174.692 331.136 175.353 330.706C176.018 330.271 176.793 330.054 177.68 330.054C178.191 330.054 178.696 330.139 179.195 330.31C179.693 330.48 180.147 330.757 180.556 331.141C180.965 331.52 181.291 332.023 181.534 332.649C181.777 333.276 181.898 334.047 181.898 334.963V335.602H174.33V334.298H180.364C180.364 333.744 180.254 333.25 180.032 332.815C179.815 332.381 179.504 332.038 179.099 331.786C178.698 331.535 178.225 331.409 177.68 331.409C177.079 331.409 176.559 331.558 176.12 331.857C175.685 332.151 175.351 332.534 175.116 333.007C174.882 333.48 174.765 333.987 174.765 334.528V335.398C174.765 336.139 174.893 336.768 175.148 337.283C175.408 337.795 175.768 338.185 176.229 338.453C176.689 338.717 177.224 338.849 177.833 338.849C178.229 338.849 178.587 338.794 178.907 338.683C179.231 338.568 179.51 338.398 179.744 338.172C179.979 337.942 180.16 337.656 180.288 337.315L181.745 337.724C181.592 338.219 181.334 338.653 180.972 339.028C180.609 339.399 180.162 339.689 179.629 339.898C179.097 340.102 178.498 340.205 177.833 340.205ZM185.702 334.094V340H184.193V330.182H185.651V331.716H185.778C186.009 331.217 186.358 330.817 186.827 330.514C187.295 330.207 187.901 330.054 188.642 330.054C189.307 330.054 189.888 330.19 190.387 330.463C190.886 330.732 191.273 331.141 191.55 331.69C191.827 332.236 191.966 332.926 191.966 333.761V340H190.457V333.864C190.457 333.092 190.257 332.491 189.857 332.061C189.456 331.626 188.906 331.409 188.207 331.409C187.726 331.409 187.295 331.513 186.916 331.722C186.541 331.931 186.245 332.236 186.028 332.636C185.81 333.037 185.702 333.523 185.702 334.094ZM198.992 330.182V331.46H193.904V330.182H198.992ZM195.387 327.83H196.896V337.188C196.896 337.614 196.958 337.933 197.081 338.146C197.209 338.355 197.371 338.496 197.567 338.568C197.767 338.636 197.978 338.67 198.2 338.67C198.366 338.67 198.502 338.662 198.609 338.645C198.715 338.624 198.801 338.607 198.865 338.594L199.171 339.949C199.069 339.987 198.926 340.026 198.743 340.064C198.56 340.107 198.328 340.128 198.046 340.128C197.62 340.128 197.203 340.036 196.794 339.853C196.389 339.67 196.052 339.391 195.784 339.016C195.519 338.641 195.387 338.168 195.387 337.597V327.83ZM206.529 340V326.909H208.114V338.594H214.199V340H206.529ZM216.449 340V330.182H217.958V340H216.449ZM217.216 328.545C216.922 328.545 216.669 328.445 216.455 328.245C216.247 328.045 216.142 327.804 216.142 327.523C216.142 327.241 216.247 327.001 216.455 326.8C216.669 326.6 216.922 326.5 217.216 326.5C217.51 326.5 217.762 326.6 217.97 326.8C218.183 327.001 218.29 327.241 218.29 327.523C218.29 327.804 218.183 328.045 217.97 328.245C217.762 328.445 217.51 328.545 217.216 328.545ZM225.093 330.182V331.46H219.8V330.182H225.093ZM221.385 340V328.827C221.385 328.264 221.517 327.795 221.782 327.42C222.046 327.045 222.389 326.764 222.811 326.577C223.233 326.389 223.678 326.295 224.147 326.295C224.517 326.295 224.82 326.325 225.054 326.385C225.289 326.445 225.463 326.5 225.578 326.551L225.144 327.855C225.067 327.83 224.961 327.798 224.824 327.759C224.692 327.721 224.517 327.702 224.3 327.702C223.801 327.702 223.441 327.827 223.22 328.079C223.002 328.33 222.894 328.699 222.894 329.185V340H221.385ZM230.919 340.205C229.973 340.205 229.157 339.996 228.471 339.578C227.789 339.156 227.263 338.568 226.892 337.814C226.526 337.055 226.342 336.173 226.342 335.168C226.342 334.162 226.526 333.276 226.892 332.509C227.263 331.737 227.778 331.136 228.439 330.706C229.104 330.271 229.879 330.054 230.766 330.054C231.277 330.054 231.782 330.139 232.281 330.31C232.779 330.48 233.233 330.757 233.642 331.141C234.051 331.52 234.377 332.023 234.62 332.649C234.863 333.276 234.984 334.047 234.984 334.963V335.602H227.416V334.298H233.45C233.45 333.744 233.339 333.25 233.118 332.815C232.901 332.381 232.589 332.038 232.185 331.786C231.784 331.535 231.311 331.409 230.766 331.409C230.165 331.409 229.645 331.558 229.206 331.857C228.771 332.151 228.437 332.534 228.202 333.007C227.968 333.48 227.851 333.987 227.851 334.528V335.398C227.851 336.139 227.979 336.768 228.234 337.283C228.494 337.795 228.854 338.185 229.315 338.453C229.775 338.717 230.31 338.849 230.919 338.849C231.315 338.849 231.673 338.794 231.993 338.683C232.317 338.568 232.596 338.398 232.83 338.172C233.065 337.942 233.246 337.656 233.374 337.315L234.831 337.724C234.678 338.219 234.42 338.653 234.058 339.028C233.695 339.399 233.248 339.689 232.715 339.898C232.183 340.102 231.584 340.205 230.919 340.205Z" fill="#4C5359"/>
<path d="M27.7215 297.479C30.2481 294.807 27.9301 289.501 25.484 287.188C23.4457 285.262 20.0279 283.977 18.0844 286.033C15.5578 288.706 17.8758 294.012 20.3218 296.324C22.3602 298.251 25.7779 299.535 27.7215 297.479V297.479ZM20.336 305.292C22.2796 303.236 20.8053 299.896 18.767 297.969C16.1171 295.464 10.6895 293.447 8.16286 296.12C6.21932 298.176 7.69356 301.516 9.7319 303.443C12.1874 306.153 17.6151 308.17 20.336 305.292V305.292ZM32.6799 288.151C30.1533 290.824 32.0731 296.143 34.7229 298.648C36.5575 300.382 39.1694 301.294 40.9186 299.444C43.4452 296.771 41.5253 291.452 38.8755 288.947C37.041 287.213 34.2347 286.507 32.6799 288.151V288.151ZM22.0899 312.011C19.4401 309.506 13.8275 308.093 11.4953 310.56C9.74612 312.411 10.8032 314.967 12.6377 316.702C15.2876 319.207 20.9001 320.619 23.2324 318.152C24.9815 316.302 23.9245 313.745 22.0899 312.011ZM27.9016 305.047C24.0145 309.159 25.2897 320.876 29.774 325.115C31.8124 327.042 33.7843 326.181 35.3392 324.536C37.6714 322.069 37.7899 318.677 39.9278 316.416C41.8714 314.36 45.2512 314.051 47.3891 311.79C48.9439 310.145 50.2854 307.909 48.0433 305.79C43.5589 301.55 31.7887 300.935 27.9016 305.047V305.047Z" fill="#4C5359"/>
<path d="M191.566 170.528C191.158 170.528 190.796 170.429 190.524 170.253C189.324 169.468 189.528 165.129 189.596 163.696C189.686 161.733 188.396 159.319 187.15 158.18C186.516 157.611 185.837 157.316 185.157 157.316H185.067L184.818 157.336L184.523 157.415C183.006 157.709 182.983 159.338 182.961 160.928C182.938 162.028 182.916 163.245 182.508 164.285C182.281 164.874 181.444 164.894 181.285 164.894C180.289 164.894 179.202 164.344 179.156 163.127C179.156 162.97 179.111 162.774 179.021 162.479C178.862 161.792 178.5 160.379 178.681 157.493C178.907 154.038 179.383 150.093 181.195 146.932L181.421 146.559L169.283 108.673L164.528 95.1869C166.249 94.4016 170.416 92.7331 174.605 92.7331C179.474 92.7331 182.893 94.9709 184.795 99.3681C187.92 106.435 189.845 114.974 190.864 126.261C191.656 134.938 192.992 142.162 193.604 143.85C193.785 144.341 194.147 145.342 194.147 145.342C194.849 147.325 195.121 148.071 198.042 153.39C199.582 156.198 198.971 159.024 198.246 162.303C197.997 163.402 197.77 164.501 197.589 165.64C197.159 168.133 193.808 170.528 191.566 170.528V170.528Z" fill="url(#paint0_linear_2_5)"/>
<path d="M89.3926 170.528C87.1507 170.528 83.7993 168.113 83.4143 165.659C83.2332 164.501 82.9841 163.382 82.7576 162.322C82.033 159.044 81.4216 156.198 82.9388 153.39C85.8373 148.11 86.1317 147.305 86.8111 145.401C86.9696 144.969 87.1281 144.478 87.3772 143.87C87.9886 142.28 89.3246 135.095 90.1398 126.281C91.1815 114.974 93.1063 106.435 96.186 99.4074C98.1108 95.0102 101.553 92.792 106.399 92.792C110.611 92.792 114.777 94.4605 116.476 95.2261L111.72 108.673L99.5827 146.579L99.8092 146.952C101.643 150.112 102.096 154.058 102.323 157.513C102.481 160.398 102.142 161.812 101.96 162.499C101.892 162.793 101.847 162.99 101.847 163.147C101.779 164.364 100.692 164.913 99.7186 164.913C99.0845 164.913 98.6316 164.697 98.4958 164.305C98.0882 163.284 98.0655 162.047 98.0429 160.968C98.0202 159.378 97.9749 157.729 96.2992 157.395L95.8916 157.356C95.1443 157.356 94.4876 157.65 93.8309 158.219C92.5855 159.338 91.2947 161.773 91.3853 163.716C91.4532 165.149 91.657 169.487 90.4342 170.292C90.1625 170.449 89.8002 170.528 89.3926 170.528V170.528Z" fill="url(#paint1_linear_2_5)"/>
<path d="M155.696 230.459L144.034 161.635C143.695 160.143 142.2 159.142 140.502 159.142C138.803 159.142 137.309 160.143 136.992 161.537L125.285 230.459L111.245 230.93L108.912 140.572H172.046L169.736 230.93L155.696 230.459Z" fill="#7C7C7C"/>
<path d="M163.169 235.543H173.246C175.103 235.504 176.439 233.658 175.896 232.049C174.22 227.161 169.125 223.568 163.169 223.568C157.1 223.568 151.937 227.298 150.352 232.323C149.854 233.933 151.235 235.523 153.092 235.523H163.169V235.543Z" fill="#424242"/>
<path d="M117.789 235.543H107.712C105.855 235.504 104.519 233.658 105.063 232.049C106.738 227.161 111.834 223.568 117.789 223.568C123.858 223.568 129.021 227.298 130.606 232.323C131.104 233.933 129.723 235.523 127.866 235.523H117.789V235.543Z" fill="#424242"/>
<path d="M141.045 0C99.8771 0 100.217 32.9984 100.217 33.5284C100.217 54.9057 102.096 85.0969 111.969 96.9732C115.887 101.684 123.45 101.94 123.45 101.94L140.479 101.92L157.508 101.94C157.508 101.94 165.071 101.684 168.989 96.9732C178.862 85.0969 180.742 54.9057 180.742 33.5284C180.742 32.9984 182.214 0 141.045 0V0Z" fill="#3C2C23"/>
<path d="M141.045 0C99.8771 0 100.217 32.9984 100.217 33.5284C100.217 54.9057 102.096 85.0969 111.969 96.9732C115.887 101.684 123.45 101.94 123.45 101.94L140.479 101.92L157.508 101.94C157.508 101.94 165.071 101.684 168.989 96.9732C178.862 85.0969 180.742 54.9057 180.742 33.5284C180.742 32.9984 182.214 0 141.045 0V0Z" fill="url(#paint2_radial_2_5)"/>
<path d="M162.377 80.209C156.919 78.9527 149.741 78.1282 140.774 78.1282H140.592H140.411C131.444 78.1282 124.152 78.9527 118.74 80.209C101.643 84.1547 97.3182 93.0864 92.2231 105.041L108.912 111.323V145.244H172.318V111.323L188.803 105.041C183.708 93.0864 179.473 84.1547 162.377 80.209Z" fill="url(#paint3_linear_2_5)"/>
<path d="M140.479 72.0625H129.157V82.4665C129.157 87.1777 133.754 90.986 139.438 90.986H141.498C147.182 90.986 151.779 87.1777 151.779 82.4665V72.0625H140.479Z" fill="#7A4C32"/>
<path d="M140.457 8.59804C157.735 8.59804 173.722 19.7284 173.722 43.3435C173.722 62.3063 160.18 73.5348 148.382 77.1467C145.574 78.0104 142.857 78.4423 140.457 78.4423C138.056 78.4423 135.361 78.0104 132.576 77.1663C120.778 73.5544 107.191 62.3455 107.191 43.3435C107.191 19.7284 123.201 8.59804 140.457 8.59804V8.59804Z" fill="#A56C43"/>
<path d="M141.045 0C99.8771 0 100.217 32.9984 100.217 33.5284C100.217 40.2812 100.398 47.9173 100.964 55.5731L107.712 55.5535C107.644 53.0212 109.705 37.2974 115.819 36.1196C138.26 31.742 150.964 21.4166 150.964 21.4166C154.27 27.659 164.596 33.764 168.31 36.0803C171.367 37.9844 172.295 52.2163 172.227 55.5535H179.972C179.972 55.5142 179.994 55.4553 179.994 55.4161C180.56 47.7996 180.742 40.2223 180.742 33.5088C180.742 32.9984 182.214 0 141.045 0V0Z" fill="#3C2C23"/>
<path d="M141.045 0C99.8771 0 100.217 32.9984 100.217 33.5284C100.217 40.2812 100.398 47.9173 100.964 55.5731L107.712 55.5535C107.644 53.0212 109.705 37.2974 115.819 36.1196C138.26 31.742 150.964 21.4166 150.964 21.4166C154.27 27.659 164.596 33.764 168.31 36.0803C171.367 37.9844 172.295 52.2163 172.227 55.5535H179.972C179.972 55.5142 179.994 55.4553 179.994 55.4161C180.56 47.7996 180.742 40.2223 180.742 33.5088C180.742 32.9984 182.214 0 141.045 0V0Z" fill="url(#paint4_radial_2_5)"/>
<path d="M148.835 62.7774C145.665 64.4067 135.316 64.4067 132.146 62.7774C130.334 61.8352 128.477 63.2682 129.225 64.7012C129.972 66.1145 135.611 69.3731 140.502 69.3731C145.393 69.3731 150.964 66.1145 151.711 64.7012C152.481 63.2682 150.647 61.8352 148.835 62.7774V62.7774Z" fill="#473530"/>
<path d="M144.306 55.7301C144.193 55.6909 144.102 55.6713 143.989 55.6516H136.969C136.856 55.6713 136.743 55.6909 136.652 55.7301C136.018 55.9461 135.656 56.5154 135.973 57.1435C136.29 57.7717 137.671 59.4599 140.479 59.4599C143.287 59.4599 144.691 57.7521 144.986 57.1435C145.303 56.535 144.94 55.9657 144.306 55.7301Z" fill="#875334"/>
<path d="M124.175 52.1378C126.876 52.1378 129.066 50.1692 129.066 47.7407C129.066 45.3122 126.876 43.3435 124.175 43.3435C121.474 43.3435 119.284 45.3122 119.284 47.7407C119.284 50.1692 121.474 52.1378 124.175 52.1378Z" fill="#42312C"/>
<path d="M156.783 52.1378C159.485 52.1378 161.675 50.1692 161.675 47.7407C161.675 45.3122 159.485 43.3435 156.783 43.3435C154.082 43.3435 151.892 45.3122 151.892 47.7407C151.892 50.1692 154.082 52.1378 156.783 52.1378Z" fill="#42312C"/>
<path d="M149.537 39.869C150.466 38.8089 152.617 37.2385 156.806 37.2385C160.995 37.2385 163.147 38.7893 164.075 39.869C164.483 40.3401 164.392 40.8897 164.098 41.2234C163.826 41.5375 163.056 41.8123 162.196 41.5572C161.335 41.302 159.637 40.556 156.829 40.5364C153.998 40.556 152.322 41.302 151.462 41.5572C150.601 41.8123 149.809 41.5375 149.56 41.2234C149.22 40.8701 149.129 40.3401 149.537 39.869V39.869Z" fill="#42312C"/>
<path d="M116.906 39.8689C117.834 38.8089 119.986 37.2385 124.175 37.2385C128.364 37.2385 130.516 38.7893 131.444 39.8689C131.852 40.3401 131.761 40.8897 131.467 41.2234C131.195 41.5375 130.425 41.8123 129.564 41.5571C128.704 41.3019 127.006 40.556 124.198 40.5364C121.367 40.556 119.691 41.3019 118.831 41.5571C117.97 41.8123 117.178 41.5375 116.929 41.2234C116.589 40.8701 116.498 40.3401 116.906 39.8689Z" fill="#42312C"/>
<defs>
<linearGradient id="paint0_linear_2_5" x1="181.713" y1="94.074" x2="181.713" y2="169.702" gradientUnits="userSpaceOnUse">
<stop offset="0.5993" stop-color="#A56C43"/>
<stop offset="1" stop-color="#8D5738"/>
</linearGradient>
<linearGradient id="paint1_linear_2_5" x1="99.2471" y1="94.074" x2="99.2471" y2="169.702" gradientUnits="userSpaceOnUse">
<stop offset="0.5993" stop-color="#A56C43"/>
<stop offset="1" stop-color="#8D5738"/>
</linearGradient>
<radialGradient id="paint2_radial_2_5" cx="0" cy="0" r="1" gradientUnits="userSpaceOnUse" gradientTransform="translate(140.478 48.3522) scale(47.7168 49.228)">
<stop offset="0.7936" stop-color="#554138" stop-opacity="0"/>
<stop offset="1" stop-color="#554138"/>
</radialGradient>
<linearGradient id="paint3_linear_2_5" x1="140.513" y1="77.6591" x2="140.513" y2="143.219" gradientUnits="userSpaceOnUse">
<stop stop-color="#651FFF"/>
<stop offset="0.7047" stop-color="#5914F2"/>
<stop offset="1" stop-color="#530EEB"/>
</linearGradient>
<radialGradient id="paint4_radial_2_5" cx="0" cy="0" r="1" gradientUnits="userSpaceOnUse" gradientTransform="translate(140.812 51.8596) scale(49.9836 52.5804)">
<stop offset="0.7945" stop-color="#554138" stop-opacity="0"/>
<stop offset="1" stop-color="#554138"/>
</radialGradient>
</defs>
</svg>
