<svg width="278" height="407" viewBox="0 0 278 407" fill="none" xmlns="http://www.w3.org/2000/svg">
<path d="M198.168 189.705C197.684 189.705 197.253 189.596 196.93 189.399C195.504 188.526 195.747 183.7 195.827 182.106C195.935 179.922 194.401 177.236 192.922 175.969C192.169 175.336 191.361 175.008 190.554 175.008H190.447L190.151 175.03L189.801 175.118C187.999 175.445 187.972 177.258 187.945 179.027C187.918 180.249 187.891 181.603 187.407 182.761C187.138 183.416 186.142 183.438 185.954 183.438C184.77 183.438 183.479 182.826 183.425 181.472C183.425 181.298 183.371 181.079 183.264 180.752C183.075 179.987 182.645 178.415 182.86 175.205C183.129 171.361 183.694 166.972 185.846 163.456L186.115 163.041L171.696 120.894L166.046 105.892C168.091 105.018 173.041 103.162 178.018 103.162C183.802 103.162 187.864 105.651 190.124 110.543C193.837 118.405 196.123 127.904 197.334 140.461C198.275 150.113 199.863 158.15 200.589 160.028C200.804 160.574 201.235 161.687 201.235 161.687C202.069 163.893 202.392 164.723 205.862 170.641C207.691 173.764 206.965 176.908 206.104 180.555C205.808 181.778 205.539 183.001 205.324 184.268C204.813 187.041 200.831 189.705 198.168 189.705V189.705Z" fill="url(#paint0_linear_2_5)"/>
<path d="M76.7826 189.705C74.1192 189.705 70.1376 187.019 69.6803 184.289C69.4651 183.001 69.1691 181.756 68.9001 180.577C68.0392 176.93 67.3128 173.764 69.1153 170.641C72.5589 164.766 72.9086 163.871 73.7157 161.753C73.904 161.272 74.0923 160.726 74.3883 160.049C75.1146 158.281 76.7019 150.288 77.6704 140.483C78.9079 127.904 81.1947 118.405 84.8534 110.587C87.1402 105.695 91.2294 103.227 96.9866 103.227C101.991 103.227 106.941 105.084 108.958 105.935L103.309 120.894L88.8889 163.063L89.1579 163.478C91.337 166.994 91.8751 171.383 92.1441 175.227C92.3324 178.437 91.9289 180.009 91.7137 180.774C91.633 181.101 91.5791 181.319 91.5791 181.494C91.4984 182.848 90.2071 183.46 89.0503 183.46C88.297 183.46 87.7589 183.219 87.5975 182.783C87.1133 181.647 87.0864 180.271 87.0595 179.07C87.0326 177.301 86.9788 175.467 84.988 175.096L84.5037 175.052C83.6159 175.052 82.8357 175.38 82.0556 176.013C80.5759 177.258 79.0424 179.966 79.1501 182.127C79.2308 183.722 79.4729 188.548 78.0201 189.443C77.6973 189.618 77.2669 189.705 76.7826 189.705V189.705Z" fill="url(#paint1_linear_2_5)"/>
<path d="M155.554 256.376L141.699 179.813C141.295 178.153 139.52 177.039 137.502 177.039C135.484 177.039 133.709 178.153 133.332 179.703L119.423 256.376L102.744 256.9L99.9728 156.381H174.978L172.234 256.9L155.554 256.376Z" fill="#7C7C7C"/>
<path d="M164.432 262.032H176.404C178.61 261.988 180.197 259.936 179.551 258.145C177.56 252.707 171.507 248.711 164.432 248.711C157.222 248.711 151.088 252.86 149.205 258.451C148.613 260.241 150.254 262.01 152.46 262.01H164.432V262.032Z" fill="#424242"/>
<path d="M110.519 262.032H98.547C96.341 261.988 94.7537 259.936 95.3994 258.145C97.3902 252.707 103.443 248.711 110.519 248.711C117.729 248.711 123.862 252.86 125.746 258.451C126.338 260.241 124.696 262.01 122.49 262.01H110.519V262.032Z" fill="#424242"/>
<path d="M138.148 0C89.2386 0 89.6422 36.7094 89.6422 37.299C89.6422 61.0804 91.8751 94.667 103.605 107.879C108.259 113.12 117.244 113.404 117.244 113.404L137.475 113.382L157.706 113.404C157.706 113.404 166.692 113.12 171.346 107.879C183.075 94.667 185.308 61.0804 185.308 37.299C185.308 36.7094 187.057 0 138.148 0V0Z" fill="#312D2D"/>
<path d="M138.148 0C89.2386 0 89.6422 36.7094 89.6422 37.299C89.6422 61.0804 91.8751 94.667 103.605 107.879C108.259 113.12 117.244 113.404 117.244 113.404L137.475 113.382L157.706 113.404C157.706 113.404 166.692 113.12 171.346 107.879C183.075 94.667 185.308 61.0804 185.308 37.299C185.308 36.7094 187.057 0 138.148 0V0Z" fill="url(#paint2_radial_2_5)"/>
<path d="M163.49 89.2295C157.007 87.8319 148.479 86.9147 137.825 86.9147H137.61H137.395C126.741 86.9147 118.078 87.8319 111.649 89.2295C91.337 93.6189 86.1986 103.555 80.1455 116.854L99.9728 123.842V161.578H175.301V123.842L194.886 116.854C188.833 103.555 183.802 93.6189 163.49 89.2295Z" fill="url(#paint3_linear_2_5)"/>
<path d="M137.475 80.1665H124.024V91.7406C124.024 96.9817 129.485 101.218 136.238 101.218H138.686C145.439 101.218 150.9 96.9817 150.9 91.7406V80.1665H137.475Z" fill="#EDC391"/>
<path d="M137.448 9.56491C157.975 9.56491 176.969 21.947 176.969 48.2179C176.969 69.3132 160.881 81.8044 146.864 85.8226C143.528 86.7835 140.3 87.2639 137.448 87.2639C134.597 87.2639 131.395 86.7835 128.086 85.8444C114.07 81.8263 97.9282 69.3569 97.9282 48.2179C97.9282 21.947 116.948 9.56491 137.448 9.56491V9.56491Z" fill="#F9DDBD"/>
<path d="M138.148 0C89.2386 0 89.6422 36.7094 89.6422 37.299C89.6422 44.8112 89.8574 53.3061 90.53 61.8229L98.547 61.801C98.4663 58.984 100.914 41.4919 108.178 40.1816C134.839 35.3118 149.931 23.8251 149.931 23.8251C153.859 30.7695 166.127 37.5611 170.539 40.1379C174.171 42.2562 175.274 58.0886 175.193 61.801H184.394C184.394 61.7574 184.421 61.6919 184.421 61.6482C185.093 53.1751 185.308 44.7457 185.308 37.2772C185.308 36.7094 187.057 0 138.148 0V0Z" fill="#312D2D"/>
<path d="M138.148 0C89.2386 0 89.6422 36.7094 89.6422 37.299C89.6422 44.8112 89.8574 53.3061 90.53 61.8229L98.547 61.801C98.4663 58.984 100.914 41.4919 108.178 40.1816C134.839 35.3118 149.931 23.8251 149.931 23.8251C153.859 30.7695 166.127 37.5611 170.539 40.1379C174.171 42.2562 175.274 58.0886 175.193 61.801H184.394C184.394 61.7574 184.421 61.6919 184.421 61.6482C185.093 53.1751 185.308 44.7457 185.308 37.2772C185.308 36.7094 187.057 0 138.148 0V0Z" fill="url(#paint4_radial_2_5)"/>
<path d="M147.402 69.8373C143.636 71.6498 131.342 71.6498 127.575 69.8373C125.423 68.7891 123.217 70.3832 124.105 71.9774C124.992 73.5497 131.691 77.1748 137.502 77.1748C143.313 77.1748 149.931 73.5497 150.819 71.9774C151.734 70.3832 149.555 68.7891 147.402 69.8373V69.8373Z" fill="#444444"/>
<path d="M142.022 61.9975C141.887 61.9538 141.78 61.932 141.645 61.9102H133.305C133.171 61.932 133.036 61.9538 132.929 61.9975C132.176 62.2377 131.745 62.871 132.122 63.5698C132.498 64.2687 134.139 66.1467 137.475 66.1467C140.811 66.1467 142.479 64.2468 142.829 63.5698C143.206 62.8929 142.775 62.2596 142.022 61.9975Z" fill="#DBA689"/>
<path d="M118.105 58.0011C121.315 58.0011 123.916 55.8111 123.916 53.1095C123.916 50.4079 121.315 48.2178 118.105 48.2178C114.896 48.2178 112.294 50.4079 112.294 53.1095C112.294 55.8111 114.896 58.0011 118.105 58.0011Z" fill="#312D2D"/>
<path d="M156.845 58.0011C160.055 58.0011 162.656 55.8111 162.656 53.1095C162.656 50.4079 160.055 48.2178 156.845 48.2178C153.636 48.2178 151.034 50.4079 151.034 53.1095C151.034 55.8111 153.636 58.0011 156.845 58.0011Z" fill="#312D2D"/>
<path d="M148.236 44.3526C149.339 43.1733 151.895 41.4263 156.872 41.4263C161.849 41.4263 164.405 43.1515 165.508 44.3526C165.992 44.8767 165.884 45.4881 165.535 45.8594C165.212 46.2088 164.297 46.5145 163.275 46.2306C162.253 45.9467 160.235 45.1169 156.899 45.0951C153.536 45.1169 151.545 45.9467 150.523 46.2306C149.501 46.5145 148.559 46.2088 148.263 45.8594C147.86 45.4663 147.752 44.8767 148.236 44.3526V44.3526Z" fill="#454140"/>
<path d="M109.469 44.3525C110.572 43.1733 113.128 41.4263 118.105 41.4263C123.082 41.4263 125.638 43.1515 126.741 44.3525C127.225 44.8766 127.118 45.4881 126.768 45.8594C126.445 46.2088 125.53 46.5145 124.508 46.2306C123.486 45.9467 121.468 45.1169 118.132 45.095C114.769 45.1169 112.779 45.9467 111.756 46.2306C110.734 46.5145 109.792 46.2088 109.496 45.8594C109.093 45.4663 108.985 44.8766 109.469 44.3525Z" fill="#454140"/>
<path d="M205.36 246.634C205.36 246.634 203.402 251.177 204.549 255.998C205.705 260.818 207.318 265.27 207.318 265.27C207.318 265.27 207.662 274.726 207.318 275.747C206.974 276.768 204.32 278.065 204.32 279.922C204.32 281.779 205.164 284.123 209.432 284.683C213.7 285.243 217.157 284.097 218.583 282.708C220.639 280.699 220.238 279.277 220.238 277.795C220.238 276.313 220.352 267.785 220.811 266.481C221.27 265.184 221.966 264.44 223.236 264.532C224.506 264.624 225.89 266.198 226.005 269.168C226.12 272.132 226.234 277.327 226.12 278.348C226.005 279.369 224.85 282.8 225.776 284.189C226.701 285.579 230.888 286.929 234.115 286.784C238.343 286.599 240.882 284.466 241.112 282.8C241.341 281.134 239.956 277.327 239.956 276.214C239.956 275.102 241.57 267.502 242.029 267.035C242.488 266.574 243.897 266.672 246.985 265.553C249.795 264.532 251.295 263.512 251.295 263.512C251.295 263.512 251.368 270.097 251.254 270.834C251.139 271.578 248.37 273.896 248.829 275.655C249.287 277.413 251.991 278.44 254.399 278.618C258.471 278.928 262.436 276.392 263.468 274.166C264.509 271.941 264.042 269.162 263.812 267.68C263.583 266.198 263.583 261.003 263.812 259.613C264.042 258.224 264.419 257.381 264.566 256.65C264.795 255.445 264.738 254.101 264.738 254.101C264.738 254.101 268.72 254.101 271.079 252.85C273.438 251.599 275.921 249.419 277.018 246.732C278.092 244.105 277.829 243.301 276.904 243.209C275.978 243.117 271.833 247.793 268.31 247.937C262.715 248.168 263.272 243.348 259.004 240.43C254.195 237.138 246.699 236.723 246.699 236.723C246.699 236.723 247.993 232.831 248.009 229.953C248.067 217.389 240.456 213.128 240.456 213.128C240.456 213.128 231.305 207.649 220.926 208.018C210.546 208.387 202.936 215.018 202.936 215.018L197.226 235.274C197.226 235.274 198.667 239.166 200.978 241.998C203.402 244.961 205.36 246.634 205.36 246.634V246.634Z" fill="#FFD2B1"/>
<path d="M198.151 210.527C189.672 210.665 185.191 216.473 185.06 220.029C184.986 222.117 183.962 237.289 194.399 237.599C198.585 237.724 201.698 233.819 203.28 229.393C205.27 223.816 205.18 218.225 205.41 216.737C205.778 214.359 206.393 212.614 206.393 212.614C206.393 212.614 205.36 210.408 198.151 210.527Z" fill="#865B52"/>
<path d="M243.536 208.209C252.761 208.485 255.907 211.771 256.8 213.681C257.783 215.769 258.643 223.216 257.201 228.188C256.03 232.245 254.26 234.306 250.107 234.168C246.305 234.043 244.38 229.637 241.513 223.645C238.744 217.85 236.622 212.66 236.262 211.916C235.803 210.942 234.82 210.527 234.82 210.527C234.82 210.527 236.663 207.998 243.536 208.209V208.209Z" fill="#865B52"/>
<path d="M232.985 223.269C228.43 223.5 226.251 227.569 227.217 231.659C228.258 236.064 231.854 238.152 236.385 237.684C241.341 237.177 242.84 232.633 242.209 229.202C241.628 226.081 239.432 222.94 232.985 223.269V223.269Z" fill="#D27856"/>
<path d="M238.343 230.73C238.343 232.653 237.015 234.26 234.91 234.214C232.051 234.148 231.305 232.113 231.363 230.401C231.428 228.399 232.919 227.451 235.049 227.497C236.95 227.53 238.343 228.807 238.343 230.73Z" fill="#060401"/>
<path d="M214.298 231.79C214.298 233.792 212.971 235.465 210.866 235.412C208.006 235.347 207.261 233.226 207.318 231.441C207.384 229.354 209.162 228.465 210.833 228.564C212.725 228.676 214.298 229.789 214.298 231.79V231.79Z" fill="#060401"/>
<path d="M225.251 242.972C225.251 242.972 230.265 242.557 230.036 239.634C229.806 236.716 226.406 236.525 223.752 236.571C221.098 236.618 217.297 237.73 217.698 240.187C218.099 242.643 222.425 242.966 222.425 242.966C222.425 242.966 222.417 244.783 220.926 244.915C219.312 245.053 217.002 243.058 216.371 242.551C215.74 242.044 214.757 242.228 214.413 242.643C214.069 243.058 214.298 243.986 215.281 244.777C216.264 245.567 218.566 247.556 220.877 247.371C223.187 247.187 223.244 246.212 224.162 246.166C225.087 246.12 225.03 247.233 227.332 247.187C228.954 247.154 232.223 244.862 232.813 244.454C234.14 243.525 234.484 242.597 233.911 241.998C233.337 241.398 231.723 242.274 230.855 242.788C229.986 243.295 228.586 244.493 227.226 244.691C224.965 245.014 225.251 242.972 225.251 242.972V242.972Z" fill="#060401"/>
<path d="M245.724 238.626C245.724 238.626 244.634 240.549 243.725 242.09C242.627 243.947 241.054 245.567 241.054 245.567C241.054 245.567 242.832 255.339 253.408 254.496C257.193 254.193 260.06 251.81 260.331 249.281C260.789 245.014 258.774 243.018 255.645 241.069C250.574 237.921 245.724 238.626 245.724 238.626Z" fill="#D27856"/>
<path d="M238.4 253.91C236.524 255.293 237.532 257.894 240.014 258.178C242.496 258.454 243.831 256.795 243.643 255.537C243.364 253.588 240.538 252.336 238.4 253.91V253.91Z" fill="#D27856"/>
<path d="M213.897 251.342C213.897 251.342 212.242 254.99 215.74 259.56C217.231 261.503 220.549 262.596 222.892 262.524C225.366 262.451 227.602 261.76 229.519 259.837C232.575 256.775 231.707 251.678 231.707 251.678C231.707 251.678 226.865 253.278 222.425 253.16C217.698 253.041 213.897 251.342 213.897 251.342V251.342Z" fill="#D27856"/>
<path d="M207.859 279.263C206.655 278.967 206.171 280.469 206.089 281.423C206.008 282.378 206.016 283.616 207.089 283.926C208.162 284.235 207.949 282.398 208.047 281.792C208.244 280.627 209.129 279.573 207.859 279.263Z" fill="#D27856"/>
<path d="M212.586 279.823C211.865 279.797 211.103 280.383 211.013 282.082C210.939 283.504 211.013 284.677 212.013 284.742C213.356 284.828 212.979 283.445 213.053 282.299C213.086 281.647 214.085 279.882 212.586 279.823V279.823Z" fill="#D27856"/>
<path d="M230.928 281.674C229.773 281.674 229.741 282.727 229.741 283.867C229.741 285.012 229.446 286.428 230.74 286.553C232.313 286.705 232.01 285.006 232.01 284.051C232.002 283.221 232.19 281.674 230.928 281.674V281.674Z" fill="#D27856"/>
<path d="M236.155 281.463C235.229 281.614 235.311 282.635 235.344 283.873C235.385 285.111 235.156 286.422 236.458 286.316C237.572 286.224 237.499 284.769 237.458 283.656C237.425 282.694 237.581 281.219 236.155 281.463V281.463Z" fill="#D27856"/>
<path d="M251.991 273.409C251.196 273.284 250.295 273.824 250.066 275.266C249.877 276.504 249.951 277.591 251.295 277.828C251.983 277.953 252.106 276.53 252.138 275.51C252.179 274.627 252.99 273.567 251.991 273.409Z" fill="#D27856"/>
<path d="M256.333 274.16C255.571 274.061 254.825 274.436 254.629 275.971C254.514 276.866 254.104 278.473 255.489 278.532C256.562 278.572 256.48 277.156 256.579 276.419C256.734 275.253 257.586 274.331 256.333 274.16Z" fill="#D27856"/>
<path d="M10.3113 249.076C10.0511 247.813 9.92092 246.55 10.0511 245.412C10.0511 243.896 10.4414 242.633 11.2222 241.369C12.003 239.979 13.3043 238.842 14.7358 238.211C16.1673 237.452 17.9891 237.2 19.6808 237.452C21.2424 237.579 22.804 238.211 24.1053 239.095C25.2765 239.853 26.3175 240.864 27.2285 242.001C28.6599 243.896 29.701 246.17 30.2215 248.824V249.203C30.4818 250.845 29.4407 252.361 27.749 252.867C27.4887 252.993 27.2285 252.993 26.9682 252.993C25.9271 253.12 25.0162 252.867 24.2354 252.235C23.4546 251.603 22.9341 250.845 22.804 249.835C22.5437 248.066 22.1533 246.55 21.3725 245.412C20.7219 244.275 19.6808 243.391 18.6398 243.138C18.2494 243.012 17.7288 243.012 17.3384 243.138C16.8179 243.264 16.4275 243.644 16.1673 244.023C15.7769 244.528 15.5166 245.033 15.5166 245.791C15.3865 246.55 15.3865 247.308 15.5166 248.066C15.7769 249.582 16.2974 251.351 17.2083 253.12C17.5987 253.878 18.1192 254.762 18.6398 255.647C19.1603 256.531 19.8109 257.289 20.3315 257.921C21.7629 259.563 23.0642 260.827 24.4957 261.838C26.1874 262.975 27.8791 263.733 29.5708 263.985C31.2626 264.238 33.2145 264.238 35.1665 263.606C36.7281 263.227 37.639 263.733 37.8993 264.491C38.1595 265.123 37.7691 266.133 36.2076 266.639H36.0774C33.7351 267.397 31.2626 267.65 29.0503 267.27C26.8381 267.018 24.4957 266.007 22.2834 264.744C20.4616 263.606 18.9 262.09 17.2083 260.321C16.5576 259.563 15.907 258.805 15.3865 258.173L15.1262 257.794C14.3454 256.91 13.6947 256.026 13.1742 255.141C11.6126 253.12 10.7017 251.098 10.3113 249.076M68.0899 274.093C70.4323 276.999 80.7127 274.093 82.4044 270.808C89.1712 257.415 82.4044 251.603 82.4044 251.603L68.0899 253.499C68.0899 253.625 65.227 270.556 68.0899 274.093Z" fill="#3E4347"/>
<path d="M48.7002 274.093C46.3579 276.999 36.0774 274.093 34.3857 270.808C27.6189 257.415 34.3857 251.603 34.3857 251.603L48.7002 253.499C48.7002 253.625 51.6933 270.556 48.7002 274.093" fill="#3E4347"/>
<path d="M52.2138 273.209C52.0837 274.598 48.8304 275.357 44.9264 274.978C41.0225 274.598 38.0294 273.335 38.0294 271.945C38.1596 270.555 41.1526 272.324 45.0566 272.577C49.0907 273.082 52.344 271.945 52.2138 273.209ZM64.5764 273.209C64.7065 274.598 67.9598 275.357 71.8637 274.978C75.7677 274.598 78.7607 273.335 78.7607 271.945C78.6306 270.555 75.6376 272.324 71.7336 272.577C67.6995 273.082 64.4462 271.945 64.5764 273.209Z" fill="white"/>
<path d="M58.33 279.779C60.9326 282.558 69.9117 282.432 72.7746 279.779C76.6786 275.988 76.5484 258.679 76.6786 250.34L59.7614 248.95C59.8915 248.95 55.0767 276.115 58.33 279.779" fill="#4C5359"/>
<path d="M58.4601 279.779C55.8574 282.558 46.8783 282.432 44.0154 279.779C40.1115 275.988 40.2416 258.679 40.1115 250.34L57.0286 248.95C57.0286 248.95 61.7134 276.115 58.4601 279.779" fill="#4C5359"/>
<path d="M51.5631 258.679L58.4601 272.83L65.3571 258.679H51.5631Z" fill="white"/>
<path d="M85.2673 206.245C82.1441 204.476 66.0078 212.688 62.7545 218.248L86.0481 231.641C89.1713 226.208 88.2603 207.887 85.2673 206.245" fill="#4C5359"/>
<path d="M80.4524 214.584C79.2812 213.952 69.7816 218.121 67.9597 221.154L80.9729 228.608C82.6647 225.702 81.4935 215.215 80.4524 214.584" fill="#F7A4A4"/>
<path d="M31.653 206.245C28.5299 208.014 27.619 226.081 30.8723 231.641L54.1659 218.248C51.0427 212.815 34.6461 204.476 31.653 206.245V206.245Z" fill="#4C5359"/>
<path d="M36.5979 214.584C35.4267 215.215 34.2555 225.576 36.0774 228.608L48.9604 221.154C47.2687 218.248 37.639 213.952 36.5979 214.584" fill="#F7A4A4"/>
<path d="M58.4601 215.342C31.3926 215.342 28.79 233.788 28.79 244.023C28.79 248.318 42.0634 261.585 58.3299 261.585C74.7265 261.585 88 248.318 88 244.023C88 233.788 85.3974 215.342 58.4601 215.342" fill="#4C5359"/>
<path d="M50.9125 239.474C50.9125 239.474 47.7894 244.022 42.0636 242.633C36.3377 241.243 36.0775 235.81 36.0775 235.81C36.0775 235.81 39.2006 231.261 44.9265 232.651C50.6523 234.167 50.9125 239.474 50.9125 239.474Z" fill="#BFFFAB"/>
<path d="M50.2618 237.2C50.2618 237.2 47.529 240.106 43.7552 240.106C39.7211 240.106 37.2486 234.547 37.2486 234.547C37.2486 234.547 39.9813 231.514 44.7962 232.778C49.3508 233.789 50.2618 237.2 50.2618 237.2" fill="#93E67F"/>
<path d="M46.0976 237.073C46.0976 243.264 42.9744 243.264 42.9744 237.073C42.9744 230.882 46.0976 230.882 46.0976 237.073Z" fill="#4C5359"/>
<path d="M66.0078 239.474C66.0078 239.474 69.131 244.022 74.8568 242.633C80.5826 241.243 80.8429 235.81 80.8429 235.81C80.8429 235.81 77.7197 231.261 71.9939 232.651C66.2681 234.167 66.0078 239.474 66.0078 239.474Z" fill="#BFFFAB"/>
<path d="M66.5283 237.2C66.5283 237.2 69.2611 240.106 73.0349 240.106C77.069 240.106 79.5415 234.547 79.5415 234.547C79.5415 234.547 76.8087 231.514 71.9938 232.778C67.4392 233.789 66.5283 237.2 66.5283 237.2" fill="#93E67F"/>
<path d="M70.6925 237.073C70.6925 243.264 73.8157 243.264 73.8157 237.073C73.9458 230.882 70.6925 230.882 70.6925 237.073Z" fill="#4C5359"/>
<path d="M67.0488 244.528C64.4461 242.633 61.5832 236.315 58.4601 236.315C55.3369 236.315 52.3439 242.633 49.8714 244.528C45.8373 247.56 34.9062 250.972 34.9062 250.972C34.9062 250.972 46.4879 260.574 58.4601 260.574C70.4322 260.574 82.0139 250.972 82.0139 250.972C82.0139 250.972 71.0829 247.56 67.0488 244.528Z" fill="white"/>
<path d="M66.7886 253.119C65.8776 253.625 64.7064 253.878 63.6654 253.878C62.6243 253.751 61.5833 253.499 60.8025 252.867C60.0217 252.235 59.371 251.351 59.2409 250.466L58.4601 246.297L57.6793 250.466C57.5492 251.477 56.8985 252.235 56.1177 252.867C55.337 253.499 54.2959 253.878 53.2548 253.878C52.0837 253.878 51.0426 253.751 50.1317 253.119C49.2208 252.614 48.3098 251.73 47.9194 250.593C47.9194 251.856 48.7002 252.993 49.6111 253.751C50.5221 254.509 51.9535 255.015 53.1247 255.141C54.426 255.267 55.7273 254.888 56.8985 254.13C57.5492 253.751 57.9396 253.246 58.4601 252.614C58.8505 253.246 59.371 253.751 60.0217 254.13C61.1929 254.888 62.4942 255.267 63.7955 255.141C65.0968 255.141 66.3982 254.636 67.3091 253.751C68.3501 252.993 69.0008 251.73 69.0008 250.593C68.6104 251.73 67.8296 252.614 66.7886 253.119" fill="#4C5359"/>
<path d="M62.4942 245.286C61.7134 244.402 59.2409 244.275 58.4601 244.275C57.6793 244.275 55.2068 244.402 54.426 245.286C53.9054 245.918 54.2958 247.56 55.8574 249.076C56.7683 249.961 57.6793 250.214 58.4601 250.214C59.2409 250.214 60.1518 249.961 61.0627 249.076C62.6243 247.56 63.0147 245.918 62.4942 245.286Z" fill="#4C5359"/>
<path d="M58.0697 278.768C58.0697 280.158 55.0767 281.169 51.3029 281.169C47.529 281.169 44.536 280.032 44.536 278.768C44.536 277.378 47.529 278.894 51.3029 278.894C54.9466 278.894 58.0697 277.505 58.0697 278.768ZM72.2541 278.768C72.2541 280.158 69.2611 281.169 65.4872 281.169C61.7134 281.169 58.7204 280.032 58.7204 278.768C58.7204 277.378 61.7134 278.894 65.4872 278.894C69.2611 278.894 72.2541 277.505 72.2541 278.768Z" fill="white"/>
<path d="M45.8373 280.79L47.6592 277.757L47.1387 281.295L45.8373 280.79ZM50.392 281.801L51.0426 277.631L51.6933 281.801H50.392ZM55.4671 281.295L54.9466 278.01L56.7684 280.916L55.4671 281.295ZM69.7816 281.295L69.2611 277.757L71.0829 280.79L69.7816 281.295ZM65.0969 281.801L65.7475 277.631L66.3982 281.801H65.0969ZM60.0217 280.916L61.8436 278.01L61.323 281.295L60.0217 280.916Z" fill="#3E4347"/>
<path d="M75.6797 356.698C75.6797 356.063 75.582 355.494 75.3867 354.989C75.2077 354.468 74.8659 353.996 74.3613 353.573C73.8568 353.134 73.1488 352.702 72.2373 352.279C71.3258 351.856 70.1458 351.417 68.6973 350.961C67.0859 350.44 65.556 349.854 64.1074 349.203C62.6751 348.552 61.4056 347.795 60.2988 346.933C59.2083 346.054 58.3457 345.036 57.7109 343.881C57.0924 342.725 56.7832 341.382 56.7832 339.853C56.7832 338.371 57.1087 337.029 57.7598 335.824C58.4108 334.604 59.3223 333.562 60.4941 332.699C61.666 331.82 63.0495 331.145 64.6445 330.673C66.2559 330.201 68.0218 329.965 69.9424 329.965C72.5628 329.965 74.8496 330.437 76.8027 331.381C78.7559 332.325 80.2695 333.619 81.3438 335.263C82.4342 336.907 82.9795 338.786 82.9795 340.902H75.7041C75.7041 339.861 75.4844 338.949 75.0449 338.168C74.6217 337.37 73.9707 336.744 73.0918 336.288C72.2292 335.832 71.1387 335.604 69.8203 335.604C68.5508 335.604 67.4928 335.8 66.6465 336.19C65.8001 336.565 65.1654 337.077 64.7422 337.729C64.319 338.363 64.1074 339.079 64.1074 339.877C64.1074 340.479 64.2539 341.024 64.5469 341.513C64.8561 342.001 65.3118 342.457 65.9141 342.88C66.5163 343.303 67.2568 343.702 68.1357 344.076C69.0146 344.451 70.0319 344.817 71.1875 345.175C73.1243 345.761 74.8252 346.42 76.29 347.152C77.7712 347.885 79.0081 348.707 80.001 349.618C80.9938 350.53 81.7425 351.563 82.2471 352.719C82.7516 353.874 83.0039 355.185 83.0039 356.649C83.0039 358.196 82.7028 359.579 82.1006 360.8C81.4984 362.021 80.6276 363.054 79.4883 363.9C78.349 364.747 76.9899 365.39 75.4111 365.829C73.8324 366.269 72.0664 366.488 70.1133 366.488C68.3555 366.488 66.6221 366.26 64.9131 365.805C63.2041 365.333 61.6497 364.625 60.25 363.681C58.8665 362.737 57.7598 361.532 56.9297 360.067C56.0996 358.603 55.6846 356.869 55.6846 354.867H63.0332C63.0332 355.974 63.2041 356.91 63.5459 357.675C63.8877 358.44 64.3678 359.058 64.9863 359.53C65.6211 360.002 66.3698 360.344 67.2324 360.556C68.1113 360.767 69.0716 360.873 70.1133 360.873C71.3828 360.873 72.4245 360.694 73.2383 360.336C74.0684 359.978 74.6787 359.481 75.0693 358.847C75.4762 358.212 75.6797 357.496 75.6797 356.698ZM99.7031 366.488C97.6523 366.488 95.8132 366.163 94.1855 365.512C92.5579 364.844 91.1745 363.925 90.0352 362.753C88.9121 361.581 88.0495 360.222 87.4473 358.676C86.8451 357.113 86.5439 355.453 86.5439 353.695V352.719C86.5439 350.717 86.8288 348.886 87.3984 347.226C87.9681 345.565 88.7819 344.125 89.8398 342.904C90.9141 341.684 92.2161 340.748 93.7461 340.097C95.276 339.429 97.0013 339.096 98.9219 339.096C100.794 339.096 102.454 339.405 103.902 340.023C105.351 340.642 106.563 341.521 107.54 342.66C108.533 343.799 109.282 345.167 109.786 346.762C110.291 348.34 110.543 350.098 110.543 352.035V354.965H89.5469V350.277H103.634V349.74C103.634 348.764 103.455 347.893 103.097 347.128C102.755 346.347 102.234 345.728 101.534 345.272C100.834 344.817 99.9391 344.589 98.8486 344.589C97.9209 344.589 97.1234 344.792 96.4561 345.199C95.7887 345.606 95.2435 346.176 94.8203 346.908C94.4134 347.641 94.1042 348.503 93.8926 349.496C93.6973 350.473 93.5996 351.547 93.5996 352.719V353.695C93.5996 354.753 93.7461 355.73 94.0391 356.625C94.3483 357.52 94.7796 358.293 95.333 358.944C95.9027 359.595 96.5863 360.1 97.3838 360.458C98.1976 360.816 99.1172 360.995 100.143 360.995C101.412 360.995 102.592 360.751 103.683 360.263C104.789 359.758 105.742 359.001 106.539 357.992L109.957 361.703C109.404 362.501 108.647 363.266 107.687 363.998C106.743 364.73 105.603 365.333 104.269 365.805C102.934 366.26 101.412 366.488 99.7031 366.488ZM122.091 359.164L127.584 339.584H132.052L130.611 347.274L125.118 366H121.383L122.091 359.164ZM119.308 339.584L123.238 359.14L123.604 366H119.21L112.521 339.584H119.308ZM137.081 358.822L140.914 339.584H147.726L141.036 366H136.666L137.081 358.822ZM132.662 339.584L138.131 359.018L138.888 366H135.128L129.635 347.299L128.243 339.584H132.662ZM165.523 360.043V348.275C165.523 347.429 165.385 346.705 165.108 346.103C164.832 345.484 164.4 345.004 163.814 344.662C163.245 344.32 162.504 344.149 161.593 344.149C160.812 344.149 160.136 344.288 159.566 344.564C158.997 344.825 158.557 345.207 158.248 345.712C157.939 346.2 157.784 346.778 157.784 347.445H150.753C150.753 346.322 151.013 345.256 151.534 344.247C152.055 343.238 152.812 342.351 153.805 341.586C154.798 340.805 155.978 340.194 157.345 339.755C158.728 339.315 160.274 339.096 161.983 339.096C164.034 339.096 165.857 339.438 167.452 340.121C169.047 340.805 170.3 341.83 171.212 343.197C172.14 344.564 172.604 346.273 172.604 348.324V359.628C172.604 361.076 172.693 362.265 172.872 363.192C173.051 364.104 173.312 364.901 173.653 365.585V366H166.549C166.207 365.284 165.947 364.389 165.768 363.314C165.605 362.224 165.523 361.133 165.523 360.043ZM166.451 349.911L166.5 353.891H162.569C161.642 353.891 160.836 353.996 160.152 354.208C159.469 354.42 158.907 354.721 158.468 355.111C158.028 355.486 157.703 355.925 157.491 356.43C157.296 356.934 157.198 357.488 157.198 358.09C157.198 358.692 157.337 359.237 157.613 359.726C157.89 360.198 158.289 360.572 158.81 360.849C159.33 361.109 159.941 361.239 160.641 361.239C161.699 361.239 162.618 361.028 163.399 360.604C164.181 360.181 164.783 359.66 165.206 359.042C165.646 358.424 165.873 357.838 165.89 357.284L167.745 360.263C167.485 360.93 167.127 361.622 166.671 362.338C166.231 363.054 165.67 363.729 164.986 364.364C164.303 364.983 163.481 365.495 162.521 365.902C161.56 366.293 160.421 366.488 159.103 366.488C157.426 366.488 155.904 366.155 154.537 365.487C153.186 364.804 152.112 363.868 151.314 362.68C150.533 361.475 150.143 360.108 150.143 358.578C150.143 357.195 150.403 355.966 150.924 354.892C151.445 353.817 152.21 352.914 153.219 352.182C154.244 351.433 155.522 350.871 157.052 350.497C158.582 350.106 160.356 349.911 162.374 349.911H166.451ZM184.908 345.224V366H177.877V339.584H184.469L184.908 345.224ZM183.883 351.864H181.979C181.979 349.911 182.231 348.153 182.735 346.591C183.24 345.012 183.948 343.669 184.859 342.562C185.771 341.439 186.853 340.585 188.106 339.999C189.376 339.397 190.792 339.096 192.354 339.096C193.591 339.096 194.723 339.275 195.748 339.633C196.773 339.991 197.652 340.561 198.385 341.342C199.133 342.123 199.703 343.157 200.094 344.442C200.501 345.728 200.704 347.299 200.704 349.154V366H193.624V349.13C193.624 347.958 193.461 347.047 193.136 346.396C192.81 345.744 192.33 345.289 191.695 345.028C191.077 344.752 190.312 344.613 189.4 344.613C188.456 344.613 187.634 344.8 186.935 345.175C186.251 345.549 185.681 346.07 185.226 346.737C184.786 347.388 184.452 348.153 184.225 349.032C183.997 349.911 183.883 350.855 183.883 351.864ZM220.309 360.043V348.275C220.309 347.429 220.17 346.705 219.894 346.103C219.617 345.484 219.186 345.004 218.6 344.662C218.03 344.32 217.289 344.149 216.378 344.149C215.597 344.149 214.921 344.288 214.352 344.564C213.782 344.825 213.342 345.207 213.033 345.712C212.724 346.2 212.569 346.778 212.569 347.445H205.538C205.538 346.322 205.799 345.256 206.319 344.247C206.84 343.238 207.597 342.351 208.59 341.586C209.583 340.805 210.763 340.194 212.13 339.755C213.513 339.315 215.06 339.096 216.769 339.096C218.819 339.096 220.642 339.438 222.237 340.121C223.832 340.805 225.086 341.83 225.997 343.197C226.925 344.564 227.389 346.273 227.389 348.324V359.628C227.389 361.076 227.478 362.265 227.657 363.192C227.836 364.104 228.097 364.901 228.438 365.585V366H221.334C220.992 365.284 220.732 364.389 220.553 363.314C220.39 362.224 220.309 361.133 220.309 360.043ZM221.236 349.911L221.285 353.891H217.354C216.427 353.891 215.621 353.996 214.938 354.208C214.254 354.42 213.692 354.721 213.253 355.111C212.813 355.486 212.488 355.925 212.276 356.43C212.081 356.934 211.983 357.488 211.983 358.09C211.983 358.692 212.122 359.237 212.398 359.726C212.675 360.198 213.074 360.572 213.595 360.849C214.116 361.109 214.726 361.239 215.426 361.239C216.484 361.239 217.403 361.028 218.185 360.604C218.966 360.181 219.568 359.66 219.991 359.042C220.431 358.424 220.659 357.838 220.675 357.284L222.53 360.263C222.27 360.93 221.912 361.622 221.456 362.338C221.017 363.054 220.455 363.729 219.771 364.364C219.088 364.983 218.266 365.495 217.306 365.902C216.345 366.293 215.206 366.488 213.888 366.488C212.211 366.488 210.689 366.155 209.322 365.487C207.971 364.804 206.897 363.868 206.1 362.68C205.318 361.475 204.928 360.108 204.928 358.578C204.928 357.195 205.188 355.966 205.709 354.892C206.23 353.817 206.995 352.914 208.004 352.182C209.029 351.433 210.307 350.871 211.837 350.497C213.367 350.106 215.141 349.911 217.159 349.911H221.236Z" fill="#4C5359"/>
<path d="M62.7443 372.182C62.6676 371.534 62.3565 371.031 61.8111 370.673C61.2656 370.315 60.5966 370.136 59.804 370.136C59.2244 370.136 58.7173 370.23 58.2827 370.418C57.8523 370.605 57.5156 370.863 57.2727 371.191C57.0341 371.519 56.9148 371.892 56.9148 372.31C56.9148 372.659 56.9979 372.96 57.1641 373.211C57.3345 373.458 57.5518 373.665 57.8161 373.831C58.0803 373.993 58.3572 374.127 58.647 374.234C58.9368 374.336 59.2031 374.419 59.446 374.483L60.7756 374.841C61.1165 374.93 61.4957 375.054 61.9134 375.212C62.3352 375.369 62.7379 375.585 63.1214 375.857C63.5092 376.126 63.8288 376.471 64.0803 376.893C64.3317 377.315 64.4574 377.832 64.4574 378.446C64.4574 379.153 64.272 379.793 63.9013 380.364C63.5348 380.935 62.9979 381.388 62.2905 381.725C61.5874 382.062 60.733 382.23 59.7273 382.23C58.7898 382.23 57.978 382.079 57.2919 381.776C56.6101 381.474 56.0732 381.052 55.6811 380.511C55.2933 379.969 55.0739 379.341 55.0227 378.625H56.6591C56.7017 379.119 56.8679 379.528 57.1577 379.852C57.4517 380.172 57.8224 380.411 58.2699 380.568C58.7216 380.722 59.2074 380.798 59.7273 380.798C60.3324 380.798 60.8757 380.7 61.3572 380.504C61.8388 380.304 62.2202 380.027 62.5014 379.673C62.7827 379.315 62.9233 378.898 62.9233 378.42C62.9233 377.986 62.8018 377.632 62.5589 377.359C62.3161 377.087 61.9964 376.865 61.6001 376.695C61.2038 376.524 60.7756 376.375 60.3153 376.247L58.7045 375.787C57.6818 375.493 56.8722 375.073 56.2756 374.528C55.679 373.982 55.3807 373.268 55.3807 372.386C55.3807 371.653 55.5788 371.014 55.9751 370.469C56.3757 369.919 56.9126 369.493 57.5859 369.19C58.2635 368.884 59.0199 368.73 59.8551 368.73C60.6989 368.73 61.4489 368.881 62.1051 369.184C62.7614 369.482 63.2813 369.891 63.6648 370.411C64.0526 370.931 64.2571 371.521 64.2784 372.182H62.7443ZM69.7484 382.23C69.1262 382.23 68.5616 382.113 68.0545 381.879C67.5474 381.64 67.1447 381.297 66.8464 380.849C66.5481 380.398 66.399 379.852 66.399 379.213C66.399 378.651 66.5098 378.195 66.7314 377.845C66.9529 377.491 67.2491 377.214 67.6199 377.014C67.9906 376.814 68.3997 376.665 68.8471 376.567C69.2988 376.464 69.7527 376.384 70.2086 376.324C70.8052 376.247 71.2889 376.19 71.6596 376.151C72.0346 376.109 72.3074 376.038 72.4778 375.94C72.6525 375.842 72.7399 375.672 72.7399 375.429V375.378C72.7399 374.747 72.5673 374.257 72.2221 373.908C71.8812 373.558 71.3635 373.384 70.6689 373.384C69.9487 373.384 69.3841 373.541 68.975 373.857C68.5659 374.172 68.2782 374.509 68.112 374.866L66.6802 374.355C66.9359 373.759 67.2768 373.294 67.7029 372.962C68.1333 372.625 68.6021 372.391 69.1092 372.259C69.6206 372.122 70.1234 372.054 70.6177 372.054C70.9331 372.054 71.2953 372.092 71.7044 372.169C72.1177 372.241 72.5162 372.393 72.8997 372.623C73.2875 372.853 73.6092 373.2 73.8649 373.665C74.1206 374.129 74.2484 374.751 74.2484 375.531V382H72.7399V380.67H72.6632C72.5609 380.884 72.3904 381.112 72.1518 381.354C71.9132 381.597 71.5957 381.804 71.1994 381.974C70.8031 382.145 70.3194 382.23 69.7484 382.23ZM69.9785 380.875C70.5751 380.875 71.0779 380.758 71.487 380.523C71.9004 380.289 72.2115 379.987 72.4203 379.616C72.6333 379.245 72.7399 378.855 72.7399 378.446V377.065C72.676 377.142 72.5353 377.212 72.318 377.276C72.1049 377.336 71.8578 377.389 71.5765 377.436C71.2995 377.479 71.0289 377.517 70.7647 377.551C70.5048 377.581 70.2939 377.607 70.1319 377.628C69.7399 377.679 69.3734 377.762 69.0325 377.877C68.6958 377.988 68.4231 378.156 68.2143 378.382C68.0098 378.604 67.9075 378.906 67.9075 379.29C67.9075 379.814 68.1014 380.21 68.4892 380.479C68.8812 380.743 69.3777 380.875 69.9785 380.875ZM84.6786 372.182L81.0479 382H79.5138L75.8832 372.182H77.5195L80.2298 380.006H80.332L83.0423 372.182H84.6786ZM90.4347 382.205C89.4886 382.205 88.6726 381.996 87.9865 381.578C87.3047 381.156 86.7784 380.568 86.4077 379.814C86.0412 379.055 85.858 378.173 85.858 377.168C85.858 376.162 86.0412 375.276 86.4077 374.509C86.7784 373.737 87.294 373.136 87.9545 372.706C88.6193 372.271 89.3949 372.054 90.2812 372.054C90.7926 372.054 91.2976 372.139 91.7962 372.31C92.2947 372.48 92.7486 372.757 93.1577 373.141C93.5668 373.52 93.8928 374.023 94.1357 374.649C94.3786 375.276 94.5 376.047 94.5 376.963V377.602H86.9318V376.298H92.9659C92.9659 375.744 92.8551 375.25 92.6335 374.815C92.4162 374.381 92.1051 374.038 91.7003 373.786C91.2997 373.535 90.8267 373.409 90.2812 373.409C89.6804 373.409 89.1605 373.558 88.7216 373.857C88.2869 374.151 87.9524 374.534 87.718 375.007C87.4837 375.48 87.3665 375.987 87.3665 376.528V377.398C87.3665 378.139 87.4943 378.768 87.75 379.283C88.0099 379.795 88.37 380.185 88.8303 380.453C89.2905 380.717 89.8253 380.849 90.4347 380.849C90.831 380.849 91.1889 380.794 91.5085 380.683C91.8324 380.568 92.1115 380.398 92.3459 380.172C92.5803 379.942 92.7614 379.656 92.8892 379.315L94.3466 379.724C94.1932 380.219 93.9354 380.653 93.5732 381.028C93.2109 381.399 92.7635 381.689 92.2308 381.898C91.6982 382.102 91.0994 382.205 90.4347 382.205ZM104.746 382.23C104.124 382.23 103.56 382.113 103.053 381.879C102.545 381.64 102.143 381.297 101.844 380.849C101.546 380.398 101.397 379.852 101.397 379.213C101.397 378.651 101.508 378.195 101.729 377.845C101.951 377.491 102.247 377.214 102.618 377.014C102.989 376.814 103.398 376.665 103.845 376.567C104.297 376.464 104.751 376.384 105.207 376.324C105.803 376.247 106.287 376.19 106.658 376.151C107.033 376.109 107.305 376.038 107.476 375.94C107.651 375.842 107.738 375.672 107.738 375.429V375.378C107.738 374.747 107.565 374.257 107.22 373.908C106.879 373.558 106.362 373.384 105.667 373.384C104.947 373.384 104.382 373.541 103.973 373.857C103.564 374.172 103.276 374.509 103.11 374.866L101.678 374.355C101.934 373.759 102.275 373.294 102.701 372.962C103.131 372.625 103.6 372.391 104.107 372.259C104.619 372.122 105.121 372.054 105.616 372.054C105.931 372.054 106.293 372.092 106.702 372.169C107.116 372.241 107.514 372.393 107.898 372.623C108.286 372.853 108.607 373.2 108.863 373.665C109.119 374.129 109.246 374.751 109.246 375.531V382H107.738V380.67H107.661C107.559 380.884 107.388 381.112 107.15 381.354C106.911 381.597 106.594 381.804 106.197 381.974C105.801 382.145 105.317 382.23 104.746 382.23ZM104.977 380.875C105.573 380.875 106.076 380.758 106.485 380.523C106.898 380.289 107.21 379.987 107.418 379.616C107.631 379.245 107.738 378.855 107.738 378.446V377.065C107.674 377.142 107.533 377.212 107.316 377.276C107.103 377.336 106.856 377.389 106.575 377.436C106.298 377.479 106.027 377.517 105.763 377.551C105.503 377.581 105.292 377.607 105.13 377.628C104.738 377.679 104.371 377.762 104.031 377.877C103.694 377.988 103.421 378.156 103.212 378.382C103.008 378.604 102.906 378.906 102.906 379.29C102.906 379.814 103.099 380.21 103.487 380.479C103.879 380.743 104.376 380.875 104.977 380.875ZM113.508 376.094V382H112V372.182H113.457V373.716H113.585C113.815 373.217 114.165 372.817 114.633 372.514C115.102 372.207 115.707 372.054 116.449 372.054C117.113 372.054 117.695 372.19 118.194 372.463C118.692 372.732 119.08 373.141 119.357 373.69C119.634 374.236 119.773 374.926 119.773 375.761V382H118.264V375.864C118.264 375.092 118.064 374.491 117.663 374.061C117.263 373.626 116.713 373.409 116.014 373.409C115.532 373.409 115.102 373.513 114.723 373.722C114.348 373.931 114.052 374.236 113.834 374.636C113.617 375.037 113.508 375.523 113.508 376.094ZM127.592 382V372.182H129.1V382H127.592ZM128.359 370.545C128.065 370.545 127.811 370.445 127.598 370.245C127.389 370.045 127.285 369.804 127.285 369.523C127.285 369.241 127.389 369.001 127.598 368.8C127.811 368.6 128.065 368.5 128.359 368.5C128.653 368.5 128.904 368.6 129.113 368.8C129.326 369.001 129.433 369.241 129.433 369.523C129.433 369.804 129.326 370.045 129.113 370.245C128.904 370.445 128.653 370.545 128.359 370.545ZM133.372 376.094V382H131.863V372.182H133.32V373.716H133.448C133.678 373.217 134.028 372.817 134.497 372.514C134.965 372.207 135.57 372.054 136.312 372.054C136.977 372.054 137.558 372.19 138.057 372.463C138.556 372.732 138.943 373.141 139.22 373.69C139.497 374.236 139.636 374.926 139.636 375.761V382H138.127V375.864C138.127 375.092 137.927 374.491 137.526 374.061C137.126 373.626 136.576 373.409 135.877 373.409C135.396 373.409 134.965 373.513 134.586 373.722C134.211 373.931 133.915 374.236 133.698 374.636C133.48 375.037 133.372 375.523 133.372 376.094ZM143.901 376.094V382H142.392V372.182H143.85V373.716H143.978C144.208 373.217 144.557 372.817 145.026 372.514C145.495 372.207 146.1 372.054 146.841 372.054C147.506 372.054 148.088 372.19 148.586 372.463C149.085 372.732 149.473 373.141 149.75 373.69C150.027 374.236 150.165 374.926 150.165 375.761V382H148.657V375.864C148.657 375.092 148.456 374.491 148.056 374.061C147.655 373.626 147.105 373.409 146.407 373.409C145.925 373.409 145.495 373.513 145.115 373.722C144.74 373.931 144.444 374.236 144.227 374.636C144.01 375.037 143.901 375.523 143.901 376.094ZM156.91 382.205C156.024 382.205 155.246 381.994 154.577 381.572C153.912 381.15 153.393 380.56 153.018 379.801C152.647 379.043 152.461 378.156 152.461 377.142C152.461 376.119 152.647 375.227 153.018 374.464C153.393 373.701 153.912 373.109 154.577 372.687C155.246 372.265 156.024 372.054 156.91 372.054C157.797 372.054 158.572 372.265 159.237 372.687C159.906 373.109 160.426 373.701 160.797 374.464C161.172 375.227 161.359 376.119 161.359 377.142C161.359 378.156 161.172 379.043 160.797 379.801C160.426 380.56 159.906 381.15 159.237 381.572C158.572 381.994 157.797 382.205 156.91 382.205ZM156.91 380.849C157.584 380.849 158.138 380.677 158.572 380.332C159.007 379.987 159.329 379.533 159.537 378.97C159.746 378.408 159.851 377.798 159.851 377.142C159.851 376.486 159.746 375.874 159.537 375.308C159.329 374.741 159.007 374.283 158.572 373.933C158.138 373.584 157.584 373.409 156.91 373.409C156.237 373.409 155.683 373.584 155.248 373.933C154.814 374.283 154.492 374.741 154.283 375.308C154.074 375.874 153.97 376.486 153.97 377.142C153.97 377.798 154.074 378.408 154.283 378.97C154.492 379.533 154.814 379.987 155.248 380.332C155.683 380.677 156.237 380.849 156.91 380.849ZM167.651 382.205C166.73 382.205 165.938 381.987 165.273 381.553C164.608 381.118 164.097 380.519 163.739 379.756C163.381 378.994 163.202 378.122 163.202 377.142C163.202 376.145 163.385 375.265 163.751 374.502C164.122 373.735 164.638 373.136 165.298 372.706C165.963 372.271 166.739 372.054 167.625 372.054C168.315 372.054 168.938 372.182 169.491 372.438C170.045 372.693 170.499 373.051 170.853 373.511C171.207 373.972 171.426 374.509 171.511 375.122H170.003C169.888 374.675 169.632 374.278 169.236 373.933C168.844 373.584 168.315 373.409 167.651 373.409C167.063 373.409 166.547 373.562 166.104 373.869C165.665 374.172 165.322 374.6 165.075 375.154C164.832 375.704 164.71 376.349 164.71 377.091C164.71 377.849 164.83 378.51 165.068 379.072C165.311 379.635 165.652 380.072 166.091 380.383C166.534 380.694 167.054 380.849 167.651 380.849C168.043 380.849 168.398 380.781 168.718 380.645C169.038 380.509 169.308 380.312 169.53 380.057C169.751 379.801 169.909 379.494 170.003 379.136H171.511C171.426 379.716 171.215 380.238 170.879 380.702C170.546 381.163 170.105 381.529 169.555 381.802C169.01 382.07 168.375 382.205 167.651 382.205ZM177.833 382.205C176.887 382.205 176.071 381.996 175.385 381.578C174.703 381.156 174.177 380.568 173.806 379.814C173.44 379.055 173.256 378.173 173.256 377.168C173.256 376.162 173.44 375.276 173.806 374.509C174.177 373.737 174.692 373.136 175.353 372.706C176.018 372.271 176.793 372.054 177.68 372.054C178.191 372.054 178.696 372.139 179.195 372.31C179.693 372.48 180.147 372.757 180.556 373.141C180.965 373.52 181.291 374.023 181.534 374.649C181.777 375.276 181.898 376.047 181.898 376.963V377.602H174.33V376.298H180.364C180.364 375.744 180.254 375.25 180.032 374.815C179.815 374.381 179.504 374.038 179.099 373.786C178.698 373.535 178.225 373.409 177.68 373.409C177.079 373.409 176.559 373.558 176.12 373.857C175.685 374.151 175.351 374.534 175.116 375.007C174.882 375.48 174.765 375.987 174.765 376.528V377.398C174.765 378.139 174.893 378.768 175.148 379.283C175.408 379.795 175.768 380.185 176.229 380.453C176.689 380.717 177.224 380.849 177.833 380.849C178.229 380.849 178.587 380.794 178.907 380.683C179.231 380.568 179.51 380.398 179.744 380.172C179.979 379.942 180.16 379.656 180.288 379.315L181.745 379.724C181.592 380.219 181.334 380.653 180.972 381.028C180.609 381.399 180.162 381.689 179.629 381.898C179.097 382.102 178.498 382.205 177.833 382.205ZM185.702 376.094V382H184.193V372.182H185.651V373.716H185.778C186.009 373.217 186.358 372.817 186.827 372.514C187.295 372.207 187.901 372.054 188.642 372.054C189.307 372.054 189.888 372.19 190.387 372.463C190.886 372.732 191.273 373.141 191.55 373.69C191.827 374.236 191.966 374.926 191.966 375.761V382H190.457V375.864C190.457 375.092 190.257 374.491 189.857 374.061C189.456 373.626 188.906 373.409 188.207 373.409C187.726 373.409 187.295 373.513 186.916 373.722C186.541 373.931 186.245 374.236 186.028 374.636C185.81 375.037 185.702 375.523 185.702 376.094ZM198.992 372.182V373.46H193.904V372.182H198.992ZM195.387 369.83H196.896V379.188C196.896 379.614 196.958 379.933 197.081 380.146C197.209 380.355 197.371 380.496 197.567 380.568C197.767 380.636 197.978 380.67 198.2 380.67C198.366 380.67 198.502 380.662 198.609 380.645C198.715 380.624 198.801 380.607 198.865 380.594L199.171 381.949C199.069 381.987 198.926 382.026 198.743 382.064C198.56 382.107 198.328 382.128 198.046 382.128C197.62 382.128 197.203 382.036 196.794 381.853C196.389 381.67 196.052 381.391 195.784 381.016C195.519 380.641 195.387 380.168 195.387 379.597V369.83ZM206.529 382V368.909H208.114V380.594H214.199V382H206.529ZM216.449 382V372.182H217.958V382H216.449ZM217.216 370.545C216.922 370.545 216.669 370.445 216.455 370.245C216.247 370.045 216.142 369.804 216.142 369.523C216.142 369.241 216.247 369.001 216.455 368.8C216.669 368.6 216.922 368.5 217.216 368.5C217.51 368.5 217.762 368.6 217.97 368.8C218.183 369.001 218.29 369.241 218.29 369.523C218.29 369.804 218.183 370.045 217.97 370.245C217.762 370.445 217.51 370.545 217.216 370.545ZM225.093 372.182V373.46H219.8V372.182H225.093ZM221.385 382V370.827C221.385 370.264 221.517 369.795 221.782 369.42C222.046 369.045 222.389 368.764 222.811 368.577C223.233 368.389 223.678 368.295 224.147 368.295C224.517 368.295 224.82 368.325 225.054 368.385C225.289 368.445 225.463 368.5 225.578 368.551L225.144 369.855C225.067 369.83 224.961 369.798 224.824 369.759C224.692 369.721 224.517 369.702 224.3 369.702C223.801 369.702 223.441 369.827 223.22 370.079C223.002 370.33 222.894 370.699 222.894 371.185V382H221.385ZM230.919 382.205C229.973 382.205 229.157 381.996 228.471 381.578C227.789 381.156 227.263 380.568 226.892 379.814C226.526 379.055 226.342 378.173 226.342 377.168C226.342 376.162 226.526 375.276 226.892 374.509C227.263 373.737 227.778 373.136 228.439 372.706C229.104 372.271 229.879 372.054 230.766 372.054C231.277 372.054 231.782 372.139 232.281 372.31C232.779 372.48 233.233 372.757 233.642 373.141C234.051 373.52 234.377 374.023 234.62 374.649C234.863 375.276 234.984 376.047 234.984 376.963V377.602H227.416V376.298H233.45C233.45 375.744 233.339 375.25 233.118 374.815C232.901 374.381 232.589 374.038 232.185 373.786C231.784 373.535 231.311 373.409 230.766 373.409C230.165 373.409 229.645 373.558 229.206 373.857C228.771 374.151 228.437 374.534 228.202 375.007C227.968 375.48 227.851 375.987 227.851 376.528V377.398C227.851 378.139 227.979 378.768 228.234 379.283C228.494 379.795 228.854 380.185 229.315 380.453C229.775 380.717 230.31 380.849 230.919 380.849C231.315 380.849 231.673 380.794 231.993 380.683C232.317 380.568 232.596 380.398 232.83 380.172C233.065 379.942 233.246 379.656 233.374 379.315L234.831 379.724C234.678 380.219 234.42 380.653 234.058 381.028C233.695 381.399 233.248 381.689 232.715 381.898C232.183 382.102 231.584 382.205 230.919 382.205Z" fill="#4C5359"/>
<path d="M27.7215 339.479C30.2481 336.807 27.9301 331.501 25.484 329.188C23.4457 327.262 20.0279 325.977 18.0844 328.033C15.5578 330.706 17.8758 336.012 20.3218 338.324C22.3602 340.251 25.7779 341.535 27.7215 339.479V339.479ZM20.336 347.292C22.2796 345.236 20.8053 341.896 18.767 339.969C16.1171 337.464 10.6895 335.447 8.16286 338.12C6.21932 340.176 7.69356 343.516 9.7319 345.443C12.1874 348.153 17.6151 350.17 20.336 347.292V347.292ZM32.6799 330.151C30.1533 332.824 32.0731 338.143 34.7229 340.648C36.5575 342.382 39.1694 343.294 40.9186 341.444C43.4452 338.771 41.5253 333.452 38.8755 330.947C37.041 329.213 34.2347 328.507 32.6799 330.151V330.151ZM22.0899 354.011C19.4401 351.506 13.8275 350.093 11.4953 352.56C9.74612 354.411 10.8032 356.967 12.6377 358.702C15.2876 361.207 20.9001 362.619 23.2324 360.152C24.9815 358.302 23.9245 355.745 22.0899 354.011ZM27.9016 347.047C24.0145 351.159 25.2897 362.876 29.774 367.115C31.8124 369.042 33.7843 368.181 35.3392 366.536C37.6714 364.069 37.7899 360.677 39.9278 358.416C41.8714 356.36 45.2512 356.051 47.3891 353.79C48.9439 352.145 50.2854 349.909 48.0433 347.79C43.5589 343.55 31.7887 342.935 27.9016 347.047V347.047Z" fill="#4C5359"/>
<defs>
<linearGradient id="paint0_linear_2_5" x1="186.463" y1="104.654" x2="186.463" y2="188.786" gradientUnits="userSpaceOnUse">
<stop offset="0.5993" stop-color="#F9DDBD"/>
<stop offset="1" stop-color="#FFD29C"/>
</linearGradient>
<linearGradient id="paint1_linear_2_5" x1="88.4902" y1="104.654" x2="88.4902" y2="188.786" gradientUnits="userSpaceOnUse">
<stop offset="0.5993" stop-color="#F9DDBD"/>
<stop offset="1" stop-color="#FFD29C"/>
</linearGradient>
<radialGradient id="paint2_radial_2_5" cx="0" cy="0" r="1" gradientUnits="userSpaceOnUse" gradientTransform="translate(137.473 53.7899) scale(56.6893 54.7642)">
<stop offset="0.7936" stop-color="#454140" stop-opacity="0"/>
<stop offset="1" stop-color="#454140"/>
</radialGradient>
<linearGradient id="paint3_linear_2_5" x1="137.516" y1="86.3927" x2="137.516" y2="159.325" gradientUnits="userSpaceOnUse">
<stop stop-color="#651FFF"/>
<stop offset="0.7047" stop-color="#5914F2"/>
<stop offset="1" stop-color="#530EEB"/>
</linearGradient>
<radialGradient id="paint4_radial_2_5" cx="0" cy="0" r="1" gradientUnits="userSpaceOnUse" gradientTransform="translate(137.87 57.6918) scale(59.3822 58.4936)">
<stop offset="0.7945" stop-color="#454140" stop-opacity="0"/>
<stop offset="1" stop-color="#454140"/>
</radialGradient>
</defs>
</svg>
