<svg width="291" height="407" viewBox="0 0 291 407" fill="none" xmlns="http://www.w3.org/2000/svg">
<path d="M211.168 189.705C210.684 189.705 210.253 189.596 209.93 189.399C208.504 188.526 208.747 183.7 208.827 182.106C208.935 179.922 207.401 177.236 205.922 175.969C205.169 175.336 204.361 175.008 203.554 175.008H203.447L203.151 175.03L202.801 175.118C200.999 175.445 200.972 177.258 200.945 179.027C200.918 180.249 200.891 181.603 200.407 182.761C200.138 183.416 199.142 183.438 198.954 183.438C197.77 183.438 196.479 182.826 196.425 181.472C196.425 181.298 196.371 181.079 196.264 180.752C196.075 179.987 195.645 178.415 195.86 175.205C196.129 171.361 196.694 166.972 198.846 163.456L199.115 163.041L184.696 120.894L179.046 105.892C181.091 105.018 186.041 103.162 191.018 103.162C196.802 103.162 200.864 105.651 203.124 110.543C206.837 118.405 209.123 127.904 210.334 140.461C211.275 150.113 212.863 158.15 213.589 160.028C213.804 160.574 214.235 161.687 214.235 161.687C215.069 163.893 215.392 164.723 218.862 170.641C220.691 173.764 219.965 176.908 219.104 180.555C218.808 181.778 218.539 183.001 218.324 184.268C217.813 187.041 213.831 189.705 211.168 189.705Z" fill="url(#paint0_linear_109_2)"/>
<path d="M89.7826 189.705C87.1192 189.705 83.1376 187.019 82.6803 184.289C82.4651 183.001 82.1691 181.756 81.9001 180.577C81.0392 176.93 80.3128 173.764 82.1153 170.641C85.5589 164.766 85.9086 163.871 86.7157 161.753C86.904 161.272 87.0923 160.726 87.3883 160.049C88.1146 158.281 89.7019 150.288 90.6704 140.483C91.9079 127.904 94.1947 118.405 97.8534 110.587C100.14 105.695 104.229 103.227 109.987 103.227C114.991 103.227 119.941 105.084 121.958 105.935L116.309 120.894L101.889 163.063L102.158 163.478C104.337 166.994 104.875 171.383 105.144 175.227C105.332 178.437 104.929 180.009 104.714 180.774C104.633 181.101 104.579 181.319 104.579 181.494C104.498 182.848 103.207 183.46 102.05 183.46C101.297 183.46 100.759 183.219 100.598 182.783C100.113 181.647 100.086 180.271 100.059 179.07C100.033 177.301 99.9788 175.467 97.988 175.096L97.5037 175.052C96.6159 175.052 95.8357 175.38 95.0556 176.013C93.5759 177.258 92.0424 179.966 92.1501 182.127C92.2308 183.722 92.4729 188.548 91.0201 189.443C90.6973 189.618 90.2669 189.705 89.7826 189.705Z" fill="url(#paint1_linear_109_2)"/>
<path d="M168.554 256.376L154.699 179.813C154.295 178.153 152.52 177.039 150.502 177.039C148.484 177.039 146.709 178.153 146.332 179.703L132.423 256.376L115.744 256.9L112.973 156.381H187.978L185.234 256.9L168.554 256.376Z" fill="#7C7C7C"/>
<path d="M177.432 262.032H189.404C191.61 261.988 193.197 259.936 192.551 258.145C190.56 252.707 184.507 248.711 177.432 248.711C170.222 248.711 164.088 252.86 162.205 258.451C161.613 260.241 163.254 262.01 165.46 262.01H177.432V262.032Z" fill="#424242"/>
<path d="M123.519 262.032H111.547C109.341 261.988 107.754 259.936 108.399 258.145C110.39 252.707 116.443 248.711 123.519 248.711C130.729 248.711 136.862 252.86 138.746 258.451C139.338 260.241 137.696 262.01 135.49 262.01H123.519V262.032Z" fill="#424242"/>
<path d="M151.148 0C102.239 0 102.642 36.7094 102.642 37.299C102.642 61.0804 104.875 94.667 116.605 107.879C121.259 113.12 130.244 113.404 130.244 113.404L150.475 113.382L170.706 113.404C170.706 113.404 179.692 113.12 184.346 107.879C196.076 94.667 198.308 61.0804 198.308 37.299C198.308 36.7094 200.057 0 151.148 0Z" fill="#312D2D"/>
<path d="M151.148 0C102.239 0 102.642 36.7094 102.642 37.299C102.642 61.0804 104.875 94.667 116.605 107.879C121.259 113.12 130.244 113.404 130.244 113.404L150.475 113.382L170.706 113.404C170.706 113.404 179.692 113.12 184.346 107.879C196.076 94.667 198.308 61.0804 198.308 37.299C198.308 36.7094 200.057 0 151.148 0Z" fill="url(#paint2_radial_109_2)"/>
<path d="M176.49 89.2295C170.007 87.8319 161.479 86.9147 150.825 86.9147H150.61H150.395C139.741 86.9147 131.078 87.8319 124.649 89.2295C104.337 93.6189 99.1986 103.555 93.1455 116.854L112.973 123.842V161.578H188.301V123.842L207.886 116.854C201.833 103.555 196.802 93.6189 176.49 89.2295Z" fill="url(#paint3_linear_109_2)"/>
<path d="M150.475 80.1665H137.024V91.7406C137.024 96.9816 142.485 101.218 149.238 101.218H151.686C158.439 101.218 163.9 96.9816 163.9 91.7406V80.1665H150.475Z" fill="#EDC391"/>
<path d="M150.448 9.56494C170.975 9.56494 189.969 21.947 189.969 48.2179C189.969 69.3132 173.881 81.8045 159.864 85.8226C156.528 86.7835 153.3 87.2639 150.448 87.2639C147.597 87.2639 144.395 86.7835 141.086 85.8445C127.07 81.8263 110.928 69.3569 110.928 48.2179C110.928 21.947 129.948 9.56494 150.448 9.56494Z" fill="#F9DDBD"/>
<path d="M151.148 0C102.239 0 102.642 36.7094 102.642 37.299C102.642 44.8112 102.857 53.3061 103.53 61.8229L111.547 61.801C111.466 58.984 113.914 41.4919 121.178 40.1816C147.839 35.3118 162.931 23.8251 162.931 23.8251C166.859 30.7695 179.127 37.5611 183.539 40.1379C187.171 42.2562 188.274 58.0886 188.193 61.801H197.394C197.394 61.7574 197.421 61.6919 197.421 61.6482C198.093 53.1751 198.308 44.7457 198.308 37.2772C198.308 36.7094 200.057 0 151.148 0Z" fill="#312D2D"/>
<path d="M151.148 0C102.239 0 102.642 36.7094 102.642 37.299C102.642 44.8112 102.857 53.3061 103.53 61.8229L111.547 61.801C111.466 58.984 113.914 41.4919 121.178 40.1816C147.839 35.3118 162.931 23.8251 162.931 23.8251C166.859 30.7695 179.127 37.5611 183.539 40.1379C187.171 42.2562 188.274 58.0886 188.193 61.801H197.394C197.394 61.7574 197.421 61.6919 197.421 61.6482C198.093 53.1751 198.308 44.7457 198.308 37.2772C198.308 36.7094 200.057 0 151.148 0Z" fill="url(#paint4_radial_109_2)"/>
<path d="M160.403 69.8373C156.636 71.6498 144.342 71.6498 140.575 69.8373C138.423 68.7891 136.217 70.3832 137.105 71.9774C137.992 73.5497 144.691 77.1748 150.502 77.1748C156.313 77.1748 162.931 73.5497 163.819 71.9774C164.734 70.3832 162.555 68.7891 160.403 69.8373Z" fill="#444444"/>
<path d="M155.022 61.9975C154.887 61.9538 154.78 61.932 154.645 61.9102H146.305C146.171 61.932 146.036 61.9538 145.929 61.9975C145.176 62.2377 144.745 62.871 145.122 63.5698C145.498 64.2686 147.139 66.1467 150.475 66.1467C153.811 66.1467 155.479 64.2468 155.829 63.5698C156.206 62.8929 155.775 62.2596 155.022 61.9975Z" fill="#DBA689"/>
<path d="M131.105 58.0011C134.315 58.0011 136.916 55.811 136.916 53.1094C136.916 50.4078 134.315 48.2178 131.105 48.2178C127.896 48.2178 125.294 50.4078 125.294 53.1094C125.294 55.811 127.896 58.0011 131.105 58.0011Z" fill="#312D2D"/>
<path d="M169.845 58.0011C173.055 58.0011 175.656 55.811 175.656 53.1094C175.656 50.4078 173.055 48.2178 169.845 48.2178C166.636 48.2178 164.034 50.4078 164.034 53.1094C164.034 55.811 166.636 58.0011 169.845 58.0011Z" fill="#312D2D"/>
<path d="M161.236 44.3526C162.339 43.1734 164.895 41.4263 169.872 41.4263C174.849 41.4263 177.405 43.1515 178.508 44.3526C178.992 44.8767 178.885 45.4882 178.535 45.8594C178.212 46.2088 177.297 46.5145 176.275 46.2307C175.253 45.9468 173.235 45.1169 169.899 45.0951C166.536 45.1169 164.545 45.9468 163.523 46.2307C162.501 46.5145 161.559 46.2088 161.263 45.8594C160.86 45.4663 160.752 44.8767 161.236 44.3526Z" fill="#454140"/>
<path d="M122.469 44.3525C123.573 43.1733 126.128 41.4263 131.105 41.4263C136.082 41.4263 138.638 43.1515 139.741 44.3525C140.225 44.8766 140.118 45.4881 139.768 45.8594C139.445 46.2088 138.53 46.5145 137.508 46.2306C136.486 45.9467 134.468 45.1169 131.132 45.095C127.769 45.1169 125.779 45.9467 124.756 46.2306C123.734 46.5145 122.792 46.2088 122.496 45.8594C122.093 45.4663 121.985 44.8766 122.469 44.3525Z" fill="#454140"/>
<path d="M218.36 246.634C218.36 246.634 216.403 251.177 217.549 255.998C218.705 260.818 220.318 265.27 220.318 265.27C220.318 265.27 220.662 274.726 220.318 275.747C219.974 276.768 217.32 278.065 217.32 279.922C217.32 281.779 218.164 284.123 222.432 284.683C226.7 285.243 230.157 284.097 231.583 282.708C233.639 280.699 233.238 279.277 233.238 277.795C233.238 276.313 233.352 267.785 233.811 266.481C234.27 265.184 234.966 264.44 236.236 264.532C237.506 264.624 238.89 266.198 239.005 269.168C239.12 272.132 239.234 277.327 239.12 278.348C239.005 279.369 237.85 282.8 238.776 284.189C239.701 285.579 243.888 286.929 247.115 286.784C251.343 286.599 253.882 284.466 254.112 282.8C254.341 281.134 252.956 277.327 252.956 276.214C252.956 275.102 254.57 267.502 255.029 267.035C255.488 266.574 256.897 266.672 259.985 265.553C262.795 264.532 264.295 263.512 264.295 263.512C264.295 263.512 264.368 270.097 264.254 270.834C264.139 271.578 261.37 273.896 261.829 275.655C262.288 277.413 264.991 278.44 267.399 278.618C271.471 278.928 275.436 276.392 276.468 274.166C277.509 271.941 277.042 269.162 276.812 267.68C276.583 266.198 276.583 261.003 276.812 259.613C277.042 258.224 277.419 257.381 277.566 256.65C277.796 255.445 277.738 254.101 277.738 254.101C277.738 254.101 281.72 254.101 284.079 252.85C286.438 251.599 288.921 249.419 290.018 246.732C291.092 244.105 290.829 243.301 289.904 243.209C288.978 243.117 284.833 247.793 281.31 247.937C275.715 248.168 276.272 243.348 272.004 240.43C267.195 237.138 259.699 236.723 259.699 236.723C259.699 236.723 260.993 232.831 261.01 229.953C261.067 217.389 253.456 213.128 253.456 213.128C253.456 213.128 244.305 207.649 233.926 208.018C223.546 208.387 215.936 215.018 215.936 215.018L210.226 235.274C210.226 235.274 211.667 239.166 213.978 241.998C216.403 244.961 218.36 246.634 218.36 246.634Z" fill="#FFD2B1"/>
<path d="M211.151 210.527C202.672 210.665 198.191 216.473 198.06 220.029C197.986 222.117 196.962 237.289 207.399 237.599C211.585 237.724 214.698 233.819 216.28 229.394C218.27 223.816 218.18 218.225 218.41 216.737C218.778 214.359 219.393 212.614 219.393 212.614C219.393 212.614 218.36 210.408 211.151 210.527Z" fill="#865B52"/>
<path d="M256.536 208.209C265.761 208.485 268.907 211.771 269.8 213.681C270.783 215.769 271.643 223.217 270.201 228.188C269.03 232.245 267.26 234.306 263.107 234.168C259.305 234.043 257.38 229.637 254.513 223.645C251.744 217.85 249.622 212.66 249.262 211.916C248.803 210.942 247.82 210.527 247.82 210.527C247.82 210.527 249.663 207.998 256.536 208.209Z" fill="#865B52"/>
<path d="M245.985 223.269C241.43 223.5 239.251 227.569 240.217 231.659C241.258 236.064 244.854 238.152 249.385 237.684C254.341 237.177 255.84 232.633 255.209 229.202C254.628 226.081 252.432 222.94 245.985 223.269Z" fill="#D27856"/>
<path d="M251.343 230.73C251.343 232.653 250.015 234.26 247.91 234.214C245.051 234.148 244.305 232.113 244.363 230.401C244.428 228.399 245.919 227.451 248.049 227.497C249.95 227.53 251.343 228.807 251.343 230.73Z" fill="#060401"/>
<path d="M227.298 231.791C227.298 233.792 225.971 235.465 223.866 235.412C221.006 235.347 220.261 233.226 220.318 231.442C220.384 229.354 222.162 228.465 223.833 228.564C225.725 228.676 227.298 229.789 227.298 231.791Z" fill="#060401"/>
<path d="M238.251 242.972C238.251 242.972 243.265 242.557 243.036 239.634C242.806 236.716 239.406 236.525 236.752 236.572C234.098 236.618 230.297 237.731 230.698 240.187C231.099 242.643 235.425 242.966 235.425 242.966C235.425 242.966 235.417 244.783 233.926 244.915C232.312 245.053 230.002 243.058 229.371 242.551C228.74 242.044 227.757 242.228 227.413 242.643C227.069 243.058 227.298 243.986 228.281 244.777C229.264 245.567 231.566 247.556 233.877 247.371C236.187 247.187 236.244 246.212 237.162 246.166C238.087 246.12 238.03 247.233 240.332 247.187C241.954 247.154 245.223 244.862 245.813 244.454C247.14 243.526 247.484 242.597 246.911 241.998C246.337 241.398 244.723 242.274 243.855 242.788C242.986 243.295 241.586 244.494 240.226 244.691C237.965 245.014 238.251 242.972 238.251 242.972Z" fill="#060401"/>
<path d="M258.724 238.626C258.724 238.626 257.634 240.549 256.725 242.09C255.627 243.947 254.054 245.567 254.054 245.567C254.054 245.567 255.832 255.339 266.408 254.496C270.193 254.193 273.06 251.81 273.331 249.281C273.789 245.014 271.774 243.018 268.645 241.069C263.574 237.921 258.724 238.626 258.724 238.626Z" fill="#D27856"/>
<path d="M251.4 253.91C249.524 255.293 250.532 257.894 253.014 258.177C255.496 258.454 256.831 256.795 256.643 255.537C256.364 253.588 253.538 252.336 251.4 253.91Z" fill="#D27856"/>
<path d="M226.897 251.342C226.897 251.342 225.242 254.99 228.74 259.56C230.231 261.503 233.549 262.596 235.892 262.524C238.366 262.451 240.602 261.76 242.519 259.837C245.575 256.775 244.707 251.678 244.707 251.678C244.707 251.678 239.865 253.278 235.425 253.16C230.698 253.041 226.897 251.342 226.897 251.342Z" fill="#D27856"/>
<path d="M220.859 279.263C219.655 278.967 219.171 280.469 219.09 281.423C219.008 282.378 219.016 283.616 220.089 283.926C221.162 284.235 220.949 282.398 221.047 281.792C221.244 280.627 222.129 279.573 220.859 279.263Z" fill="#D27856"/>
<path d="M225.586 279.823C224.865 279.797 224.103 280.383 224.013 282.082C223.939 283.504 224.013 284.676 225.013 284.742C226.356 284.828 225.979 283.445 226.053 282.299C226.086 281.647 227.085 279.882 225.586 279.823Z" fill="#D27856"/>
<path d="M243.929 281.674C242.773 281.674 242.741 282.727 242.741 283.866C242.741 285.012 242.446 286.428 243.74 286.553C245.313 286.705 245.01 285.006 245.01 284.051C245.002 283.221 245.19 281.674 243.929 281.674Z" fill="#D27856"/>
<path d="M249.155 281.463C248.229 281.614 248.311 282.635 248.344 283.873C248.385 285.111 248.156 286.422 249.458 286.316C250.572 286.224 250.499 284.769 250.458 283.656C250.425 282.694 250.581 281.219 249.155 281.463Z" fill="#D27856"/>
<path d="M264.991 273.409C264.196 273.284 263.295 273.824 263.066 275.266C262.877 276.504 262.951 277.591 264.295 277.828C264.983 277.953 265.106 276.53 265.138 275.51C265.179 274.627 265.99 273.567 264.991 273.409Z" fill="#D27856"/>
<path d="M269.333 274.16C268.571 274.061 267.825 274.436 267.629 275.971C267.514 276.866 267.105 278.473 268.489 278.532C269.562 278.572 269.48 277.156 269.579 276.418C269.734 275.253 270.586 274.331 269.333 274.16Z" fill="#D27856"/>
<path d="M23.3113 249.077C23.0511 247.813 22.9209 246.55 23.0511 245.412C23.0511 243.896 23.4414 242.633 24.2222 241.369C25.003 239.979 26.3043 238.842 27.7358 238.211C29.1673 237.453 30.9891 237.2 32.6808 237.453C34.2424 237.579 35.804 238.211 37.1053 239.095C38.2765 239.853 39.3175 240.864 40.2285 242.001C41.6599 243.896 42.701 246.171 43.2215 248.824V249.203C43.4818 250.845 42.4407 252.362 40.749 252.867C40.4887 252.993 40.2285 252.993 39.9682 252.993C38.9271 253.12 38.0162 252.867 37.2354 252.235C36.4546 251.603 35.9341 250.845 35.804 249.835C35.5437 248.066 35.1533 246.55 34.3725 245.412C33.7219 244.275 32.6808 243.391 31.6398 243.138C31.2494 243.012 30.7288 243.012 30.3384 243.138C29.8179 243.265 29.4275 243.644 29.1673 244.023C28.7769 244.528 28.5166 245.033 28.5166 245.791C28.3865 246.55 28.3865 247.308 28.5166 248.066C28.7769 249.582 29.2974 251.351 30.2083 253.12C30.5987 253.878 31.1192 254.762 31.6398 255.647C32.1603 256.531 32.8109 257.289 33.3315 257.921C34.7629 259.563 36.0642 260.827 37.4957 261.838C39.1874 262.975 40.8791 263.733 42.5708 263.985C44.2626 264.238 46.2145 264.238 48.1665 263.606C49.7281 263.227 50.639 263.733 50.8993 264.491C51.1595 265.123 50.7691 266.133 49.2076 266.639H49.0774C46.7351 267.397 44.2626 267.65 42.0503 267.271C39.8381 267.018 37.4957 266.007 35.2834 264.744C33.4616 263.606 31.9 262.09 30.2083 260.321C29.5576 259.563 28.907 258.805 28.3865 258.174L28.1262 257.794C27.3454 256.91 26.6947 256.026 26.1742 255.141C24.6126 253.12 23.7017 251.098 23.3113 249.077ZM81.0899 274.093C83.4323 276.999 93.7127 274.093 95.4044 270.808C102.171 257.415 95.4044 251.603 95.4044 251.603L81.0899 253.499C81.0899 253.625 78.227 270.556 81.0899 274.093Z" fill="#3E4347"/>
<path d="M61.7002 274.093C59.3579 276.999 49.0774 274.093 47.3857 270.808C40.6189 257.415 47.3857 251.604 47.3857 251.604L61.7002 253.499C61.7002 253.625 64.6933 270.556 61.7002 274.093Z" fill="#3E4347"/>
<path d="M65.2138 273.209C65.0837 274.598 61.8304 275.357 57.9264 274.978C54.0225 274.598 51.0294 273.335 51.0294 271.945C51.1596 270.555 54.1526 272.324 58.0565 272.577C62.0906 273.082 65.3439 271.945 65.2138 273.209ZM77.5763 273.209C77.7065 274.598 80.9598 275.357 84.8637 274.978C88.7677 274.598 91.7607 273.335 91.7607 271.945C91.6306 270.555 88.6375 272.324 84.7336 272.577C80.6995 273.082 77.4462 271.945 77.5763 273.209Z" fill="white"/>
<path d="M71.33 279.779C73.9326 282.558 82.9117 282.432 85.7746 279.779C89.6786 275.988 89.5484 258.679 89.6786 250.34L72.7614 248.95C72.8915 248.95 68.0767 276.115 71.33 279.779Z" fill="#4C5359"/>
<path d="M71.46 279.779C68.8574 282.558 59.8783 282.432 57.0154 279.779C53.1115 275.988 53.2416 258.679 53.1115 250.34L70.0286 248.95C70.0286 248.95 74.7133 276.115 71.46 279.779Z" fill="#4C5359"/>
<path d="M64.5631 258.679L71.4601 272.83L78.3571 258.679H64.5631Z" fill="white"/>
<path d="M98.2673 206.245C95.1442 204.476 79.0078 212.688 75.7545 218.248L99.0481 231.641C102.171 226.208 101.26 207.887 98.2673 206.245Z" fill="#4C5359"/>
<path d="M93.4524 214.584C92.2812 213.952 82.7816 218.121 80.9597 221.154L93.9729 228.608C95.6646 225.702 94.4934 215.215 93.4524 214.584Z" fill="#F7A4A4"/>
<path d="M44.653 206.245C41.5299 208.014 40.619 226.081 43.8723 231.641L67.1659 218.248C64.0427 212.815 47.6461 204.476 44.653 206.245Z" fill="#4C5359"/>
<path d="M49.5979 214.584C48.4268 215.215 47.2556 225.576 49.0774 228.608L61.9605 221.154C60.2688 218.248 50.639 213.952 49.5979 214.584Z" fill="#F7A4A4"/>
<path d="M71.4601 215.342C44.3926 215.342 41.79 233.789 41.79 244.023C41.79 248.318 55.0634 261.585 71.3299 261.585C87.7265 261.585 101 248.318 101 244.023C101 233.789 98.3974 215.342 71.4601 215.342Z" fill="#4C5359"/>
<path d="M63.9126 239.474C63.9126 239.474 60.7894 244.022 55.0636 242.633C49.3378 241.243 49.0775 235.81 49.0775 235.81C49.0775 235.81 52.2007 231.261 57.9265 232.651C63.6523 234.167 63.9126 239.474 63.9126 239.474Z" fill="#BFFFAB"/>
<path d="M63.2618 237.2C63.2618 237.2 60.529 240.106 56.7552 240.106C52.7211 240.106 50.2486 234.547 50.2486 234.547C50.2486 234.547 52.9814 231.514 57.7962 232.778C62.3509 233.788 63.2618 237.2 63.2618 237.2Z" fill="#93E67F"/>
<path d="M59.0976 237.073C59.0976 243.264 55.9744 243.264 55.9744 237.073C55.9744 230.882 59.0976 230.882 59.0976 237.073Z" fill="#4C5359"/>
<path d="M79.0078 239.474C79.0078 239.474 82.131 244.022 87.8568 242.633C93.5826 241.243 93.8428 235.81 93.8428 235.81C93.8428 235.81 90.7197 231.261 84.9939 232.651C79.2681 234.167 79.0078 239.474 79.0078 239.474Z" fill="#BFFFAB"/>
<path d="M79.5283 237.2C79.5283 237.2 82.2611 240.106 86.0349 240.106C90.069 240.106 92.5415 234.547 92.5415 234.547C92.5415 234.547 89.8087 231.514 84.9939 232.778C80.4392 233.788 79.5283 237.2 79.5283 237.2Z" fill="#93E67F"/>
<path d="M83.6925 237.073C83.6925 243.264 86.8157 243.264 86.8157 237.073C86.9458 230.882 83.6925 230.882 83.6925 237.073Z" fill="#4C5359"/>
<path d="M80.0488 244.528C77.4461 242.633 74.5832 236.315 71.4601 236.315C68.3369 236.315 65.3439 242.633 62.8714 244.528C58.8373 247.56 47.9062 250.972 47.9062 250.972C47.9062 250.972 59.4879 260.574 71.4601 260.574C83.4322 260.574 95.0139 250.972 95.0139 250.972C95.0139 250.972 84.0829 247.56 80.0488 244.528Z" fill="white"/>
<path d="M79.7886 253.12C78.8777 253.625 77.7065 253.878 76.6655 253.878C75.6244 253.751 74.5833 253.499 73.8025 252.867C73.0218 252.235 72.3711 251.351 72.241 250.466L71.4602 246.297L70.6794 250.466C70.5493 251.477 69.8986 252.235 69.1178 252.867C68.337 253.499 67.296 253.878 66.2549 253.878C65.0837 253.878 64.0427 253.751 63.1317 253.12C62.2208 252.614 61.3099 251.73 60.9195 250.593C60.9195 251.856 61.7003 252.993 62.6112 253.751C63.5221 254.509 64.9536 255.015 66.1248 255.141C67.4261 255.267 68.7274 254.888 69.8986 254.13C70.5493 253.751 70.9396 253.246 71.4602 252.614C71.8506 253.246 72.3711 253.751 73.0218 254.13C74.1929 254.888 75.4943 255.267 76.7956 255.141C78.0969 255.141 79.3982 254.636 80.3091 253.751C81.3502 252.993 82.0009 251.73 82.0009 250.593C81.6105 251.73 80.8297 252.614 79.7886 253.12Z" fill="#4C5359"/>
<path d="M75.4942 245.286C74.7134 244.402 72.2409 244.275 71.4601 244.275C70.6793 244.275 68.2068 244.402 67.426 245.286C66.9054 245.918 67.2958 247.56 68.8574 249.076C69.7683 249.961 70.6793 250.214 71.4601 250.214C72.2409 250.214 73.1518 249.961 74.0627 249.076C75.6243 247.56 76.0147 245.918 75.4942 245.286Z" fill="#4C5359"/>
<path d="M71.0697 278.768C71.0697 280.158 68.0767 281.169 64.3029 281.169C60.529 281.169 57.536 280.032 57.536 278.768C57.536 277.378 60.529 278.894 64.3029 278.894C67.9466 278.894 71.0697 277.505 71.0697 278.768ZM85.2541 278.768C85.2541 280.158 82.2611 281.169 78.4872 281.169C74.7134 281.169 71.7204 280.032 71.7204 278.768C71.7204 277.378 74.7134 278.894 78.4872 278.894C82.2611 278.894 85.2541 277.505 85.2541 278.768Z" fill="white"/>
<path d="M58.8373 280.79L60.6592 277.757L60.1387 281.295L58.8373 280.79ZM63.392 281.801L64.0426 277.631L64.6933 281.801H63.392ZM68.4671 281.295L67.9466 278.01L69.7684 280.916L68.4671 281.295ZM82.7816 281.295L82.2611 277.757L84.0829 280.79L82.7816 281.295ZM78.0969 281.801L78.7475 277.631L79.3982 281.801H78.0969ZM73.0217 280.916L74.8436 278.01L74.323 281.295L73.0217 280.916Z" fill="#3E4347"/>
<path d="M88.6797 356.698C88.6797 356.063 88.582 355.494 88.3867 354.989C88.2077 354.468 87.8659 353.996 87.3613 353.573C86.8568 353.134 86.1488 352.702 85.2373 352.279C84.3258 351.856 83.1458 351.417 81.6973 350.961C80.0859 350.44 78.556 349.854 77.1074 349.203C75.6751 348.552 74.4056 347.795 73.2988 346.933C72.2083 346.054 71.3457 345.036 70.7109 343.881C70.0924 342.725 69.7832 341.382 69.7832 339.853C69.7832 338.371 70.1087 337.029 70.7598 335.824C71.4108 334.604 72.3223 333.562 73.4941 332.699C74.666 331.82 76.0495 331.145 77.6445 330.673C79.2559 330.201 81.0218 329.965 82.9424 329.965C85.5628 329.965 87.8496 330.437 89.8027 331.381C91.7559 332.325 93.2695 333.619 94.3438 335.263C95.4342 336.907 95.9795 338.786 95.9795 340.902H88.7041C88.7041 339.861 88.4844 338.949 88.0449 338.168C87.6217 337.37 86.9707 336.744 86.0918 336.288C85.2292 335.832 84.1387 335.604 82.8203 335.604C81.5508 335.604 80.4928 335.8 79.6465 336.19C78.8001 336.565 78.1654 337.077 77.7422 337.729C77.319 338.363 77.1074 339.079 77.1074 339.877C77.1074 340.479 77.2539 341.024 77.5469 341.513C77.8561 342.001 78.3118 342.457 78.9141 342.88C79.5163 343.303 80.2568 343.702 81.1357 344.076C82.0146 344.451 83.0319 344.817 84.1875 345.175C86.1243 345.761 87.8252 346.42 89.29 347.152C90.7712 347.885 92.0081 348.707 93.001 349.618C93.9938 350.53 94.7425 351.563 95.2471 352.719C95.7516 353.874 96.0039 355.185 96.0039 356.649C96.0039 358.196 95.7028 359.579 95.1006 360.8C94.4984 362.021 93.6276 363.054 92.4883 363.9C91.349 364.747 89.9899 365.39 88.4111 365.829C86.8324 366.269 85.0664 366.488 83.1133 366.488C81.3555 366.488 79.6221 366.26 77.9131 365.805C76.2041 365.333 74.6497 364.625 73.25 363.681C71.8665 362.737 70.7598 361.532 69.9297 360.067C69.0996 358.603 68.6846 356.869 68.6846 354.867H76.0332C76.0332 355.974 76.2041 356.91 76.5459 357.675C76.8877 358.44 77.3678 359.058 77.9863 359.53C78.6211 360.002 79.3698 360.344 80.2324 360.556C81.1113 360.767 82.0716 360.873 83.1133 360.873C84.3828 360.873 85.4245 360.694 86.2383 360.336C87.0684 359.978 87.6787 359.481 88.0693 358.847C88.4762 358.212 88.6797 357.496 88.6797 356.698ZM112.703 366.488C110.652 366.488 108.813 366.163 107.186 365.512C105.558 364.844 104.174 363.925 103.035 362.753C101.912 361.581 101.049 360.222 100.447 358.676C99.8451 357.113 99.5439 355.453 99.5439 353.695V352.719C99.5439 350.717 99.8288 348.886 100.398 347.226C100.968 345.565 101.782 344.125 102.84 342.904C103.914 341.684 105.216 340.748 106.746 340.097C108.276 339.429 110.001 339.096 111.922 339.096C113.794 339.096 115.454 339.405 116.902 340.023C118.351 340.642 119.563 341.521 120.54 342.66C121.533 343.799 122.282 345.167 122.786 346.762C123.291 348.34 123.543 350.098 123.543 352.035V354.965H102.547V350.277H116.634V349.74C116.634 348.764 116.455 347.893 116.097 347.128C115.755 346.347 115.234 345.728 114.534 345.272C113.834 344.817 112.939 344.589 111.849 344.589C110.921 344.589 110.123 344.792 109.456 345.199C108.789 345.606 108.243 346.176 107.82 346.908C107.413 347.641 107.104 348.503 106.893 349.496C106.697 350.473 106.6 351.547 106.6 352.719V353.695C106.6 354.753 106.746 355.73 107.039 356.625C107.348 357.52 107.78 358.293 108.333 358.944C108.903 359.595 109.586 360.1 110.384 360.458C111.198 360.816 112.117 360.995 113.143 360.995C114.412 360.995 115.592 360.751 116.683 360.263C117.789 359.758 118.742 359.001 119.539 357.992L122.957 361.703C122.404 362.501 121.647 363.266 120.687 363.998C119.743 364.73 118.603 365.333 117.269 365.805C115.934 366.26 114.412 366.488 112.703 366.488ZM135.091 359.164L140.584 339.584H145.052L143.611 347.274L138.118 366H134.383L135.091 359.164ZM132.308 339.584L136.238 359.14L136.604 366H132.21L125.521 339.584H132.308ZM150.081 358.822L153.914 339.584H160.726L154.036 366H149.666L150.081 358.822ZM145.662 339.584L151.131 359.018L151.888 366H148.128L142.635 347.299L141.243 339.584H145.662ZM178.523 360.043V348.275C178.523 347.429 178.385 346.705 178.108 346.103C177.832 345.484 177.4 345.004 176.814 344.662C176.245 344.32 175.504 344.149 174.593 344.149C173.812 344.149 173.136 344.288 172.566 344.564C171.997 344.825 171.557 345.207 171.248 345.712C170.939 346.2 170.784 346.778 170.784 347.445H163.753C163.753 346.322 164.013 345.256 164.534 344.247C165.055 343.238 165.812 342.351 166.805 341.586C167.798 340.805 168.978 340.194 170.345 339.755C171.728 339.315 173.274 339.096 174.983 339.096C177.034 339.096 178.857 339.438 180.452 340.121C182.047 340.805 183.3 341.83 184.212 343.197C185.14 344.564 185.604 346.273 185.604 348.324V359.628C185.604 361.076 185.693 362.265 185.872 363.192C186.051 364.104 186.312 364.901 186.653 365.585V366H179.549C179.207 365.284 178.947 364.389 178.768 363.314C178.605 362.224 178.523 361.133 178.523 360.043ZM179.451 349.911L179.5 353.891H175.569C174.642 353.891 173.836 353.996 173.152 354.208C172.469 354.42 171.907 354.721 171.468 355.111C171.028 355.486 170.703 355.925 170.491 356.43C170.296 356.934 170.198 357.488 170.198 358.09C170.198 358.692 170.337 359.237 170.613 359.726C170.89 360.198 171.289 360.572 171.81 360.849C172.33 361.109 172.941 361.239 173.641 361.239C174.699 361.239 175.618 361.028 176.399 360.604C177.181 360.181 177.783 359.66 178.206 359.042C178.646 358.424 178.873 357.838 178.89 357.284L180.745 360.263C180.485 360.93 180.127 361.622 179.671 362.338C179.231 363.054 178.67 363.729 177.986 364.364C177.303 364.983 176.481 365.495 175.521 365.902C174.56 366.293 173.421 366.488 172.103 366.488C170.426 366.488 168.904 366.155 167.537 365.487C166.186 364.804 165.112 363.868 164.314 362.68C163.533 361.475 163.143 360.108 163.143 358.578C163.143 357.195 163.403 355.966 163.924 354.892C164.445 353.817 165.21 352.914 166.219 352.182C167.244 351.433 168.522 350.871 170.052 350.497C171.582 350.106 173.356 349.911 175.374 349.911H179.451ZM197.908 345.224V366H190.877V339.584H197.469L197.908 345.224ZM196.883 351.864H194.979C194.979 349.911 195.231 348.153 195.735 346.591C196.24 345.012 196.948 343.669 197.859 342.562C198.771 341.439 199.853 340.585 201.106 339.999C202.376 339.397 203.792 339.096 205.354 339.096C206.591 339.096 207.723 339.275 208.748 339.633C209.773 339.991 210.652 340.561 211.385 341.342C212.133 342.123 212.703 343.157 213.094 344.442C213.501 345.728 213.704 347.299 213.704 349.154V366H206.624V349.13C206.624 347.958 206.461 347.047 206.136 346.396C205.81 345.744 205.33 345.289 204.695 345.028C204.077 344.752 203.312 344.613 202.4 344.613C201.456 344.613 200.634 344.8 199.935 345.175C199.251 345.549 198.681 346.07 198.226 346.737C197.786 347.388 197.452 348.153 197.225 349.032C196.997 349.911 196.883 350.855 196.883 351.864ZM233.309 360.043V348.275C233.309 347.429 233.17 346.705 232.894 346.103C232.617 345.484 232.186 345.004 231.6 344.662C231.03 344.32 230.289 344.149 229.378 344.149C228.597 344.149 227.921 344.288 227.352 344.564C226.782 344.825 226.342 345.207 226.033 345.712C225.724 346.2 225.569 346.778 225.569 347.445H218.538C218.538 346.322 218.799 345.256 219.319 344.247C219.84 343.238 220.597 342.351 221.59 341.586C222.583 340.805 223.763 340.194 225.13 339.755C226.513 339.315 228.06 339.096 229.769 339.096C231.819 339.096 233.642 339.438 235.237 340.121C236.832 340.805 238.086 341.83 238.997 343.197C239.925 344.564 240.389 346.273 240.389 348.324V359.628C240.389 361.076 240.478 362.265 240.657 363.192C240.836 364.104 241.097 364.901 241.438 365.585V366H234.334C233.992 365.284 233.732 364.389 233.553 363.314C233.39 362.224 233.309 361.133 233.309 360.043ZM234.236 349.911L234.285 353.891H230.354C229.427 353.891 228.621 353.996 227.938 354.208C227.254 354.42 226.692 354.721 226.253 355.111C225.813 355.486 225.488 355.925 225.276 356.43C225.081 356.934 224.983 357.488 224.983 358.09C224.983 358.692 225.122 359.237 225.398 359.726C225.675 360.198 226.074 360.572 226.595 360.849C227.116 361.109 227.726 361.239 228.426 361.239C229.484 361.239 230.403 361.028 231.185 360.604C231.966 360.181 232.568 359.66 232.991 359.042C233.431 358.424 233.659 357.838 233.675 357.284L235.53 360.263C235.27 360.93 234.912 361.622 234.456 362.338C234.017 363.054 233.455 363.729 232.771 364.364C232.088 364.983 231.266 365.495 230.306 365.902C229.345 366.293 228.206 366.488 226.888 366.488C225.211 366.488 223.689 366.155 222.322 365.487C220.971 364.804 219.897 363.868 219.1 362.68C218.318 361.475 217.928 360.108 217.928 358.578C217.928 357.195 218.188 355.966 218.709 354.892C219.23 353.817 219.995 352.914 221.004 352.182C222.029 351.433 223.307 350.871 224.837 350.497C226.367 350.106 228.141 349.911 230.159 349.911H234.236Z" fill="#4C5359"/>
<path d="M75.7443 372.182C75.6676 371.534 75.3565 371.031 74.8111 370.673C74.2656 370.315 73.5966 370.136 72.804 370.136C72.2244 370.136 71.7173 370.23 71.2827 370.418C70.8523 370.605 70.5156 370.863 70.2727 371.191C70.0341 371.519 69.9148 371.892 69.9148 372.31C69.9148 372.659 69.9979 372.96 70.1641 373.211C70.3345 373.458 70.5518 373.665 70.8161 373.831C71.0803 373.993 71.3572 374.127 71.647 374.234C71.9368 374.336 72.2031 374.419 72.446 374.483L73.7756 374.841C74.1165 374.93 74.4957 375.054 74.9134 375.212C75.3352 375.369 75.7379 375.585 76.1214 375.857C76.5092 376.126 76.8288 376.471 77.0803 376.893C77.3317 377.315 77.4574 377.832 77.4574 378.446C77.4574 379.153 77.272 379.793 76.9013 380.364C76.5348 380.935 75.9979 381.388 75.2905 381.725C74.5874 382.062 73.733 382.23 72.7273 382.23C71.7898 382.23 70.978 382.079 70.2919 381.776C69.6101 381.474 69.0732 381.052 68.6811 380.511C68.2933 379.969 68.0739 379.341 68.0227 378.625H69.6591C69.7017 379.119 69.8679 379.528 70.1577 379.852C70.4517 380.172 70.8224 380.411 71.2699 380.568C71.7216 380.722 72.2074 380.798 72.7273 380.798C73.3324 380.798 73.8757 380.7 74.3572 380.504C74.8388 380.304 75.2202 380.027 75.5014 379.673C75.7827 379.315 75.9233 378.898 75.9233 378.42C75.9233 377.986 75.8018 377.632 75.5589 377.359C75.3161 377.087 74.9964 376.865 74.6001 376.695C74.2038 376.524 73.7756 376.375 73.3153 376.247L71.7045 375.787C70.6818 375.493 69.8722 375.073 69.2756 374.528C68.679 373.982 68.3807 373.268 68.3807 372.386C68.3807 371.653 68.5788 371.014 68.9751 370.469C69.3757 369.919 69.9126 369.493 70.5859 369.19C71.2635 368.884 72.0199 368.73 72.8551 368.73C73.6989 368.73 74.4489 368.881 75.1051 369.184C75.7614 369.482 76.2813 369.891 76.6648 370.411C77.0526 370.931 77.2571 371.521 77.2784 372.182H75.7443ZM82.7484 382.23C82.1262 382.23 81.5616 382.113 81.0545 381.879C80.5474 381.64 80.1447 381.297 79.8464 380.849C79.5481 380.398 79.399 379.852 79.399 379.213C79.399 378.651 79.5098 378.195 79.7314 377.845C79.9529 377.491 80.2491 377.214 80.6199 377.014C80.9906 376.814 81.3997 376.665 81.8471 376.567C82.2988 376.464 82.7527 376.384 83.2086 376.324C83.8052 376.247 84.2889 376.19 84.6596 376.151C85.0346 376.109 85.3074 376.038 85.4778 375.94C85.6525 375.842 85.7399 375.672 85.7399 375.429V375.378C85.7399 374.747 85.5673 374.257 85.2221 373.908C84.8812 373.558 84.3635 373.384 83.6689 373.384C82.9487 373.384 82.3841 373.541 81.975 373.857C81.5659 374.172 81.2782 374.509 81.112 374.866L79.6802 374.355C79.9359 373.759 80.2768 373.294 80.7029 372.962C81.1333 372.625 81.6021 372.391 82.1092 372.259C82.6206 372.122 83.1234 372.054 83.6177 372.054C83.9331 372.054 84.2953 372.092 84.7044 372.169C85.1177 372.241 85.5162 372.393 85.8997 372.623C86.2875 372.853 86.6092 373.2 86.8649 373.665C87.1206 374.129 87.2484 374.751 87.2484 375.531V382H85.7399V380.67H85.6632C85.5609 380.884 85.3904 381.112 85.1518 381.354C84.9132 381.597 84.5957 381.804 84.1994 381.974C83.8031 382.145 83.3194 382.23 82.7484 382.23ZM82.9785 380.875C83.5751 380.875 84.0779 380.758 84.487 380.523C84.9004 380.289 85.2115 379.987 85.4203 379.616C85.6333 379.245 85.7399 378.855 85.7399 378.446V377.065C85.676 377.142 85.5353 377.212 85.318 377.276C85.1049 377.336 84.8578 377.389 84.5765 377.436C84.2995 377.479 84.0289 377.517 83.7647 377.551C83.5048 377.581 83.2939 377.607 83.1319 377.628C82.7399 377.679 82.3734 377.762 82.0325 377.877C81.6958 377.988 81.4231 378.156 81.2143 378.382C81.0098 378.604 80.9075 378.906 80.9075 379.29C80.9075 379.814 81.1014 380.21 81.4892 380.479C81.8812 380.743 82.3777 380.875 82.9785 380.875ZM97.6786 372.182L94.0479 382H92.5138L88.8832 372.182H90.5195L93.2298 380.006H93.332L96.0423 372.182H97.6786ZM103.435 382.205C102.489 382.205 101.673 381.996 100.987 381.578C100.305 381.156 99.7784 380.568 99.4077 379.814C99.0412 379.055 98.858 378.173 98.858 377.168C98.858 376.162 99.0412 375.276 99.4077 374.509C99.7784 373.737 100.294 373.136 100.955 372.706C101.619 372.271 102.395 372.054 103.281 372.054C103.793 372.054 104.298 372.139 104.796 372.31C105.295 372.48 105.749 372.757 106.158 373.141C106.567 373.52 106.893 374.023 107.136 374.649C107.379 375.276 107.5 376.047 107.5 376.963V377.602H99.9318V376.298H105.966C105.966 375.744 105.855 375.25 105.634 374.815C105.416 374.381 105.105 374.038 104.7 373.786C104.3 373.535 103.827 373.409 103.281 373.409C102.68 373.409 102.161 373.558 101.722 373.857C101.287 374.151 100.952 374.534 100.718 375.007C100.484 375.48 100.366 375.987 100.366 376.528V377.398C100.366 378.139 100.494 378.768 100.75 379.283C101.01 379.795 101.37 380.185 101.83 380.453C102.29 380.717 102.825 380.849 103.435 380.849C103.831 380.849 104.189 380.794 104.509 380.683C104.832 380.568 105.112 380.398 105.346 380.172C105.58 379.942 105.761 379.656 105.889 379.315L107.347 379.724C107.193 380.219 106.935 380.653 106.573 381.028C106.211 381.399 105.763 381.689 105.231 381.898C104.698 382.102 104.099 382.205 103.435 382.205ZM117.746 382.23C117.124 382.23 116.56 382.113 116.053 381.879C115.545 381.64 115.143 381.297 114.844 380.849C114.546 380.398 114.397 379.852 114.397 379.213C114.397 378.651 114.508 378.195 114.729 377.845C114.951 377.491 115.247 377.214 115.618 377.014C115.989 376.814 116.398 376.665 116.845 376.567C117.297 376.464 117.751 376.384 118.207 376.324C118.803 376.247 119.287 376.19 119.658 376.151C120.033 376.109 120.305 376.038 120.476 375.94C120.651 375.842 120.738 375.672 120.738 375.429V375.378C120.738 374.747 120.565 374.257 120.22 373.908C119.879 373.558 119.362 373.384 118.667 373.384C117.947 373.384 117.382 373.541 116.973 373.857C116.564 374.172 116.276 374.509 116.11 374.866L114.678 374.355C114.934 373.759 115.275 373.294 115.701 372.962C116.131 372.625 116.6 372.391 117.107 372.259C117.619 372.122 118.121 372.054 118.616 372.054C118.931 372.054 119.293 372.092 119.702 372.169C120.116 372.241 120.514 372.393 120.898 372.623C121.286 372.853 121.607 373.2 121.863 373.665C122.119 374.129 122.246 374.751 122.246 375.531V382H120.738V380.67H120.661C120.559 380.884 120.388 381.112 120.15 381.354C119.911 381.597 119.594 381.804 119.197 381.974C118.801 382.145 118.317 382.23 117.746 382.23ZM117.977 380.875C118.573 380.875 119.076 380.758 119.485 380.523C119.898 380.289 120.21 379.987 120.418 379.616C120.631 379.245 120.738 378.855 120.738 378.446V377.065C120.674 377.142 120.533 377.212 120.316 377.276C120.103 377.336 119.856 377.389 119.575 377.436C119.298 377.479 119.027 377.517 118.763 377.551C118.503 377.581 118.292 377.607 118.13 377.628C117.738 377.679 117.371 377.762 117.031 377.877C116.694 377.988 116.421 378.156 116.212 378.382C116.008 378.604 115.906 378.906 115.906 379.29C115.906 379.814 116.099 380.21 116.487 380.479C116.879 380.743 117.376 380.875 117.977 380.875ZM126.508 376.094V382H125V372.182H126.457V373.716H126.585C126.815 373.217 127.165 372.817 127.633 372.514C128.102 372.207 128.707 372.054 129.449 372.054C130.113 372.054 130.695 372.19 131.194 372.463C131.692 372.732 132.08 373.141 132.357 373.69C132.634 374.236 132.773 374.926 132.773 375.761V382H131.264V375.864C131.264 375.092 131.064 374.491 130.663 374.061C130.263 373.626 129.713 373.409 129.014 373.409C128.532 373.409 128.102 373.513 127.723 373.722C127.348 373.931 127.052 374.236 126.834 374.636C126.617 375.037 126.508 375.523 126.508 376.094ZM140.592 382V372.182H142.1V382H140.592ZM141.359 370.545C141.065 370.545 140.811 370.445 140.598 370.245C140.389 370.045 140.285 369.804 140.285 369.523C140.285 369.241 140.389 369.001 140.598 368.8C140.811 368.6 141.065 368.5 141.359 368.5C141.653 368.5 141.904 368.6 142.113 368.8C142.326 369.001 142.433 369.241 142.433 369.523C142.433 369.804 142.326 370.045 142.113 370.245C141.904 370.445 141.653 370.545 141.359 370.545ZM146.372 376.094V382H144.863V372.182H146.32V373.716H146.448C146.678 373.217 147.028 372.817 147.497 372.514C147.965 372.207 148.57 372.054 149.312 372.054C149.977 372.054 150.558 372.19 151.057 372.463C151.556 372.732 151.943 373.141 152.22 373.69C152.497 374.236 152.636 374.926 152.636 375.761V382H151.127V375.864C151.127 375.092 150.927 374.491 150.526 374.061C150.126 373.626 149.576 373.409 148.877 373.409C148.396 373.409 147.965 373.513 147.586 373.722C147.211 373.931 146.915 374.236 146.698 374.636C146.48 375.037 146.372 375.523 146.372 376.094ZM156.901 376.094V382H155.392V372.182H156.85V373.716H156.978C157.208 373.217 157.557 372.817 158.026 372.514C158.495 372.207 159.1 372.054 159.841 372.054C160.506 372.054 161.088 372.19 161.586 372.463C162.085 372.732 162.473 373.141 162.75 373.69C163.027 374.236 163.165 374.926 163.165 375.761V382H161.657V375.864C161.657 375.092 161.456 374.491 161.056 374.061C160.655 373.626 160.105 373.409 159.407 373.409C158.925 373.409 158.495 373.513 158.115 373.722C157.74 373.931 157.444 374.236 157.227 374.636C157.01 375.037 156.901 375.523 156.901 376.094ZM169.91 382.205C169.024 382.205 168.246 381.994 167.577 381.572C166.912 381.15 166.393 380.56 166.018 379.801C165.647 379.043 165.461 378.156 165.461 377.142C165.461 376.119 165.647 375.227 166.018 374.464C166.393 373.701 166.912 373.109 167.577 372.687C168.246 372.265 169.024 372.054 169.91 372.054C170.797 372.054 171.572 372.265 172.237 372.687C172.906 373.109 173.426 373.701 173.797 374.464C174.172 375.227 174.359 376.119 174.359 377.142C174.359 378.156 174.172 379.043 173.797 379.801C173.426 380.56 172.906 381.15 172.237 381.572C171.572 381.994 170.797 382.205 169.91 382.205ZM169.91 380.849C170.584 380.849 171.138 380.677 171.572 380.332C172.007 379.987 172.329 379.533 172.537 378.97C172.746 378.408 172.851 377.798 172.851 377.142C172.851 376.486 172.746 375.874 172.537 375.308C172.329 374.741 172.007 374.283 171.572 373.933C171.138 373.584 170.584 373.409 169.91 373.409C169.237 373.409 168.683 373.584 168.248 373.933C167.814 374.283 167.492 374.741 167.283 375.308C167.074 375.874 166.97 376.486 166.97 377.142C166.97 377.798 167.074 378.408 167.283 378.97C167.492 379.533 167.814 379.987 168.248 380.332C168.683 380.677 169.237 380.849 169.91 380.849ZM180.651 382.205C179.73 382.205 178.938 381.987 178.273 381.553C177.608 381.118 177.097 380.519 176.739 379.756C176.381 378.994 176.202 378.122 176.202 377.142C176.202 376.145 176.385 375.265 176.751 374.502C177.122 373.735 177.638 373.136 178.298 372.706C178.963 372.271 179.739 372.054 180.625 372.054C181.315 372.054 181.938 372.182 182.491 372.438C183.045 372.693 183.499 373.051 183.853 373.511C184.207 373.972 184.426 374.509 184.511 375.122H183.003C182.888 374.675 182.632 374.278 182.236 373.933C181.844 373.584 181.315 373.409 180.651 373.409C180.063 373.409 179.547 373.562 179.104 373.869C178.665 374.172 178.322 374.6 178.075 375.154C177.832 375.704 177.71 376.349 177.71 377.091C177.71 377.849 177.83 378.51 178.068 379.072C178.311 379.635 178.652 380.072 179.091 380.383C179.534 380.694 180.054 380.849 180.651 380.849C181.043 380.849 181.398 380.781 181.718 380.645C182.038 380.509 182.308 380.312 182.53 380.057C182.751 379.801 182.909 379.494 183.003 379.136H184.511C184.426 379.716 184.215 380.238 183.879 380.702C183.546 381.163 183.105 381.529 182.555 381.802C182.01 382.07 181.375 382.205 180.651 382.205ZM190.833 382.205C189.887 382.205 189.071 381.996 188.385 381.578C187.703 381.156 187.177 380.568 186.806 379.814C186.44 379.055 186.256 378.173 186.256 377.168C186.256 376.162 186.44 375.276 186.806 374.509C187.177 373.737 187.692 373.136 188.353 372.706C189.018 372.271 189.793 372.054 190.68 372.054C191.191 372.054 191.696 372.139 192.195 372.31C192.693 372.48 193.147 372.757 193.556 373.141C193.965 373.52 194.291 374.023 194.534 374.649C194.777 375.276 194.898 376.047 194.898 376.963V377.602H187.33V376.298H193.364C193.364 375.744 193.254 375.25 193.032 374.815C192.815 374.381 192.504 374.038 192.099 373.786C191.698 373.535 191.225 373.409 190.68 373.409C190.079 373.409 189.559 373.558 189.12 373.857C188.685 374.151 188.351 374.534 188.116 375.007C187.882 375.48 187.765 375.987 187.765 376.528V377.398C187.765 378.139 187.893 378.768 188.148 379.283C188.408 379.795 188.768 380.185 189.229 380.453C189.689 380.717 190.224 380.849 190.833 380.849C191.229 380.849 191.587 380.794 191.907 380.683C192.231 380.568 192.51 380.398 192.744 380.172C192.979 379.942 193.16 379.656 193.288 379.315L194.745 379.724C194.592 380.219 194.334 380.653 193.972 381.028C193.609 381.399 193.162 381.689 192.629 381.898C192.097 382.102 191.498 382.205 190.833 382.205ZM198.702 376.094V382H197.193V372.182H198.651V373.716H198.778C199.009 373.217 199.358 372.817 199.827 372.514C200.295 372.207 200.901 372.054 201.642 372.054C202.307 372.054 202.888 372.19 203.387 372.463C203.886 372.732 204.273 373.141 204.55 373.69C204.827 374.236 204.966 374.926 204.966 375.761V382H203.457V375.864C203.457 375.092 203.257 374.491 202.857 374.061C202.456 373.626 201.906 373.409 201.207 373.409C200.726 373.409 200.295 373.513 199.916 373.722C199.541 373.931 199.245 374.236 199.028 374.636C198.81 375.037 198.702 375.523 198.702 376.094ZM211.992 372.182V373.46H206.904V372.182H211.992ZM208.387 369.83H209.896V379.188C209.896 379.614 209.958 379.933 210.081 380.146C210.209 380.355 210.371 380.496 210.567 380.568C210.767 380.636 210.978 380.67 211.2 380.67C211.366 380.67 211.502 380.662 211.609 380.645C211.715 380.624 211.801 380.607 211.865 380.594L212.171 381.949C212.069 381.987 211.926 382.026 211.743 382.064C211.56 382.107 211.328 382.128 211.046 382.128C210.62 382.128 210.203 382.036 209.794 381.853C209.389 381.67 209.052 381.391 208.784 381.016C208.519 380.641 208.387 380.168 208.387 379.597V369.83ZM219.529 382V368.909H221.114V380.594H227.199V382H219.529ZM229.449 382V372.182H230.958V382H229.449ZM230.216 370.545C229.922 370.545 229.669 370.445 229.455 370.245C229.247 370.045 229.142 369.804 229.142 369.523C229.142 369.241 229.247 369.001 229.455 368.8C229.669 368.6 229.922 368.5 230.216 368.5C230.51 368.5 230.762 368.6 230.97 368.8C231.183 369.001 231.29 369.241 231.29 369.523C231.29 369.804 231.183 370.045 230.97 370.245C230.762 370.445 230.51 370.545 230.216 370.545ZM238.093 372.182V373.46H232.8V372.182H238.093ZM234.385 382V370.827C234.385 370.264 234.517 369.795 234.782 369.42C235.046 369.045 235.389 368.764 235.811 368.577C236.233 368.389 236.678 368.295 237.147 368.295C237.517 368.295 237.82 368.325 238.054 368.385C238.289 368.445 238.463 368.5 238.578 368.551L238.144 369.855C238.067 369.83 237.961 369.798 237.824 369.759C237.692 369.721 237.517 369.702 237.3 369.702C236.801 369.702 236.441 369.827 236.22 370.079C236.002 370.33 235.894 370.699 235.894 371.185V382H234.385ZM243.919 382.205C242.973 382.205 242.157 381.996 241.471 381.578C240.789 381.156 240.263 380.568 239.892 379.814C239.526 379.055 239.342 378.173 239.342 377.168C239.342 376.162 239.526 375.276 239.892 374.509C240.263 373.737 240.778 373.136 241.439 372.706C242.104 372.271 242.879 372.054 243.766 372.054C244.277 372.054 244.782 372.139 245.281 372.31C245.779 372.48 246.233 372.757 246.642 373.141C247.051 373.52 247.377 374.023 247.62 374.649C247.863 375.276 247.984 376.047 247.984 376.963V377.602H240.416V376.298H246.45C246.45 375.744 246.339 375.25 246.118 374.815C245.901 374.381 245.589 374.038 245.185 373.786C244.784 373.535 244.311 373.409 243.766 373.409C243.165 373.409 242.645 373.558 242.206 373.857C241.771 374.151 241.437 374.534 241.202 375.007C240.968 375.48 240.851 375.987 240.851 376.528V377.398C240.851 378.139 240.979 378.768 241.234 379.283C241.494 379.795 241.854 380.185 242.315 380.453C242.775 380.717 243.31 380.849 243.919 380.849C244.315 380.849 244.673 380.794 244.993 380.683C245.317 380.568 245.596 380.398 245.83 380.172C246.065 379.942 246.246 379.656 246.374 379.315L247.831 379.724C247.678 380.219 247.42 380.653 247.058 381.028C246.695 381.399 246.248 381.689 245.715 381.898C245.183 382.102 244.584 382.205 243.919 382.205Z" fill="#4C5359"/>
<path d="M33.5096 343.922C36.4904 340.768 33.4727 334.241 30.4082 331.344C27.8545 328.93 23.6435 327.246 21.3505 329.671C18.3697 332.824 21.3874 339.352 24.4519 342.249C27.0057 344.663 31.2166 346.347 33.5096 343.922V343.922ZM24.7964 353.138C27.0893 350.713 25.1713 346.603 22.6176 344.189C19.2977 341.051 12.6112 338.404 9.6304 341.557C7.33745 343.983 9.25546 348.092 11.8092 350.507C14.8998 353.888 21.5862 356.534 24.7964 353.138V353.138ZM39.2105 332.776C36.2296 335.929 38.7627 342.457 42.0826 345.596C44.3809 347.768 47.5965 348.971 49.6601 346.788C52.641 343.635 50.1079 337.106 46.788 333.968C44.4897 331.795 41.0448 330.835 39.2105 332.776V332.776ZM27.1784 361.361C23.8585 358.223 16.9688 356.303 14.2173 359.213C12.1536 361.396 13.5348 364.539 15.8332 366.712C19.153 369.851 26.0427 371.771 28.7943 368.86C30.8579 366.677 29.4767 363.534 27.1784 361.361ZM34.0051 353.117C29.4192 357.968 31.4001 372.242 37.0184 377.553C39.5721 379.968 41.9433 378.994 43.7777 377.054C46.5292 374.143 46.5499 370.029 49.0721 367.361C51.3651 364.935 55.4717 364.684 57.994 362.016C59.8283 360.075 61.3812 357.409 58.5721 354.754C52.9539 349.443 38.591 348.266 34.0051 353.117V353.117Z" fill="#4C5359"/>
<!-- <defs>
<linearGradient id="paint0_linear_109_2" x1="199.463" y1="104.654" x2="199.463" y2="188.786" gradientUnits="userSpaceOnUse">
<stop offset="0.5993" stop-color="#F9DDBD"/>
<stop offset="1" stop-color="#FFD29C"/>
</linearGradient>
<linearGradient id="paint1_linear_109_2" x1="101.49" y1="104.654" x2="101.49" y2="188.786" gradientUnits="userSpaceOnUse">
<stop offset="0.5993" stop-color="#F9DDBD"/>
<stop offset="1" stop-color="#FFD29C"/>
</linearGradient>
<radialGradient id="paint2_radial_109_2" cx="0" cy="0" r="1" gradientUnits="userSpaceOnUse" gradientTransform="translate(150.473 53.7899) scale(56.6893 54.7642)">
<stop offset="0.7936" stop-color="#454140" stop-opacity="0"/>
<stop offset="1" stop-color="#454140"/>
</radialGradient>
<linearGradient id="paint3_linear_109_2" x1="150.516" y1="86.3927" x2="150.516" y2="159.325" gradientUnits="userSpaceOnUse">
<stop stop-color="#651FFF"/>
<stop offset="0.7047" stop-color="#5914F2"/>
<stop offset="1" stop-color="#530EEB"/>
</linearGradient>
<radialGradient id="paint4_radial_109_2" cx="0" cy="0" r="1" gradientUnits="userSpaceOnUse" gradientTransform="translate(150.871 57.6918) scale(59.3822 58.4936)">
<stop offset="0.7945" stop-color="#454140" stop-opacity="0"/>
<stop offset="1" stop-color="#454140"/>
</radialGradient>
</defs> -->
</svg>
