<svg width="278" height="370" viewBox="0 0 278 370" fill="none" xmlns="http://www.w3.org/2000/svg">
<path d="M205.36 209.634C205.36 209.634 203.403 214.177 204.549 218.998C205.705 223.818 207.318 228.27 207.318 228.27C207.318 228.27 207.662 237.726 207.318 238.747C206.974 239.768 204.32 241.065 204.32 242.922C204.32 244.779 205.164 247.123 209.432 247.683C213.7 248.243 217.157 247.097 218.583 245.708C220.639 243.699 220.238 242.277 220.238 240.795C220.238 239.313 220.352 230.785 220.811 229.481C221.27 228.184 221.966 227.44 223.236 227.532C224.506 227.624 225.89 229.198 226.005 232.168C226.12 235.132 226.234 240.327 226.12 241.348C226.005 242.369 224.85 245.8 225.776 247.189C226.701 248.579 230.888 249.929 234.115 249.784C238.343 249.599 240.882 247.466 241.112 245.8C241.341 244.134 239.956 240.327 239.956 239.214C239.956 238.102 241.57 230.502 242.029 230.035C242.488 229.574 243.897 229.672 246.985 228.553C249.795 227.532 251.295 226.512 251.295 226.512C251.295 226.512 251.368 233.097 251.254 233.834C251.139 234.578 248.37 236.896 248.829 238.655C249.288 240.413 251.991 241.44 254.399 241.618C258.471 241.928 262.436 239.392 263.468 237.166C264.509 234.941 264.042 232.162 263.812 230.68C263.583 229.198 263.583 224.003 263.812 222.613C264.042 221.224 264.419 220.381 264.566 219.65C264.796 218.445 264.738 217.101 264.738 217.101C264.738 217.101 268.72 217.101 271.079 215.85C273.438 214.599 275.921 212.419 277.018 209.732C278.092 207.105 277.829 206.301 276.904 206.209C275.978 206.117 271.833 210.793 268.31 210.937C262.715 211.168 263.272 206.348 259.004 203.43C254.195 200.138 246.699 199.723 246.699 199.723C246.699 199.723 247.993 195.831 248.01 192.953C248.067 180.389 240.456 176.128 240.456 176.128C240.456 176.128 231.305 170.649 220.926 171.018C210.546 171.387 202.936 178.018 202.936 178.018L197.226 198.274C197.226 198.274 198.667 202.166 200.978 204.998C203.403 207.961 205.36 209.634 205.36 209.634V209.634Z" fill="#FFD2B1"/>
<path d="M198.151 173.527C189.672 173.665 185.191 179.473 185.06 183.029C184.986 185.117 183.962 200.289 194.399 200.599C198.585 200.724 201.698 196.819 203.28 192.393C205.27 186.816 205.18 181.225 205.41 179.737C205.778 177.359 206.393 175.614 206.393 175.614C206.393 175.614 205.36 173.408 198.151 173.527Z" fill="#865B52"/>
<path d="M243.536 171.209C252.761 171.485 255.907 174.771 256.8 176.681C257.783 178.769 258.643 186.216 257.201 191.188C256.03 195.245 254.26 197.306 250.107 197.168C246.305 197.043 244.38 192.637 241.513 186.645C238.744 180.85 236.622 175.66 236.262 174.916C235.803 173.942 234.82 173.527 234.82 173.527C234.82 173.527 236.663 170.998 243.536 171.209V171.209Z" fill="#865B52"/>
<path d="M232.985 186.269C228.43 186.5 226.251 190.569 227.218 194.659C228.258 199.064 231.854 201.152 236.385 200.684C241.341 200.177 242.84 195.633 242.209 192.202C241.628 189.081 239.432 185.94 232.985 186.269V186.269Z" fill="#D27856"/>
<path d="M238.343 193.73C238.343 195.653 237.015 197.26 234.91 197.214C232.051 197.148 231.305 195.113 231.363 193.401C231.428 191.399 232.919 190.451 235.049 190.497C236.95 190.53 238.343 191.807 238.343 193.73Z" fill="#060401"/>
<path d="M214.298 194.79C214.298 196.792 212.971 198.465 210.866 198.412C208.007 198.347 207.261 196.226 207.318 194.441C207.384 192.354 209.162 191.465 210.833 191.564C212.725 191.676 214.298 192.789 214.298 194.79V194.79Z" fill="#060401"/>
<path d="M225.251 205.972C225.251 205.972 230.265 205.557 230.036 202.634C229.806 199.716 226.406 199.525 223.752 199.571C221.098 199.618 217.297 200.73 217.698 203.187C218.099 205.643 222.425 205.966 222.425 205.966C222.425 205.966 222.417 207.783 220.926 207.915C219.312 208.053 217.002 206.058 216.371 205.551C215.74 205.044 214.757 205.228 214.413 205.643C214.069 206.058 214.298 206.986 215.281 207.777C216.264 208.567 218.566 210.556 220.877 210.371C223.187 210.187 223.244 209.212 224.162 209.166C225.087 209.12 225.03 210.233 227.332 210.187C228.954 210.154 232.223 207.862 232.813 207.454C234.14 206.525 234.484 205.597 233.911 204.998C233.337 204.398 231.723 205.274 230.855 205.788C229.986 206.295 228.586 207.493 227.226 207.691C224.965 208.014 225.251 205.972 225.251 205.972V205.972Z" fill="#060401"/>
<path d="M245.724 201.626C245.724 201.626 244.634 203.549 243.725 205.09C242.627 206.947 241.054 208.567 241.054 208.567C241.054 208.567 242.832 218.339 253.408 217.496C257.193 217.193 260.06 214.81 260.331 212.281C260.789 208.014 258.774 206.018 255.645 204.069C250.574 200.921 245.724 201.626 245.724 201.626Z" fill="#D27856"/>
<path d="M238.4 216.91C236.524 218.293 237.532 220.894 240.014 221.178C242.496 221.454 243.831 219.795 243.643 218.537C243.364 216.588 240.538 215.336 238.4 216.91V216.91Z" fill="#D27856"/>
<path d="M213.897 214.342C213.897 214.342 212.242 217.99 215.74 222.56C217.231 224.503 220.549 225.596 222.892 225.524C225.366 225.451 227.602 224.76 229.519 222.837C232.575 219.775 231.707 214.678 231.707 214.678C231.707 214.678 226.865 216.278 222.425 216.16C217.698 216.041 213.897 214.342 213.897 214.342V214.342Z" fill="#D27856"/>
<path d="M207.859 242.263C206.655 241.967 206.171 243.469 206.089 244.423C206.008 245.378 206.016 246.616 207.089 246.926C208.162 247.235 207.949 245.398 208.047 244.792C208.244 243.627 209.129 242.573 207.859 242.263Z" fill="#D27856"/>
<path d="M212.586 242.823C211.865 242.797 211.103 243.383 211.013 245.082C210.939 246.504 211.013 247.677 212.013 247.742C213.356 247.828 212.979 246.445 213.053 245.299C213.086 244.647 214.085 242.882 212.586 242.823V242.823Z" fill="#D27856"/>
<path d="M230.929 244.674C229.773 244.674 229.741 245.727 229.741 246.867C229.741 248.012 229.446 249.428 230.74 249.553C232.313 249.705 232.01 248.006 232.01 247.051C232.002 246.221 232.19 244.674 230.929 244.674V244.674Z" fill="#D27856"/>
<path d="M236.155 244.463C235.229 244.614 235.311 245.635 235.344 246.873C235.385 248.111 235.156 249.422 236.458 249.316C237.572 249.224 237.499 247.769 237.458 246.656C237.425 245.694 237.581 244.219 236.155 244.463V244.463Z" fill="#D27856"/>
<path d="M251.991 236.409C251.196 236.284 250.295 236.824 250.066 238.266C249.877 239.504 249.951 240.591 251.295 240.828C251.983 240.953 252.106 239.53 252.138 238.51C252.179 237.627 252.99 236.567 251.991 236.409Z" fill="#D27856"/>
<path d="M256.333 237.16C255.571 237.061 254.825 237.436 254.629 238.971C254.514 239.866 254.104 241.473 255.489 241.532C256.562 241.572 256.48 240.156 256.579 239.419C256.734 238.253 257.586 237.331 256.333 237.16Z" fill="#D27856"/>
<path d="M10.3113 212.076C10.0511 210.813 9.92092 209.55 10.0511 208.412C10.0511 206.896 10.4414 205.633 11.2222 204.369C12.003 202.979 13.3043 201.842 14.7358 201.211C16.1673 200.452 17.9891 200.2 19.6808 200.452C21.2424 200.579 22.804 201.211 24.1053 202.095C25.2765 202.853 26.3175 203.864 27.2285 205.001C28.6599 206.896 29.701 209.17 30.2215 211.824V212.203C30.4818 213.845 29.4407 215.361 27.749 215.867C27.4887 215.993 27.2285 215.993 26.9682 215.993C25.9271 216.12 25.0162 215.867 24.2354 215.235C23.4546 214.603 22.9341 213.845 22.804 212.835C22.5437 211.066 22.1533 209.55 21.3725 208.412C20.7219 207.275 19.6808 206.391 18.6398 206.138C18.2494 206.012 17.7288 206.012 17.3384 206.138C16.8179 206.264 16.4275 206.644 16.1673 207.023C15.7769 207.528 15.5166 208.033 15.5166 208.791C15.3865 209.55 15.3865 210.308 15.5166 211.066C15.7769 212.582 16.2974 214.351 17.2083 216.12C17.5987 216.878 18.1192 217.762 18.6398 218.647C19.1603 219.531 19.8109 220.289 20.3315 220.921C21.7629 222.563 23.0642 223.827 24.4957 224.838C26.1874 225.975 27.8791 226.733 29.5708 226.985C31.2626 227.238 33.2145 227.238 35.1665 226.606C36.7281 226.227 37.639 226.733 37.8993 227.491C38.1595 228.123 37.7691 229.133 36.2076 229.639H36.0774C33.7351 230.397 31.2626 230.65 29.0503 230.27C26.8381 230.018 24.4957 229.007 22.2834 227.744C20.4616 226.606 18.9 225.09 17.2083 223.321C16.5576 222.563 15.907 221.805 15.3865 221.173L15.1262 220.794C14.3454 219.91 13.6947 219.026 13.1742 218.141C11.6126 216.12 10.7017 214.098 10.3113 212.076M68.0899 237.093C70.4323 239.999 80.7127 237.093 82.4044 233.808C89.1712 220.415 82.4044 214.603 82.4044 214.603L68.0899 216.499C68.0899 216.625 65.227 233.556 68.0899 237.093Z" fill="#3E4347"/>
<path d="M48.7002 237.093C46.3579 239.999 36.0774 237.093 34.3857 233.808C27.6189 220.415 34.3857 214.603 34.3857 214.603L48.7002 216.499C48.7002 216.625 51.6933 233.556 48.7002 237.093" fill="#3E4347"/>
<path d="M52.2138 236.209C52.0837 237.598 48.8304 238.357 44.9264 237.978C41.0225 237.598 38.0294 236.335 38.0294 234.945C38.1596 233.555 41.1526 235.324 45.0566 235.577C49.0907 236.082 52.344 234.945 52.2138 236.209ZM64.5764 236.209C64.7065 237.598 67.9598 238.357 71.8637 237.978C75.7677 237.598 78.7607 236.335 78.7607 234.945C78.6306 233.555 75.6376 235.324 71.7336 235.577C67.6995 236.082 64.4462 234.945 64.5764 236.209Z" fill="white"/>
<path d="M58.33 242.779C60.9326 245.558 69.9117 245.432 72.7746 242.779C76.6786 238.988 76.5484 221.679 76.6786 213.34L59.7614 211.95C59.8915 211.95 55.0767 239.115 58.33 242.779" fill="#4C5359"/>
<path d="M58.4601 242.779C55.8574 245.558 46.8783 245.432 44.0154 242.779C40.1115 238.988 40.2416 221.679 40.1115 213.34L57.0286 211.95C57.0286 211.95 61.7134 239.115 58.4601 242.779" fill="#4C5359"/>
<path d="M51.5631 221.679L58.4601 235.83L65.3571 221.679H51.5631Z" fill="white"/>
<path d="M85.2673 169.245C82.1441 167.476 66.0078 175.688 62.7545 181.248L86.0481 194.641C89.1713 189.208 88.2603 170.887 85.2673 169.245" fill="#4C5359"/>
<path d="M80.4524 177.584C79.2812 176.952 69.7816 181.121 67.9597 184.154L80.9729 191.608C82.6647 188.702 81.4935 178.215 80.4524 177.584" fill="#F7A4A4"/>
<path d="M31.653 169.245C28.5299 171.014 27.619 189.081 30.8723 194.641L54.1659 181.248C51.0427 175.815 34.6461 167.476 31.653 169.245V169.245Z" fill="#4C5359"/>
<path d="M36.5979 177.584C35.4267 178.216 34.2555 188.576 36.0774 191.608L48.9604 184.154C47.2687 181.248 37.639 176.952 36.5979 177.584" fill="#F7A4A4"/>
<path d="M58.4601 178.342C31.3926 178.342 28.79 196.788 28.79 207.023C28.79 211.318 42.0634 224.585 58.3299 224.585C74.7265 224.585 88 211.318 88 207.023C88 196.788 85.3974 178.342 58.4601 178.342" fill="#4C5359"/>
<path d="M50.9125 202.474C50.9125 202.474 47.7894 207.022 42.0636 205.633C36.3377 204.243 36.0775 198.81 36.0775 198.81C36.0775 198.81 39.2006 194.261 44.9265 195.651C50.6523 197.167 50.9125 202.474 50.9125 202.474Z" fill="#BFFFAB"/>
<path d="M50.2618 200.2C50.2618 200.2 47.529 203.106 43.7552 203.106C39.7211 203.106 37.2486 197.547 37.2486 197.547C37.2486 197.547 39.9813 194.514 44.7962 195.778C49.3508 196.789 50.2618 200.2 50.2618 200.2" fill="#93E67F"/>
<path d="M46.0976 200.073C46.0976 206.264 42.9744 206.264 42.9744 200.073C42.9744 193.882 46.0976 193.882 46.0976 200.073Z" fill="#4C5359"/>
<path d="M66.0078 202.474C66.0078 202.474 69.131 207.022 74.8568 205.633C80.5826 204.243 80.8429 198.81 80.8429 198.81C80.8429 198.81 77.7197 194.261 71.9939 195.651C66.2681 197.167 66.0078 202.474 66.0078 202.474Z" fill="#BFFFAB"/>
<path d="M66.5283 200.2C66.5283 200.2 69.2611 203.106 73.0349 203.106C77.069 203.106 79.5415 197.547 79.5415 197.547C79.5415 197.547 76.8087 194.514 71.9938 195.778C67.4392 196.789 66.5283 200.2 66.5283 200.2" fill="#93E67F"/>
<path d="M70.6925 200.073C70.6925 206.264 73.8157 206.264 73.8157 200.073C73.9458 193.882 70.6925 193.882 70.6925 200.073Z" fill="#4C5359"/>
<path d="M67.0488 207.528C64.4461 205.633 61.5832 199.315 58.4601 199.315C55.3369 199.315 52.3439 205.633 49.8714 207.528C45.8373 210.56 34.9062 213.972 34.9062 213.972C34.9062 213.972 46.4879 223.574 58.4601 223.574C70.4322 223.574 82.0139 213.972 82.0139 213.972C82.0139 213.972 71.0829 210.56 67.0488 207.528Z" fill="white"/>
<path d="M66.7886 216.119C65.8776 216.625 64.7064 216.878 63.6654 216.878C62.6243 216.751 61.5833 216.499 60.8025 215.867C60.0217 215.235 59.371 214.351 59.2409 213.466L58.4601 209.297L57.6793 213.466C57.5492 214.477 56.8985 215.235 56.1177 215.867C55.337 216.499 54.2959 216.878 53.2548 216.878C52.0837 216.878 51.0426 216.751 50.1317 216.119C49.2208 215.614 48.3098 214.73 47.9194 213.593C47.9194 214.856 48.7002 215.993 49.6111 216.751C50.5221 217.509 51.9535 218.015 53.1247 218.141C54.426 218.267 55.7273 217.888 56.8985 217.13C57.5492 216.751 57.9396 216.246 58.4601 215.614C58.8505 216.246 59.371 216.751 60.0217 217.13C61.1929 217.888 62.4942 218.267 63.7955 218.141C65.0968 218.141 66.3982 217.636 67.3091 216.751C68.3501 215.993 69.0008 214.73 69.0008 213.593C68.6104 214.73 67.8296 215.614 66.7886 216.119" fill="#4C5359"/>
<path d="M62.4942 208.286C61.7134 207.402 59.2409 207.275 58.4601 207.275C57.6793 207.275 55.2068 207.402 54.426 208.286C53.9054 208.918 54.2958 210.56 55.8574 212.076C56.7683 212.961 57.6793 213.214 58.4601 213.214C59.2409 213.214 60.1518 212.961 61.0627 212.076C62.6243 210.56 63.0147 208.918 62.4942 208.286Z" fill="#4C5359"/>
<path d="M58.0697 241.768C58.0697 243.158 55.0767 244.169 51.3029 244.169C47.529 244.169 44.536 243.032 44.536 241.768C44.536 240.378 47.529 241.894 51.3029 241.894C54.9466 241.894 58.0697 240.505 58.0697 241.768ZM72.2541 241.768C72.2541 243.158 69.2611 244.169 65.4872 244.169C61.7134 244.169 58.7204 243.032 58.7204 241.768C58.7204 240.378 61.7134 241.894 65.4872 241.894C69.2611 241.894 72.2541 240.505 72.2541 241.768Z" fill="white"/>
<path d="M45.8373 243.79L47.6592 240.757L47.1387 244.295L45.8373 243.79ZM50.392 244.801L51.0426 240.631L51.6933 244.801H50.392ZM55.4671 244.295L54.9466 241.01L56.7684 243.916L55.4671 244.295ZM69.7816 244.295L69.2611 240.757L71.0829 243.79L69.7816 244.295ZM65.0969 244.801L65.7475 240.631L66.3982 244.801H65.0969ZM60.0217 243.916L61.8436 241.01L61.323 244.295L60.0217 243.916Z" fill="#3E4347"/>
<path d="M75.6797 319.698C75.6797 319.063 75.582 318.494 75.3867 317.989C75.2077 317.468 74.8659 316.996 74.3613 316.573C73.8568 316.134 73.1488 315.702 72.2373 315.279C71.3258 314.856 70.1458 314.417 68.6973 313.961C67.0859 313.44 65.556 312.854 64.1074 312.203C62.6751 311.552 61.4056 310.795 60.2988 309.933C59.2083 309.054 58.3457 308.036 57.7109 306.881C57.0924 305.725 56.7832 304.382 56.7832 302.853C56.7832 301.371 57.1087 300.029 57.7598 298.824C58.4108 297.604 59.3223 296.562 60.4941 295.699C61.666 294.82 63.0495 294.145 64.6445 293.673C66.2559 293.201 68.0218 292.965 69.9424 292.965C72.5628 292.965 74.8496 293.437 76.8027 294.381C78.7559 295.325 80.2695 296.619 81.3438 298.263C82.4342 299.907 82.9795 301.786 82.9795 303.902H75.7041C75.7041 302.861 75.4844 301.949 75.0449 301.168C74.6217 300.37 73.9707 299.744 73.0918 299.288C72.2292 298.832 71.1387 298.604 69.8203 298.604C68.5508 298.604 67.4928 298.8 66.6465 299.19C65.8001 299.565 65.1654 300.077 64.7422 300.729C64.319 301.363 64.1074 302.079 64.1074 302.877C64.1074 303.479 64.2539 304.024 64.5469 304.513C64.8561 305.001 65.3118 305.457 65.9141 305.88C66.5163 306.303 67.2568 306.702 68.1357 307.076C69.0146 307.451 70.0319 307.817 71.1875 308.175C73.1243 308.761 74.8252 309.42 76.29 310.152C77.7712 310.885 79.0081 311.707 80.001 312.618C80.9938 313.53 81.7425 314.563 82.2471 315.719C82.7516 316.874 83.0039 318.185 83.0039 319.649C83.0039 321.196 82.7028 322.579 82.1006 323.8C81.4984 325.021 80.6276 326.054 79.4883 326.9C78.349 327.747 76.9899 328.39 75.4111 328.829C73.8324 329.269 72.0664 329.488 70.1133 329.488C68.3555 329.488 66.6221 329.26 64.9131 328.805C63.2041 328.333 61.6497 327.625 60.25 326.681C58.8665 325.737 57.7598 324.532 56.9297 323.067C56.0996 321.603 55.6846 319.869 55.6846 317.867H63.0332C63.0332 318.974 63.2041 319.91 63.5459 320.675C63.8877 321.44 64.3678 322.058 64.9863 322.53C65.6211 323.002 66.3698 323.344 67.2324 323.556C68.1113 323.767 69.0716 323.873 70.1133 323.873C71.3828 323.873 72.4245 323.694 73.2383 323.336C74.0684 322.978 74.6787 322.481 75.0693 321.847C75.4762 321.212 75.6797 320.496 75.6797 319.698ZM99.7031 329.488C97.6523 329.488 95.8132 329.163 94.1855 328.512C92.5579 327.844 91.1745 326.925 90.0352 325.753C88.9121 324.581 88.0495 323.222 87.4473 321.676C86.8451 320.113 86.5439 318.453 86.5439 316.695V315.719C86.5439 313.717 86.8288 311.886 87.3984 310.226C87.9681 308.565 88.7819 307.125 89.8398 305.904C90.9141 304.684 92.2161 303.748 93.7461 303.097C95.276 302.429 97.0013 302.096 98.9219 302.096C100.794 302.096 102.454 302.405 103.902 303.023C105.351 303.642 106.563 304.521 107.54 305.66C108.533 306.799 109.282 308.167 109.786 309.762C110.291 311.34 110.543 313.098 110.543 315.035V317.965H89.5469V313.277H103.634V312.74C103.634 311.764 103.455 310.893 103.097 310.128C102.755 309.347 102.234 308.728 101.534 308.272C100.834 307.817 99.9391 307.589 98.8486 307.589C97.9209 307.589 97.1234 307.792 96.4561 308.199C95.7887 308.606 95.2435 309.176 94.8203 309.908C94.4134 310.641 94.1042 311.503 93.8926 312.496C93.6973 313.473 93.5996 314.547 93.5996 315.719V316.695C93.5996 317.753 93.7461 318.73 94.0391 319.625C94.3483 320.52 94.7796 321.293 95.333 321.944C95.9027 322.595 96.5863 323.1 97.3838 323.458C98.1976 323.816 99.1172 323.995 100.143 323.995C101.412 323.995 102.592 323.751 103.683 323.263C104.789 322.758 105.742 322.001 106.539 320.992L109.957 324.703C109.404 325.501 108.647 326.266 107.687 326.998C106.743 327.73 105.603 328.333 104.269 328.805C102.934 329.26 101.412 329.488 99.7031 329.488ZM122.091 322.164L127.584 302.584H132.052L130.611 310.274L125.118 329H121.383L122.091 322.164ZM119.308 302.584L123.238 322.14L123.604 329H119.21L112.521 302.584H119.308ZM137.081 321.822L140.914 302.584H147.726L141.036 329H136.666L137.081 321.822ZM132.662 302.584L138.131 322.018L138.888 329H135.128L129.635 310.299L128.243 302.584H132.662ZM165.523 323.043V311.275C165.523 310.429 165.385 309.705 165.108 309.103C164.832 308.484 164.4 308.004 163.814 307.662C163.245 307.32 162.504 307.149 161.593 307.149C160.812 307.149 160.136 307.288 159.566 307.564C158.997 307.825 158.557 308.207 158.248 308.712C157.939 309.2 157.784 309.778 157.784 310.445H150.753C150.753 309.322 151.013 308.256 151.534 307.247C152.055 306.238 152.812 305.351 153.805 304.586C154.798 303.805 155.978 303.194 157.345 302.755C158.728 302.315 160.274 302.096 161.983 302.096C164.034 302.096 165.857 302.438 167.452 303.121C169.047 303.805 170.3 304.83 171.212 306.197C172.14 307.564 172.604 309.273 172.604 311.324V322.628C172.604 324.076 172.693 325.265 172.872 326.192C173.051 327.104 173.312 327.901 173.653 328.585V329H166.549C166.207 328.284 165.947 327.389 165.768 326.314C165.605 325.224 165.523 324.133 165.523 323.043ZM166.451 312.911L166.5 316.891H162.569C161.642 316.891 160.836 316.996 160.152 317.208C159.469 317.42 158.907 317.721 158.468 318.111C158.028 318.486 157.703 318.925 157.491 319.43C157.296 319.934 157.198 320.488 157.198 321.09C157.198 321.692 157.337 322.237 157.613 322.726C157.89 323.198 158.289 323.572 158.81 323.849C159.33 324.109 159.941 324.239 160.641 324.239C161.699 324.239 162.618 324.028 163.399 323.604C164.181 323.181 164.783 322.66 165.206 322.042C165.646 321.424 165.873 320.838 165.89 320.284L167.745 323.263C167.485 323.93 167.127 324.622 166.671 325.338C166.231 326.054 165.67 326.729 164.986 327.364C164.303 327.983 163.481 328.495 162.521 328.902C161.56 329.293 160.421 329.488 159.103 329.488C157.426 329.488 155.904 329.155 154.537 328.487C153.186 327.804 152.112 326.868 151.314 325.68C150.533 324.475 150.143 323.108 150.143 321.578C150.143 320.195 150.403 318.966 150.924 317.892C151.445 316.817 152.21 315.914 153.219 315.182C154.244 314.433 155.522 313.871 157.052 313.497C158.582 313.106 160.356 312.911 162.374 312.911H166.451ZM184.908 308.224V329H177.877V302.584H184.469L184.908 308.224ZM183.883 314.864H181.979C181.979 312.911 182.231 311.153 182.735 309.591C183.24 308.012 183.948 306.669 184.859 305.562C185.771 304.439 186.853 303.585 188.106 302.999C189.376 302.397 190.792 302.096 192.354 302.096C193.591 302.096 194.723 302.275 195.748 302.633C196.773 302.991 197.652 303.561 198.385 304.342C199.133 305.123 199.703 306.157 200.094 307.442C200.501 308.728 200.704 310.299 200.704 312.154V329H193.624V312.13C193.624 310.958 193.461 310.047 193.136 309.396C192.81 308.744 192.33 308.289 191.695 308.028C191.077 307.752 190.312 307.613 189.4 307.613C188.456 307.613 187.634 307.8 186.935 308.175C186.251 308.549 185.681 309.07 185.226 309.737C184.786 310.388 184.452 311.153 184.225 312.032C183.997 312.911 183.883 313.855 183.883 314.864ZM220.309 323.043V311.275C220.309 310.429 220.17 309.705 219.894 309.103C219.617 308.484 219.186 308.004 218.6 307.662C218.03 307.32 217.289 307.149 216.378 307.149C215.597 307.149 214.921 307.288 214.352 307.564C213.782 307.825 213.342 308.207 213.033 308.712C212.724 309.2 212.569 309.778 212.569 310.445H205.538C205.538 309.322 205.799 308.256 206.319 307.247C206.84 306.238 207.597 305.351 208.59 304.586C209.583 303.805 210.763 303.194 212.13 302.755C213.513 302.315 215.06 302.096 216.769 302.096C218.819 302.096 220.642 302.438 222.237 303.121C223.832 303.805 225.086 304.83 225.997 306.197C226.925 307.564 227.389 309.273 227.389 311.324V322.628C227.389 324.076 227.478 325.265 227.657 326.192C227.836 327.104 228.097 327.901 228.438 328.585V329H221.334C220.992 328.284 220.732 327.389 220.553 326.314C220.39 325.224 220.309 324.133 220.309 323.043ZM221.236 312.911L221.285 316.891H217.354C216.427 316.891 215.621 316.996 214.938 317.208C214.254 317.42 213.692 317.721 213.253 318.111C212.813 318.486 212.488 318.925 212.276 319.43C212.081 319.934 211.983 320.488 211.983 321.09C211.983 321.692 212.122 322.237 212.398 322.726C212.675 323.198 213.074 323.572 213.595 323.849C214.116 324.109 214.726 324.239 215.426 324.239C216.484 324.239 217.403 324.028 218.185 323.604C218.966 323.181 219.568 322.66 219.991 322.042C220.431 321.424 220.659 320.838 220.675 320.284L222.53 323.263C222.27 323.93 221.912 324.622 221.456 325.338C221.017 326.054 220.455 326.729 219.771 327.364C219.088 327.983 218.266 328.495 217.306 328.902C216.345 329.293 215.206 329.488 213.888 329.488C212.211 329.488 210.689 329.155 209.322 328.487C207.971 327.804 206.897 326.868 206.1 325.68C205.318 324.475 204.928 323.108 204.928 321.578C204.928 320.195 205.188 318.966 205.709 317.892C206.23 316.817 206.995 315.914 208.004 315.182C209.029 314.433 210.307 313.871 211.837 313.497C213.367 313.106 215.141 312.911 217.159 312.911H221.236Z" fill="#4C5359"/>
<path d="M62.7443 335.182C62.6676 334.534 62.3565 334.031 61.8111 333.673C61.2656 333.315 60.5966 333.136 59.804 333.136C59.2244 333.136 58.7173 333.23 58.2827 333.418C57.8523 333.605 57.5156 333.863 57.2727 334.191C57.0341 334.519 56.9148 334.892 56.9148 335.31C56.9148 335.659 56.9979 335.96 57.1641 336.211C57.3345 336.458 57.5518 336.665 57.8161 336.831C58.0803 336.993 58.3572 337.127 58.647 337.234C58.9368 337.336 59.2031 337.419 59.446 337.483L60.7756 337.841C61.1165 337.93 61.4957 338.054 61.9134 338.212C62.3352 338.369 62.7379 338.585 63.1214 338.857C63.5092 339.126 63.8288 339.471 64.0803 339.893C64.3317 340.315 64.4574 340.832 64.4574 341.446C64.4574 342.153 64.272 342.793 63.9013 343.364C63.5348 343.935 62.9979 344.388 62.2905 344.725C61.5874 345.062 60.733 345.23 59.7273 345.23C58.7898 345.23 57.978 345.079 57.2919 344.776C56.6101 344.474 56.0732 344.052 55.6811 343.511C55.2933 342.969 55.0739 342.341 55.0227 341.625H56.6591C56.7017 342.119 56.8679 342.528 57.1577 342.852C57.4517 343.172 57.8224 343.411 58.2699 343.568C58.7216 343.722 59.2074 343.798 59.7273 343.798C60.3324 343.798 60.8757 343.7 61.3572 343.504C61.8388 343.304 62.2202 343.027 62.5014 342.673C62.7827 342.315 62.9233 341.898 62.9233 341.42C62.9233 340.986 62.8018 340.632 62.5589 340.359C62.3161 340.087 61.9964 339.865 61.6001 339.695C61.2038 339.524 60.7756 339.375 60.3153 339.247L58.7045 338.787C57.6818 338.493 56.8722 338.073 56.2756 337.528C55.679 336.982 55.3807 336.268 55.3807 335.386C55.3807 334.653 55.5788 334.014 55.9751 333.469C56.3757 332.919 56.9126 332.493 57.5859 332.19C58.2635 331.884 59.0199 331.73 59.8551 331.73C60.6989 331.73 61.4489 331.881 62.1051 332.184C62.7614 332.482 63.2813 332.891 63.6648 333.411C64.0526 333.931 64.2571 334.521 64.2784 335.182H62.7443ZM69.7484 345.23C69.1262 345.23 68.5616 345.113 68.0545 344.879C67.5474 344.64 67.1447 344.297 66.8464 343.849C66.5481 343.398 66.399 342.852 66.399 342.213C66.399 341.651 66.5098 341.195 66.7314 340.845C66.9529 340.491 67.2491 340.214 67.6199 340.014C67.9906 339.814 68.3997 339.665 68.8471 339.567C69.2988 339.464 69.7527 339.384 70.2086 339.324C70.8052 339.247 71.2889 339.19 71.6596 339.151C72.0346 339.109 72.3074 339.038 72.4778 338.94C72.6525 338.842 72.7399 338.672 72.7399 338.429V338.378C72.7399 337.747 72.5673 337.257 72.2221 336.908C71.8812 336.558 71.3635 336.384 70.6689 336.384C69.9487 336.384 69.3841 336.541 68.975 336.857C68.5659 337.172 68.2782 337.509 68.112 337.866L66.6802 337.355C66.9359 336.759 67.2768 336.294 67.7029 335.962C68.1333 335.625 68.6021 335.391 69.1092 335.259C69.6206 335.122 70.1234 335.054 70.6177 335.054C70.9331 335.054 71.2953 335.092 71.7044 335.169C72.1177 335.241 72.5162 335.393 72.8997 335.623C73.2875 335.853 73.6092 336.2 73.8649 336.665C74.1206 337.129 74.2484 337.751 74.2484 338.531V345H72.7399V343.67H72.6632C72.5609 343.884 72.3904 344.112 72.1518 344.354C71.9132 344.597 71.5957 344.804 71.1994 344.974C70.8031 345.145 70.3194 345.23 69.7484 345.23ZM69.9785 343.875C70.5751 343.875 71.0779 343.758 71.487 343.523C71.9004 343.289 72.2115 342.987 72.4203 342.616C72.6333 342.245 72.7399 341.855 72.7399 341.446V340.065C72.676 340.142 72.5353 340.212 72.318 340.276C72.1049 340.336 71.8578 340.389 71.5765 340.436C71.2995 340.479 71.0289 340.517 70.7647 340.551C70.5048 340.581 70.2939 340.607 70.1319 340.628C69.7399 340.679 69.3734 340.762 69.0325 340.877C68.6958 340.988 68.4231 341.156 68.2143 341.382C68.0098 341.604 67.9075 341.906 67.9075 342.29C67.9075 342.814 68.1014 343.21 68.4892 343.479C68.8812 343.743 69.3777 343.875 69.9785 343.875ZM84.6786 335.182L81.0479 345H79.5138L75.8832 335.182H77.5195L80.2298 343.006H80.332L83.0423 335.182H84.6786ZM90.4347 345.205C89.4886 345.205 88.6726 344.996 87.9865 344.578C87.3047 344.156 86.7784 343.568 86.4077 342.814C86.0412 342.055 85.858 341.173 85.858 340.168C85.858 339.162 86.0412 338.276 86.4077 337.509C86.7784 336.737 87.294 336.136 87.9545 335.706C88.6193 335.271 89.3949 335.054 90.2812 335.054C90.7926 335.054 91.2976 335.139 91.7962 335.31C92.2947 335.48 92.7486 335.757 93.1577 336.141C93.5668 336.52 93.8928 337.023 94.1357 337.649C94.3786 338.276 94.5 339.047 94.5 339.963V340.602H86.9318V339.298H92.9659C92.9659 338.744 92.8551 338.25 92.6335 337.815C92.4162 337.381 92.1051 337.038 91.7003 336.786C91.2997 336.535 90.8267 336.409 90.2812 336.409C89.6804 336.409 89.1605 336.558 88.7216 336.857C88.2869 337.151 87.9524 337.534 87.718 338.007C87.4837 338.48 87.3665 338.987 87.3665 339.528V340.398C87.3665 341.139 87.4943 341.768 87.75 342.283C88.0099 342.795 88.37 343.185 88.8303 343.453C89.2905 343.717 89.8253 343.849 90.4347 343.849C90.831 343.849 91.1889 343.794 91.5085 343.683C91.8324 343.568 92.1115 343.398 92.3459 343.172C92.5803 342.942 92.7614 342.656 92.8892 342.315L94.3466 342.724C94.1932 343.219 93.9354 343.653 93.5732 344.028C93.2109 344.399 92.7635 344.689 92.2308 344.898C91.6982 345.102 91.0994 345.205 90.4347 345.205ZM104.746 345.23C104.124 345.23 103.56 345.113 103.053 344.879C102.545 344.64 102.143 344.297 101.844 343.849C101.546 343.398 101.397 342.852 101.397 342.213C101.397 341.651 101.508 341.195 101.729 340.845C101.951 340.491 102.247 340.214 102.618 340.014C102.989 339.814 103.398 339.665 103.845 339.567C104.297 339.464 104.751 339.384 105.207 339.324C105.803 339.247 106.287 339.19 106.658 339.151C107.033 339.109 107.305 339.038 107.476 338.94C107.651 338.842 107.738 338.672 107.738 338.429V338.378C107.738 337.747 107.565 337.257 107.22 336.908C106.879 336.558 106.362 336.384 105.667 336.384C104.947 336.384 104.382 336.541 103.973 336.857C103.564 337.172 103.276 337.509 103.11 337.866L101.678 337.355C101.934 336.759 102.275 336.294 102.701 335.962C103.131 335.625 103.6 335.391 104.107 335.259C104.619 335.122 105.121 335.054 105.616 335.054C105.931 335.054 106.293 335.092 106.702 335.169C107.116 335.241 107.514 335.393 107.898 335.623C108.286 335.853 108.607 336.2 108.863 336.665C109.119 337.129 109.246 337.751 109.246 338.531V345H107.738V343.67H107.661C107.559 343.884 107.388 344.112 107.15 344.354C106.911 344.597 106.594 344.804 106.197 344.974C105.801 345.145 105.317 345.23 104.746 345.23ZM104.977 343.875C105.573 343.875 106.076 343.758 106.485 343.523C106.898 343.289 107.21 342.987 107.418 342.616C107.631 342.245 107.738 341.855 107.738 341.446V340.065C107.674 340.142 107.533 340.212 107.316 340.276C107.103 340.336 106.856 340.389 106.575 340.436C106.298 340.479 106.027 340.517 105.763 340.551C105.503 340.581 105.292 340.607 105.13 340.628C104.738 340.679 104.371 340.762 104.031 340.877C103.694 340.988 103.421 341.156 103.212 341.382C103.008 341.604 102.906 341.906 102.906 342.29C102.906 342.814 103.099 343.21 103.487 343.479C103.879 343.743 104.376 343.875 104.977 343.875ZM113.508 339.094V345H112V335.182H113.457V336.716H113.585C113.815 336.217 114.165 335.817 114.633 335.514C115.102 335.207 115.707 335.054 116.449 335.054C117.113 335.054 117.695 335.19 118.194 335.463C118.692 335.732 119.08 336.141 119.357 336.69C119.634 337.236 119.773 337.926 119.773 338.761V345H118.264V338.864C118.264 338.092 118.064 337.491 117.663 337.061C117.263 336.626 116.713 336.409 116.014 336.409C115.532 336.409 115.102 336.513 114.723 336.722C114.348 336.931 114.052 337.236 113.834 337.636C113.617 338.037 113.508 338.523 113.508 339.094ZM127.592 345V335.182H129.1V345H127.592ZM128.359 333.545C128.065 333.545 127.811 333.445 127.598 333.245C127.389 333.045 127.285 332.804 127.285 332.523C127.285 332.241 127.389 332.001 127.598 331.8C127.811 331.6 128.065 331.5 128.359 331.5C128.653 331.5 128.904 331.6 129.113 331.8C129.326 332.001 129.433 332.241 129.433 332.523C129.433 332.804 129.326 333.045 129.113 333.245C128.904 333.445 128.653 333.545 128.359 333.545ZM133.372 339.094V345H131.863V335.182H133.32V336.716H133.448C133.678 336.217 134.028 335.817 134.497 335.514C134.965 335.207 135.57 335.054 136.312 335.054C136.977 335.054 137.558 335.19 138.057 335.463C138.556 335.732 138.943 336.141 139.22 336.69C139.497 337.236 139.636 337.926 139.636 338.761V345H138.127V338.864C138.127 338.092 137.927 337.491 137.526 337.061C137.126 336.626 136.576 336.409 135.877 336.409C135.396 336.409 134.965 336.513 134.586 336.722C134.211 336.931 133.915 337.236 133.698 337.636C133.48 338.037 133.372 338.523 133.372 339.094ZM143.901 339.094V345H142.392V335.182H143.85V336.716H143.978C144.208 336.217 144.557 335.817 145.026 335.514C145.495 335.207 146.1 335.054 146.841 335.054C147.506 335.054 148.088 335.19 148.586 335.463C149.085 335.732 149.473 336.141 149.75 336.69C150.027 337.236 150.165 337.926 150.165 338.761V345H148.657V338.864C148.657 338.092 148.456 337.491 148.056 337.061C147.655 336.626 147.105 336.409 146.407 336.409C145.925 336.409 145.495 336.513 145.115 336.722C144.74 336.931 144.444 337.236 144.227 337.636C144.01 338.037 143.901 338.523 143.901 339.094ZM156.91 345.205C156.024 345.205 155.246 344.994 154.577 344.572C153.912 344.15 153.393 343.56 153.018 342.801C152.647 342.043 152.461 341.156 152.461 340.142C152.461 339.119 152.647 338.227 153.018 337.464C153.393 336.701 153.912 336.109 154.577 335.687C155.246 335.265 156.024 335.054 156.91 335.054C157.797 335.054 158.572 335.265 159.237 335.687C159.906 336.109 160.426 336.701 160.797 337.464C161.172 338.227 161.359 339.119 161.359 340.142C161.359 341.156 161.172 342.043 160.797 342.801C160.426 343.56 159.906 344.15 159.237 344.572C158.572 344.994 157.797 345.205 156.91 345.205ZM156.91 343.849C157.584 343.849 158.138 343.677 158.572 343.332C159.007 342.987 159.329 342.533 159.537 341.97C159.746 341.408 159.851 340.798 159.851 340.142C159.851 339.486 159.746 338.874 159.537 338.308C159.329 337.741 159.007 337.283 158.572 336.933C158.138 336.584 157.584 336.409 156.91 336.409C156.237 336.409 155.683 336.584 155.248 336.933C154.814 337.283 154.492 337.741 154.283 338.308C154.074 338.874 153.97 339.486 153.97 340.142C153.97 340.798 154.074 341.408 154.283 341.97C154.492 342.533 154.814 342.987 155.248 343.332C155.683 343.677 156.237 343.849 156.91 343.849ZM167.651 345.205C166.73 345.205 165.938 344.987 165.273 344.553C164.608 344.118 164.097 343.519 163.739 342.756C163.381 341.994 163.202 341.122 163.202 340.142C163.202 339.145 163.385 338.265 163.751 337.502C164.122 336.735 164.638 336.136 165.298 335.706C165.963 335.271 166.739 335.054 167.625 335.054C168.315 335.054 168.938 335.182 169.491 335.438C170.045 335.693 170.499 336.051 170.853 336.511C171.207 336.972 171.426 337.509 171.511 338.122H170.003C169.888 337.675 169.632 337.278 169.236 336.933C168.844 336.584 168.315 336.409 167.651 336.409C167.063 336.409 166.547 336.562 166.104 336.869C165.665 337.172 165.322 337.6 165.075 338.154C164.832 338.704 164.71 339.349 164.71 340.091C164.71 340.849 164.83 341.51 165.068 342.072C165.311 342.635 165.652 343.072 166.091 343.383C166.534 343.694 167.054 343.849 167.651 343.849C168.043 343.849 168.398 343.781 168.718 343.645C169.038 343.509 169.308 343.312 169.53 343.057C169.751 342.801 169.909 342.494 170.003 342.136H171.511C171.426 342.716 171.215 343.238 170.879 343.702C170.546 344.163 170.105 344.529 169.555 344.802C169.01 345.07 168.375 345.205 167.651 345.205ZM177.833 345.205C176.887 345.205 176.071 344.996 175.385 344.578C174.703 344.156 174.177 343.568 173.806 342.814C173.44 342.055 173.256 341.173 173.256 340.168C173.256 339.162 173.44 338.276 173.806 337.509C174.177 336.737 174.692 336.136 175.353 335.706C176.018 335.271 176.793 335.054 177.68 335.054C178.191 335.054 178.696 335.139 179.195 335.31C179.693 335.48 180.147 335.757 180.556 336.141C180.965 336.52 181.291 337.023 181.534 337.649C181.777 338.276 181.898 339.047 181.898 339.963V340.602H174.33V339.298H180.364C180.364 338.744 180.254 338.25 180.032 337.815C179.815 337.381 179.504 337.038 179.099 336.786C178.698 336.535 178.225 336.409 177.68 336.409C177.079 336.409 176.559 336.558 176.12 336.857C175.685 337.151 175.351 337.534 175.116 338.007C174.882 338.48 174.765 338.987 174.765 339.528V340.398C174.765 341.139 174.893 341.768 175.148 342.283C175.408 342.795 175.768 343.185 176.229 343.453C176.689 343.717 177.224 343.849 177.833 343.849C178.229 343.849 178.587 343.794 178.907 343.683C179.231 343.568 179.51 343.398 179.744 343.172C179.979 342.942 180.16 342.656 180.288 342.315L181.745 342.724C181.592 343.219 181.334 343.653 180.972 344.028C180.609 344.399 180.162 344.689 179.629 344.898C179.097 345.102 178.498 345.205 177.833 345.205ZM185.702 339.094V345H184.193V335.182H185.651V336.716H185.778C186.009 336.217 186.358 335.817 186.827 335.514C187.295 335.207 187.901 335.054 188.642 335.054C189.307 335.054 189.888 335.19 190.387 335.463C190.886 335.732 191.273 336.141 191.55 336.69C191.827 337.236 191.966 337.926 191.966 338.761V345H190.457V338.864C190.457 338.092 190.257 337.491 189.857 337.061C189.456 336.626 188.906 336.409 188.207 336.409C187.726 336.409 187.295 336.513 186.916 336.722C186.541 336.931 186.245 337.236 186.028 337.636C185.81 338.037 185.702 338.523 185.702 339.094ZM198.992 335.182V336.46H193.904V335.182H198.992ZM195.387 332.83H196.896V342.188C196.896 342.614 196.958 342.933 197.081 343.146C197.209 343.355 197.371 343.496 197.567 343.568C197.767 343.636 197.978 343.67 198.2 343.67C198.366 343.67 198.502 343.662 198.609 343.645C198.715 343.624 198.801 343.607 198.865 343.594L199.171 344.949C199.069 344.987 198.926 345.026 198.743 345.064C198.56 345.107 198.328 345.128 198.046 345.128C197.62 345.128 197.203 345.036 196.794 344.853C196.389 344.67 196.052 344.391 195.784 344.016C195.519 343.641 195.387 343.168 195.387 342.597V332.83ZM206.529 345V331.909H208.114V343.594H214.199V345H206.529ZM216.449 345V335.182H217.958V345H216.449ZM217.216 333.545C216.922 333.545 216.669 333.445 216.455 333.245C216.247 333.045 216.142 332.804 216.142 332.523C216.142 332.241 216.247 332.001 216.455 331.8C216.669 331.6 216.922 331.5 217.216 331.5C217.51 331.5 217.762 331.6 217.97 331.8C218.183 332.001 218.29 332.241 218.29 332.523C218.29 332.804 218.183 333.045 217.97 333.245C217.762 333.445 217.51 333.545 217.216 333.545ZM225.093 335.182V336.46H219.8V335.182H225.093ZM221.385 345V333.827C221.385 333.264 221.517 332.795 221.782 332.42C222.046 332.045 222.389 331.764 222.811 331.577C223.233 331.389 223.678 331.295 224.147 331.295C224.517 331.295 224.82 331.325 225.054 331.385C225.289 331.445 225.463 331.5 225.578 331.551L225.144 332.855C225.067 332.83 224.961 332.798 224.824 332.759C224.692 332.721 224.517 332.702 224.3 332.702C223.801 332.702 223.441 332.827 223.22 333.079C223.002 333.33 222.894 333.699 222.894 334.185V345H221.385ZM230.919 345.205C229.973 345.205 229.157 344.996 228.471 344.578C227.789 344.156 227.263 343.568 226.892 342.814C226.526 342.055 226.342 341.173 226.342 340.168C226.342 339.162 226.526 338.276 226.892 337.509C227.263 336.737 227.778 336.136 228.439 335.706C229.104 335.271 229.879 335.054 230.766 335.054C231.277 335.054 231.782 335.139 232.281 335.31C232.779 335.48 233.233 335.757 233.642 336.141C234.051 336.52 234.377 337.023 234.62 337.649C234.863 338.276 234.984 339.047 234.984 339.963V340.602H227.416V339.298H233.45C233.45 338.744 233.339 338.25 233.118 337.815C232.901 337.381 232.589 337.038 232.185 336.786C231.784 336.535 231.311 336.409 230.766 336.409C230.165 336.409 229.645 336.558 229.206 336.857C228.771 337.151 228.437 337.534 228.202 338.007C227.968 338.48 227.851 338.987 227.851 339.528V340.398C227.851 341.139 227.979 341.768 228.234 342.283C228.494 342.795 228.854 343.185 229.315 343.453C229.775 343.717 230.31 343.849 230.919 343.849C231.315 343.849 231.673 343.794 231.993 343.683C232.317 343.568 232.596 343.398 232.83 343.172C233.065 342.942 233.246 342.656 233.374 342.315L234.831 342.724C234.678 343.219 234.42 343.653 234.058 344.028C233.695 344.399 233.248 344.689 232.715 344.898C232.183 345.102 231.584 345.205 230.919 345.205Z" fill="#4C5359"/>
<path d="M27.7215 302.479C30.2481 299.807 27.9301 294.501 25.484 292.188C23.4457 290.262 20.0279 288.977 18.0844 291.033C15.5578 293.706 17.8758 299.012 20.3218 301.324C22.3602 303.251 25.7779 304.535 27.7215 302.479V302.479ZM20.336 310.292C22.2796 308.236 20.8053 304.896 18.767 302.969C16.1171 300.464 10.6895 298.447 8.16286 301.12C6.21932 303.176 7.69356 306.516 9.7319 308.443C12.1874 311.153 17.6151 313.17 20.336 310.292V310.292ZM32.6799 293.151C30.1533 295.824 32.0731 301.143 34.7229 303.648C36.5575 305.382 39.1694 306.294 40.9186 304.444C43.4452 301.771 41.5253 296.452 38.8755 293.947C37.041 292.213 34.2347 291.507 32.6799 293.151V293.151ZM22.0899 317.011C19.4401 314.506 13.8275 313.093 11.4953 315.56C9.74612 317.411 10.8032 319.967 12.6377 321.702C15.2876 324.207 20.9001 325.619 23.2324 323.152C24.9815 321.302 23.9245 318.745 22.0899 317.011ZM27.9016 310.047C24.0145 314.159 25.2897 325.876 29.774 330.115C31.8124 332.042 33.7843 331.181 35.3392 329.536C37.6714 327.069 37.7899 323.677 39.9278 321.416C41.8714 319.36 45.2512 319.051 47.3891 316.79C48.9439 315.145 50.2854 312.909 48.0433 310.79C43.5589 306.55 31.7887 305.935 27.9016 310.047V310.047Z" fill="#4C5359"/>
<path d="M189.138 172.971C188.761 172.971 188.427 172.871 188.176 172.691C187.068 171.892 187.256 167.477 187.319 166.019C187.403 164.021 186.211 161.564 185.062 160.405C184.476 159.826 183.849 159.526 183.222 159.526H183.139L182.909 159.546L182.637 159.626C181.236 159.926 181.215 161.584 181.195 163.202C181.174 164.321 181.153 165.559 180.777 166.618C180.567 167.217 179.794 167.237 179.648 167.237C178.728 167.237 177.725 166.678 177.683 165.439C177.683 165.28 177.641 165.08 177.557 164.78C177.411 164.081 177.077 162.642 177.244 159.706C177.453 156.19 177.892 152.174 179.564 148.958L179.773 148.578L168.569 110.022L164.18 96.2969C165.768 95.4978 169.614 93.7998 173.481 93.7998C177.976 93.7998 181.132 96.0772 182.888 100.552C185.772 107.744 187.549 116.434 188.49 127.921C189.221 136.752 190.455 144.103 191.019 145.821C191.186 146.321 191.521 147.34 191.521 147.34C192.169 149.357 192.419 150.117 195.116 155.53C196.537 158.387 195.973 161.264 195.304 164.6C195.074 165.719 194.865 166.838 194.698 167.996C194.301 170.534 191.207 172.971 189.138 172.971V172.971Z" fill="url(#paint0_linear_2_5)"/>
<path d="M94.8239 172.971C92.7545 172.971 89.6609 170.514 89.3055 168.016C89.1383 166.838 88.9084 165.699 88.6994 164.62C88.0305 161.284 87.4661 158.387 88.8666 155.53C91.5422 150.157 91.8139 149.337 92.441 147.4C92.5873 146.96 92.7336 146.461 92.9635 145.841C93.5279 144.223 94.7612 136.911 95.5137 127.941C96.4752 116.434 98.252 107.744 101.095 100.592C102.872 96.1172 106.049 93.8597 110.522 93.8597C114.41 93.8597 118.256 95.5578 119.824 96.3369L115.434 110.022L104.23 148.598L104.439 148.978C106.132 152.194 106.55 156.21 106.759 159.726C106.906 162.662 106.592 164.101 106.425 164.8C106.362 165.1 106.32 165.3 106.32 165.459C106.258 166.698 105.254 167.257 104.356 167.257C103.77 167.257 103.352 167.038 103.227 166.638C102.851 165.599 102.83 164.341 102.809 163.242C102.788 161.624 102.746 159.946 101.199 159.606L100.823 159.566C100.133 159.566 99.5271 159.866 98.9209 160.445C97.7712 161.584 96.5797 164.061 96.6634 166.039C96.7261 167.497 96.9142 171.912 95.7854 172.731C95.5346 172.891 95.2002 172.971 94.8239 172.971V172.971Z" fill="url(#paint1_linear_2_5)"/>
<path d="M156.028 233.962L145.263 163.921C144.949 162.403 143.569 161.384 142.002 161.384C140.434 161.384 139.054 162.403 138.762 163.821L127.955 233.962L114.995 234.442L112.842 142.485H171.119L168.987 234.442L156.028 233.962Z" fill="#7C7C7C"/>
<path d="M162.925 239.137H172.227C173.941 239.097 175.175 237.219 174.673 235.581C173.126 230.606 168.423 226.95 162.925 226.95C157.323 226.95 152.558 230.746 151.094 235.86C150.635 237.498 151.91 239.117 153.624 239.117H162.925V239.137Z" fill="#424242"/>
<path d="M121.036 239.137H111.734C110.02 239.097 108.787 237.219 109.289 235.581C110.835 230.606 115.539 226.95 121.036 226.95C126.638 226.95 131.404 230.746 132.867 235.86C133.327 237.498 132.052 239.117 130.338 239.117H121.036V239.137Z" fill="#424242"/>
<path d="M162.194 81.0541C157.156 79.7755 150.53 78.9364 142.253 78.9364H142.085H141.918C133.641 78.9364 126.91 79.7755 121.914 81.0541C106.132 85.0696 102.14 94.1593 97.4368 106.326L112.842 112.719V147.24H171.37V112.719L186.588 106.326C181.884 94.1593 177.976 85.0696 162.194 81.0541Z" fill="url(#paint2_linear_2_5)"/>
<path d="M173.523 65.3517C172.394 63.3939 173.837 61.3961 176.282 58.9189C180.17 55.0033 184.414 45.9135 180.484 36.6639C180.505 36.604 179.71 35.0457 179.731 35.0058L178.101 34.9258C177.578 34.8459 159.79 34.826 141.981 34.826C124.172 34.826 106.383 34.8659 105.861 34.9258C105.861 34.9258 103.457 36.604 103.478 36.6639C99.548 45.8935 103.791 54.9833 107.679 58.9189C110.125 61.3961 111.567 63.3939 110.438 65.3517C109.351 67.2496 106.091 67.5293 106.091 67.5293C106.091 67.5293 106.843 69.4871 108.641 70.5259C110.313 71.5048 112.361 71.7245 113.804 71.7645C113.804 71.7645 119.364 79.1163 133.891 79.1163H141.981H150.07C164.598 79.1163 170.158 71.7645 170.158 71.7645C171.579 71.7245 173.628 71.5048 175.321 70.5259C177.139 69.4671 177.871 67.5293 177.871 67.5293C177.871 67.5293 174.61 67.2496 173.523 65.3517V65.3517Z" fill="#312D2D"/>
<path d="M141.981 79.1162V70.9654L167.796 69.0076L170.137 71.7645C170.137 71.7645 164.577 79.1162 150.049 79.1162H141.981Z" fill="url(#paint3_radial_2_5)"/>
<path d="M170.074 68.2085C166.207 62.5948 174.777 60.4971 174.777 60.4971C173.293 62.2752 172.604 63.8134 173.481 65.3317C174.568 67.2296 177.829 67.5093 177.829 67.5093C177.829 67.5093 173.419 71.305 170.074 68.2085V68.2085Z" fill="url(#paint4_radial_2_5)"/>
<path d="M180.505 36.6639C184.351 45.6138 180.296 54.8035 176.512 58.6992C175.99 59.2386 173.795 61.2963 173.293 62.9544C173.293 62.9544 164.681 51.4673 162.089 44.7149C161.567 43.3564 161.107 41.938 161.044 40.4996C161.002 39.4208 161.17 38.1223 161.839 37.2033C162.633 36.0646 180.066 35.7449 180.066 35.7449C180.045 35.725 180.505 36.6639 180.505 36.6639V36.6639Z" fill="url(#paint5_radial_2_5)"/>
<path d="M103.478 36.6639C99.6316 45.6138 103.687 54.8035 107.47 58.6992C107.993 59.2386 110.188 61.2962 110.689 62.9544C110.689 62.9544 119.301 51.4673 121.893 44.7149C122.416 43.3564 122.876 41.938 122.959 40.4996C123.001 39.4208 122.834 38.1223 122.165 37.2033C121.371 36.0646 120.43 36.3642 119.05 36.3642C116.437 36.3642 105.066 35.7249 104.168 35.7249C104.188 35.7249 103.478 36.6639 103.478 36.6639V36.6639Z" fill="url(#paint6_radial_2_5)"/>
<path d="M142.002 79.1162V70.9654L116.187 69.0076L113.846 71.7645C113.846 71.7645 119.406 79.1162 133.933 79.1162H142.002Z" fill="url(#paint7_radial_2_5)"/>
<path d="M113.908 68.2085C117.775 62.5948 109.205 60.4971 109.205 60.4971C110.689 62.2752 111.379 63.8134 110.501 65.3317C109.414 67.2296 106.153 67.5093 106.153 67.5093C106.153 67.5093 110.564 71.305 113.908 68.2085V68.2085Z" fill="url(#paint8_radial_2_5)"/>
<path d="M141.981 72.7634H131.529V83.3515C131.529 88.1461 135.773 92.0218 141.019 92.0218H142.921C148.168 92.0218 152.411 88.1461 152.411 83.3515V72.7634H141.981Z" fill="#EDC391"/>
<path d="M167.002 40.0401H160.25H123.712H116.96C111.567 40.0401 107.157 44.5351 107.157 50.0289C107.157 55.5227 111.567 60.0177 116.96 60.0177H123.712H160.271H167.022C172.415 60.0177 176.826 55.5227 176.826 50.0289C176.826 44.5351 172.415 40.0401 167.002 40.0401V40.0401Z" fill="#EDC391"/>
<path d="M141.981 4.71974C126.053 4.71974 111.274 21.0015 111.274 44.4551C111.274 67.769 126.492 79.296 141.981 79.296C157.47 79.296 172.687 67.769 172.687 44.4551C172.687 21.0015 157.909 4.71974 141.981 4.71974Z" fill="#F9DDBD"/>
<path d="M178.352 18.0648C176.136 14.8683 171.203 10.5931 166.772 10.3135C166.061 6.23803 161.504 2.78191 157.073 1.44342C145.116 -2.17253 137.34 1.88292 133.16 4.06048C132.282 4.51996 126.68 7.49662 122.75 5.35902C120.284 4.02052 120.346 0.404582 120.346 0.404582C120.346 0.404582 112.633 3.20144 115.288 11.0327C112.654 11.1325 109.163 12.2113 107.324 15.7474C105.129 19.9826 105.923 23.5186 106.55 25.2167C104.272 27.0547 101.408 30.9903 103.373 36.1045C104.857 39.9402 110.752 41.7182 110.752 41.7182C110.334 48.6305 111.692 52.8857 112.403 54.6237C112.529 54.9234 112.968 54.9034 113.051 54.5838C113.95 51.1676 117.002 39.221 116.688 37.1234C116.688 37.1234 126.931 35.1855 136.713 28.2933C138.699 26.8948 140.852 25.6962 143.151 24.8172C155.442 20.1424 158.013 28.1135 158.013 28.1135C158.013 28.1135 166.521 26.5552 169.092 37.8426C170.053 42.0778 170.722 48.8502 171.266 53.6049C171.307 53.9445 171.788 54.0044 171.914 53.7048C172.771 51.8269 174.485 48.0911 174.903 44.2753C175.049 42.9368 178.833 41.1588 180.442 35.4053C182.616 27.7539 179.961 20.3822 178.352 18.0648V18.0648Z" fill="#312D2D"/>
<path d="M174.882 44.3153C175.028 42.9768 178.812 41.1988 180.421 35.4453C180.588 34.826 180.735 34.2067 180.881 33.5873C182.198 26.5952 179.836 20.1824 178.352 18.0648C176.303 15.1081 171.935 11.2524 167.775 10.4533C167.42 10.4134 167.064 10.3734 166.73 10.3534C166.73 10.3534 167.022 12.2113 166.249 13.6897C165.225 15.6075 163.176 16.067 163.176 16.067C173.983 26.4154 173.21 35.0657 174.882 44.3153V44.3153Z" fill="url(#paint9_radial_2_5)"/>
<path d="M135.773 2.76195C134.79 3.22144 133.912 3.68092 133.16 4.06049C132.282 4.51998 126.68 7.49664 122.75 5.35904C120.325 4.04052 120.346 0.544441 120.346 0.424576C119.238 1.78305 115.873 11.4722 125.697 12.1115C129.941 12.3911 132.554 8.85511 134.1 5.85848C134.665 4.77969 135.543 3.20146 135.773 2.76195Z" fill="url(#paint10_radial_2_5)"/>
<path d="M155.839 1.10379C162.466 2.82187 165.685 6.03826 166.751 10.3334C167.064 11.592 167.44 23.3588 143.946 9.99382C135.208 5.0194 137.591 1.9029 138.615 1.56328C142.629 0.164849 148.44 -0.814053 155.839 1.10379V1.10379Z" fill="url(#paint11_radial_2_5)"/>
<path d="M120.305 0.424565C120.284 0.424565 120.284 0.444542 120.242 0.444542C119.406 0.784161 112.8 3.70089 115.267 11.0327L122.311 12.1114C116.082 6.07822 120.346 0.404587 120.346 0.404587C120.346 0.404587 120.325 0.424565 120.305 0.424565V0.424565Z" fill="url(#paint12_radial_2_5)"/>
<path d="M119.615 11.6919L115.267 11.0127C115.1 11.0127 114.514 11.0526 114.201 11.1126C111.755 11.4322 108.871 12.6508 107.303 15.7473C105.631 19.0836 105.672 21.9404 106.132 23.8582C106.258 24.4975 106.53 25.2167 106.53 25.2167C106.53 25.2167 108.683 23.2589 113.804 23.1391L119.615 11.6919Z" fill="url(#paint13_radial_2_5)"/>
<path d="M106.341 25.3765C104.209 27.1945 101.325 31.25 103.436 36.2643C105.045 40.0601 110.752 41.6982 110.752 41.6982C110.752 41.7182 111.902 42.0378 112.487 42.0378L113.825 23.1191C111.086 23.1191 108.453 23.8982 106.759 25.0369C106.759 25.0769 106.32 25.3566 106.341 25.3765V25.3765Z" fill="url(#paint14_radial_2_5)"/>
<path d="M149.694 63.314C146.768 64.9721 137.215 64.9721 134.289 63.314C132.616 62.355 130.902 63.8134 131.592 65.2718C132.282 66.7102 137.487 70.0264 142.002 70.0264C146.517 70.0264 151.659 66.7102 152.349 65.2718C153.059 63.8134 151.366 62.355 149.694 63.314V63.314Z" fill="#444444"/>
<path d="M145.513 56.142C145.409 56.1021 145.325 56.0821 145.221 56.0621H138.741C138.636 56.0821 138.532 56.1021 138.448 56.142C137.863 56.3618 137.528 56.9411 137.821 57.5804C138.114 58.2197 139.389 59.9378 141.981 59.9378C144.573 59.9378 145.869 58.1997 146.14 57.5804C146.433 56.9611 146.099 56.3818 145.513 56.142Z" fill="#DBA689"/>
<path d="M126.931 52.4861C129.424 52.4861 131.446 50.4826 131.446 48.0111C131.446 45.5397 129.424 43.5362 126.931 43.5362C124.437 43.5362 122.416 45.5397 122.416 48.0111C122.416 50.4826 124.437 52.4861 126.931 52.4861Z" fill="#312D2D"/>
<path d="M157.031 52.4861C159.524 52.4861 161.546 50.4826 161.546 48.0111C161.546 45.5397 159.524 43.5362 157.031 43.5362C154.537 43.5362 152.516 45.5397 152.516 48.0111C152.516 50.4826 154.537 52.4861 157.031 52.4861Z" fill="#312D2D"/>
<path d="M150.342 40.0001C151.199 38.9214 153.185 37.3232 157.052 37.3232C160.919 37.3232 162.905 38.9014 163.762 40.0001C164.138 40.4796 164.054 41.039 163.782 41.3786C163.532 41.6982 162.821 41.9779 162.027 41.7182C161.232 41.4585 159.665 40.6994 157.073 40.6794C154.46 40.6994 152.913 41.4585 152.119 41.7182C151.324 41.9779 150.593 41.6982 150.363 41.3786C150.049 41.019 149.966 40.4796 150.342 40.0001V40.0001Z" fill="#454140"/>
<path d="M120.221 40.0001C121.078 38.9214 123.064 37.3232 126.931 37.3232C130.798 37.3232 132.784 38.9014 133.641 40.0001C134.017 40.4796 133.933 41.039 133.661 41.3786C133.411 41.6982 132.7 41.9779 131.906 41.7182C131.111 41.4585 129.544 40.6994 126.952 40.6794C124.339 40.6994 122.792 41.4585 121.998 41.7182C121.203 41.9779 120.472 41.6982 120.242 41.3786C119.928 41.019 119.845 40.4796 120.221 40.0001Z" fill="#454140"/>
<defs>
<linearGradient id="paint0_linear_2_5" x1="180.043" y1="95.1644" x2="180.043" y2="172.13" gradientUnits="userSpaceOnUse">
<stop offset="0.5993" stop-color="#F9DDBD"/>
<stop offset="1" stop-color="#FFD29C"/>
</linearGradient>
<linearGradient id="paint1_linear_2_5" x1="103.92" y1="95.1644" x2="103.92" y2="172.13" gradientUnits="userSpaceOnUse">
<stop offset="0.5993" stop-color="#F9DDBD"/>
<stop offset="1" stop-color="#FFD29C"/>
</linearGradient>
<linearGradient id="paint2_linear_2_5" x1="142.012" y1="78.459" x2="142.012" y2="145.179" gradientUnits="userSpaceOnUse">
<stop offset="0.3661" stop-color="#F78C1F"/>
<stop offset="0.6716" stop-color="#F47F12"/>
<stop offset="0.9886" stop-color="#EF6C00"/>
</linearGradient>
<radialGradient id="paint3_radial_2_5" cx="0" cy="0" r="1" gradientUnits="userSpaceOnUse" gradientTransform="translate(155.159 67.3343) scale(21.1633 9.93526)">
<stop offset="0.7275" stop-color="#454140" stop-opacity="0"/>
<stop offset="1" stop-color="#454140"/>
</radialGradient>
<radialGradient id="paint4_radial_2_5" cx="0" cy="0" r="1" gradientUnits="userSpaceOnUse" gradientTransform="translate(176.01 64.3233) rotate(155.905) scale(6.20521 4.4691)">
<stop offset="0.6628" stop-color="#454140"/>
<stop offset="1" stop-color="#454140" stop-opacity="0"/>
</radialGradient>
<radialGradient id="paint5_radial_2_5" cx="0" cy="0" r="1" gradientUnits="userSpaceOnUse" gradientTransform="translate(159.799 47.42) rotate(-94.4757) scale(26.2619 22.8893)">
<stop offset="0.7247" stop-color="#454140" stop-opacity="0"/>
<stop offset="1" stop-color="#454140"/>
</radialGradient>
<radialGradient id="paint6_radial_2_5" cx="0" cy="0" r="1" gradientUnits="userSpaceOnUse" gradientTransform="translate(124.183 47.42) rotate(-85.5243) scale(26.2619 22.8893)">
<stop offset="0.7247" stop-color="#454140" stop-opacity="0"/>
<stop offset="1" stop-color="#454140"/>
</radialGradient>
<radialGradient id="paint7_radial_2_5" cx="0" cy="0" r="1" gradientUnits="userSpaceOnUse" gradientTransform="translate(128.823 67.3343) rotate(180) scale(21.1633 9.93526)">
<stop offset="0.7275" stop-color="#454140" stop-opacity="0"/>
<stop offset="1" stop-color="#454140"/>
</radialGradient>
<radialGradient id="paint8_radial_2_5" cx="0" cy="0" r="1" gradientUnits="userSpaceOnUse" gradientTransform="translate(107.972 64.3232) rotate(24.0948) scale(6.20521 4.4691)">
<stop offset="0.6628" stop-color="#454140"/>
<stop offset="1" stop-color="#454140" stop-opacity="0"/>
</radialGradient>
<radialGradient id="paint9_radial_2_5" cx="0" cy="0" r="1" gradientUnits="userSpaceOnUse" gradientTransform="translate(158.426 33.5639) rotate(71.3118) scale(30.9127 23.7855)">
<stop offset="0.6985" stop-color="#454140" stop-opacity="0"/>
<stop offset="1" stop-color="#454140"/>
</radialGradient>
<radialGradient id="paint10_radial_2_5" cx="0" cy="0" r="1" gradientUnits="userSpaceOnUse" gradientTransform="translate(127.037 0.0147919) rotate(27.1358) scale(8.36082 9.66147)">
<stop offset="0.58" stop-color="#454140"/>
<stop offset="1" stop-color="#454140" stop-opacity="0"/>
</radialGradient>
<radialGradient id="paint11_radial_2_5" cx="0" cy="0" r="1" gradientUnits="userSpaceOnUse" gradientTransform="translate(145.909 14.6634) rotate(-158.103) scale(26.2331 14.2762)">
<stop offset="0.6985" stop-color="#454140" stop-opacity="0"/>
<stop offset="1" stop-color="#454140"/>
</radialGradient>
<radialGradient id="paint12_radial_2_5" cx="0" cy="0" r="1" gradientUnits="userSpaceOnUse" gradientTransform="translate(123.645 7.37287) scale(7.74953 9.06036)">
<stop offset="0.7016" stop-color="#454140" stop-opacity="0"/>
<stop offset="1" stop-color="#454140"/>
</radialGradient>
<radialGradient id="paint13_radial_2_5" cx="0" cy="0" r="1" gradientUnits="userSpaceOnUse" gradientTransform="translate(122.572 20.451) rotate(-165.581) scale(14.4924 13.0381)">
<stop offset="0.6605" stop-color="#454140" stop-opacity="0"/>
<stop offset="1" stop-color="#454140"/>
</radialGradient>
<radialGradient id="paint14_radial_2_5" cx="0" cy="0" r="1" gradientUnits="userSpaceOnUse" gradientTransform="translate(119.138 33.858) rotate(7.49081) scale(15.2475 20.5098)">
<stop offset="0.5981" stop-color="#454140" stop-opacity="0"/>
<stop offset="1" stop-color="#454140"/>
</radialGradient>
</defs>
</svg>
